if (_typeface_js && _typeface_js.loadFace) _typeface_js.loadFace({"glyphs":{"¦":{"x_min":54.171875,"x_max":202.796875,"ha":257,"o":"m 202 355 l 202 -163 l 54 -163 l 54 355 l 202 355 m 202 1055 l 202 536 l 54 536 l 54 1055 l 202 1055 "},"ǻ":{"x_min":13.890625,"x_max":713.953125,"ha":746,"o":"m 707 0 l 516 0 l 516 68 q 411 6 466 27 q 302 -15 355 -15 q 187 15 240 -15 q 96 100 134 45 q 36 231 58 155 q 13 398 13 308 q 37 575 13 493 q 102 717 61 657 q 199 811 143 777 q 320 845 255 845 q 429 821 377 845 q 516 761 480 797 l 516 830 l 713 830 l 707 0 m 279 501 q 310 409 279 444 q 390 375 341 375 q 479 412 443 375 q 516 508 516 450 q 507 558 516 534 q 481 599 498 581 q 443 626 465 616 q 395 636 420 636 q 312 598 345 636 q 279 501 279 561 m 411 950 q 461 969 443 950 q 480 1020 480 988 q 461 1071 480 1052 q 411 1090 443 1090 q 359 1071 379 1090 q 338 1020 338 1052 q 359 969 338 988 q 411 950 379 950 m 411 883 q 304 924 340 883 q 268 1020 268 965 q 304 1115 268 1076 q 411 1154 340 1154 q 516 1115 481 1154 q 551 1020 551 1076 q 516 924 551 965 q 411 883 481 883 m 451 1451 l 654 1451 l 476 1186 l 350 1186 l 451 1451 "},"Ő":{"x_min":18.0625,"x_max":826.453125,"ha":845,"o":"m 422 1152 q 727 1005 629 1152 q 826 577 826 858 q 729 138 826 293 q 422 -15 633 -15 q 241 24 318 -15 q 115 139 165 63 q 41 325 65 215 q 18 577 18 436 q 116 1007 18 862 q 422 1152 215 1152 m 422 343 q 500 363 466 343 q 556 418 534 383 q 590 503 579 454 q 601 612 601 552 q 590 722 601 672 q 556 811 579 773 q 500 869 534 848 q 422 890 466 890 q 345 868 377 890 q 289 809 312 847 q 255 721 266 772 q 244 612 244 670 q 255 503 244 552 q 289 418 266 454 q 345 363 312 383 q 422 343 377 343 m 338 1444 l 491 1444 l 361 1179 l 248 1179 l 338 1444 m 575 1444 l 727 1444 l 597 1179 l 484 1179 l 575 1444 "},"ṭ":{"x_min":20.828125,"x_max":401.421875,"ha":421,"o":"m 104 991 l 294 991 l 294 830 l 401 830 l 401 461 l 291 461 l 291 266 q 301 190 291 209 q 345 172 311 172 q 372 173 355 172 q 397 177 388 175 q 400 138 400 168 q 400 77 400 108 q 400 29 400 51 q 398 0 400 8 q 361 -4 381 -2 q 322 -8 341 -6 q 288 -10 304 -9 q 262 -11 272 -11 q 180 8 212 -11 q 130 60 148 27 q 105 134 112 93 q 98 218 98 175 q 99 267 98 234 q 100 336 100 300 q 102 406 101 372 q 104 461 104 440 l 20 461 l 20 830 l 104 830 l 104 991 m 251 -72 q 328 -105 301 -72 q 355 -179 355 -138 q 328 -252 355 -219 q 251 -284 301 -284 q 174 -252 201 -284 q 147 -179 147 -219 q 174 -105 147 -138 q 251 -72 201 -72 "},"Ž":{"x_min":5.5625,"x_max":687.5625,"ha":703,"o":"m 16 0 q 5 129 5 59 q 9 209 5 172 q 20 284 13 247 l 408 887 l 47 887 q 40 938 43 911 q 38 995 38 966 q 41 1070 38 1033 q 50 1136 44 1107 l 669 1136 q 674 1084 672 1111 q 676 1027 676 1058 q 675 974 676 1004 q 669 895 673 944 l 281 295 l 677 295 q 685 225 683 263 q 687 147 687 187 q 685 67 687 105 q 677 0 683 29 l 16 0 m 134 1357 l 176 1451 l 372 1355 l 568 1451 l 609 1357 l 372 1198 l 134 1357 "},"Á":{"x_min":-5.5625,"x_max":747.28125,"ha":742,"o":"m -5 0 l 200 1136 l 543 1136 l 747 0 l 512 0 l 477 227 l 263 227 l 230 0 l -5 0 m 301 476 l 440 476 l 370 934 l 301 476 m 384 1444 l 587 1444 l 409 1179 l 283 1179 l 384 1444 "},"ĥ":{"x_min":33.34375,"x_max":604.21875,"ha":638,"o":"m 251 1168 q 244 1032 247 1090 q 240 927 241 975 q 238 838 238 879 q 237 755 237 797 q 318 821 270 797 q 413 845 365 845 q 472 836 444 845 q 525 812 501 827 q 566 775 548 797 q 591 729 583 754 q 600 672 597 709 q 604 593 604 636 l 604 0 l 400 0 l 400 416 q 379 482 400 458 q 326 506 359 506 q 264 484 291 506 q 237 430 237 462 l 237 0 l 33 0 q 36 395 36 184 q 36 847 36 605 q 36 972 36 922 q 36 1058 36 1023 q 35 1118 36 1093 q 34 1168 34 1143 l 251 1168 m 318 1451 l 555 1294 l 513 1200 l 318 1294 l 122 1200 l 80 1294 l 318 1451 "},"ǆ":{"x_min":13.890625,"x_max":1352.890625,"ha":1374,"o":"m 707 0 l 516 0 l 516 68 q 411 6 466 27 q 302 -15 355 -15 q 187 15 240 -15 q 96 100 134 45 q 36 231 58 155 q 13 398 13 308 q 37 575 13 493 q 102 717 61 657 q 199 811 143 777 q 320 845 255 845 q 429 821 377 845 q 516 761 480 797 l 516 1168 l 713 1168 l 707 0 m 279 501 q 310 409 279 444 q 390 375 341 375 q 479 412 443 375 q 516 508 516 450 q 507 558 516 534 q 481 599 498 581 q 443 626 465 616 q 395 636 420 636 q 312 598 345 636 q 279 501 279 561 m 786 0 q 777 61 779 27 q 775 129 775 94 q 778 209 775 172 q 788 284 782 247 l 1082 551 l 813 551 q 807 614 809 579 q 804 690 804 650 q 807 765 804 729 q 813 830 809 801 l 1339 830 q 1343 779 1341 805 q 1345 720 1345 752 q 1344 668 1345 698 q 1339 590 1343 637 l 1005 295 l 1343 295 q 1350 225 1347 263 q 1352 147 1352 187 q 1350 67 1352 105 q 1343 0 1347 29 l 786 0 m 859 1080 l 901 1175 l 1097 1079 l 1293 1175 l 1334 1080 l 1097 922 l 859 1080 "},"Î":{"x_min":11.109375,"x_max":486.15625,"ha":493,"o":"m 137 393 l 137 618 q 136 769 137 707 q 136 884 136 832 l 33 884 q 30 947 31 916 q 29 1009 29 977 q 30 1073 29 1041 q 33 1136 31 1105 l 461 1136 q 462 1073 462 1104 q 462 1009 462 1041 q 462 947 462 977 q 461 884 462 916 l 359 884 q 356 701 356 791 q 355 500 355 611 l 355 393 l 461 393 q 462 294 462 343 q 462 195 462 245 q 462 97 462 147 q 461 0 462 48 l 33 0 q 30 97 31 48 q 29 195 29 147 q 30 294 29 245 q 33 393 31 343 l 137 393 m 248 1451 l 486 1294 l 444 1200 l 248 1294 l 52 1200 l 11 1294 l 248 1451 "},"e":{"x_min":12.5,"x_max":708.390625,"ha":725,"o":"m 319 437 q 379 340 337 377 q 494 302 420 302 q 542 306 516 302 q 593 316 568 309 q 640 329 618 322 q 679 344 662 337 q 682 259 682 304 q 683 169 683 213 q 679 37 683 95 q 436 -15 570 -15 q 309 -1 373 -15 q 186 51 245 12 q 99 132 133 86 q 45 228 65 179 q 19 325 26 277 q 12 409 12 372 q 25 525 12 465 q 66 641 38 586 q 137 741 94 695 q 238 813 180 787 q 388 845 309 845 q 538 812 472 845 q 647 720 605 779 q 697 597 687 665 q 708 437 708 529 l 319 437 m 398 695 q 343 671 369 695 q 308 586 316 647 l 490 586 q 457 668 484 641 q 398 695 430 695 "},"»":{"x_min":25,"x_max":1041.75,"ha":1056,"o":"m 25 751 l 191 847 l 615 415 l 191 -18 l 25 79 l 354 415 l 25 751 m 451 751 l 618 847 l 1041 415 l 618 -18 l 451 79 l 780 415 l 451 751 "},"ļ":{"x_min":12.5,"x_max":251.40625,"ha":275,"o":"m 251 1168 q 240 776 244 975 q 237 354 237 577 q 237 202 237 259 q 237 107 237 144 q 238 47 237 70 q 238 0 238 25 l 30 0 q 36 286 34 122 q 37 666 37 450 q 37 827 37 761 q 36 947 37 893 q 36 1052 36 1001 q 36 1168 36 1102 l 251 1168 m 229 -76 l 145 -284 l 12 -284 l 45 -76 l 229 -76 "},"Ĕ":{"x_min":38.890625,"x_max":552.828125,"ha":576,"o":"m 552 -4 q 450 -2 513 -2 q 313 0 386 -1 q 167 0 240 0 q 38 0 94 0 q 40 77 40 29 q 41 188 41 126 q 41 324 41 251 q 41 475 41 397 q 40 686 41 580 q 40 882 40 791 q 39 1040 40 973 q 38 1134 38 1107 q 158 1134 93 1134 q 291 1135 223 1134 q 425 1137 359 1136 q 547 1140 490 1138 q 547 1109 547 1122 q 548 1072 548 1095 q 547 1032 548 1055 q 546 985 547 1009 q 545 936 545 961 q 543 891 544 912 l 263 891 l 263 730 l 506 730 l 506 523 l 263 523 l 263 368 l 547 368 q 550 302 548 336 q 552 227 551 269 q 552 129 552 186 q 552 -4 552 73 m 513 1411 q 496 1325 513 1362 q 451 1262 479 1287 q 386 1224 423 1237 q 311 1211 350 1211 q 234 1224 270 1211 q 170 1262 198 1237 q 125 1325 143 1287 q 108 1411 108 1362 l 204 1411 q 236 1326 206 1358 q 311 1294 266 1294 q 385 1326 355 1294 q 418 1411 415 1358 l 513 1411 "},"ị":{"x_min":-5.5625,"x_max":286.140625,"ha":276,"o":"m 36 808 l 240 808 l 240 0 l 36 0 l 36 808 m 143 1152 q 203 1139 176 1152 q 248 1105 230 1126 q 276 1059 266 1084 q 286 1009 286 1033 q 274 950 286 977 q 242 903 262 923 q 196 871 222 883 q 141 859 170 859 q 77 871 105 859 q 31 902 50 883 q 3 945 12 920 q -5 997 -5 970 q 4 1051 -5 1023 q 34 1102 15 1079 q 80 1138 52 1125 q 143 1152 108 1152 m 130 -72 q 207 -105 180 -72 q 234 -179 234 -138 q 207 -252 234 -219 q 130 -284 180 -284 q 53 -252 80 -284 q 26 -179 26 -219 q 53 -105 26 -138 q 130 -72 80 -72 "},"ỹ":{"x_min":-8.328125,"x_max":636.15625,"ha":628,"o":"m 636 830 l 350 -251 l 140 -251 l 205 23 l -8 830 l 211 830 l 287 426 q 299 377 294 394 q 315 361 304 361 q 345 426 333 361 l 425 830 l 636 830 m 62 1097 q 129 1127 98 1118 q 190 1136 161 1136 q 261 1123 229 1136 q 325 1096 294 1111 q 385 1069 355 1082 q 448 1057 415 1057 q 513 1071 477 1057 q 588 1122 548 1086 l 588 972 q 513 929 548 941 q 447 918 477 918 q 377 930 409 918 q 314 958 345 943 q 252 986 283 973 q 188 998 222 998 q 129 986 159 998 q 62 944 98 975 l 62 1097 "},"ò":{"x_min":16.671875,"x_max":648.65625,"ha":665,"o":"m 333 845 q 575 734 502 845 q 648 415 648 623 q 575 95 648 205 q 333 -15 502 -15 q 89 95 162 -15 q 16 415 16 205 q 89 734 16 623 q 333 845 162 845 m 333 311 q 382 322 361 311 q 418 351 404 333 q 438 392 431 369 q 445 440 445 415 q 438 488 445 465 q 418 530 431 512 q 382 559 404 548 q 333 570 361 570 q 247 530 276 570 q 219 440 219 490 q 226 392 219 415 q 247 351 233 369 q 283 322 262 333 q 333 311 304 311 m 420 902 l 294 902 l 116 1168 l 319 1168 l 420 902 "},"ﬄ":{"x_min":19.453125,"x_max":1090.359375,"ha":1114,"o":"m 1090 1168 q 1079 776 1083 975 q 1076 354 1076 577 q 1076 202 1076 259 q 1076 107 1076 144 q 1077 47 1076 70 q 1077 0 1077 25 l 869 0 q 875 286 873 122 q 876 666 876 450 q 876 827 876 761 q 875 947 876 893 q 875 1052 875 1001 q 875 1168 875 1102 l 1090 1168 m 508 444 l 444 444 l 444 736 l 506 736 l 506 836 q 515 982 506 927 q 543 1072 523 1036 q 609 1143 566 1118 q 704 1168 651 1168 q 758 1166 743 1168 q 787 1159 773 1163 q 795 1008 795 1113 q 786 854 795 891 q 752 859 769 859 q 706 833 718 859 q 694 765 694 807 l 694 736 l 807 736 l 807 444 l 697 444 l 697 0 l 508 0 l 508 444 m 83 444 l 19 444 l 19 736 l 81 736 l 81 836 q 90 982 81 927 q 118 1072 98 1036 q 184 1143 141 1118 q 279 1168 226 1168 q 333 1166 318 1168 q 362 1159 348 1163 q 370 1008 370 1113 q 361 854 370 891 q 327 859 344 859 q 281 833 293 859 q 269 765 269 807 l 269 736 l 381 736 l 381 444 l 272 444 l 272 0 l 83 0 l 83 444 "},"ţ":{"x_min":20.828125,"x_max":401.421875,"ha":421,"o":"m 104 991 l 294 991 l 294 830 l 401 830 l 401 461 l 291 461 l 291 266 q 301 190 291 209 q 345 172 311 172 q 372 173 355 172 q 397 177 388 175 q 400 138 400 168 q 400 77 400 108 q 400 29 400 51 q 398 0 400 8 q 361 -4 381 -2 q 322 -8 341 -6 q 288 -10 304 -9 q 262 -11 272 -11 q 180 8 212 -11 q 130 60 148 27 q 105 134 112 93 q 98 218 98 175 q 99 267 98 234 q 100 336 100 300 q 102 406 101 372 q 104 461 104 440 l 20 461 l 20 830 l 104 830 l 104 991 m 359 -75 l 276 -284 l 143 -284 l 176 -76 l 359 -75 "},"^":{"x_min":19.453125,"x_max":700.0625,"ha":720,"o":"m 402 702 l 700 175 l 556 175 l 359 541 l 162 175 l 19 175 l 316 702 l 402 702 "},"«":{"x_min":13.890625,"x_max":1030.640625,"ha":1056,"o":"m 276 415 l 604 79 l 438 -18 l 13 415 l 438 847 l 604 751 l 276 415 m 702 415 l 1030 79 l 865 -18 l 440 415 l 865 847 l 1030 751 l 702 415 "},"∙":{"x_min":16.671875,"x_max":311.140625,"ha":326,"o":"m 165 630 q 227 616 200 630 q 272 581 254 602 q 301 534 291 559 q 311 484 311 508 q 299 426 311 454 q 267 377 287 398 q 220 344 247 356 q 163 331 193 331 q 98 343 126 331 q 52 375 70 355 q 25 420 34 395 q 16 472 16 445 q 26 528 16 500 q 54 579 36 556 q 101 616 73 602 q 165 630 129 630 "},"í":{"x_min":36.109375,"x_max":358.359375,"ha":276,"o":"m 36 808 l 240 808 l 240 0 l 36 0 l 36 808 m 155 1168 l 358 1168 l 180 902 l 54 902 l 155 1168 "},"ˆ":{"x_min":27.78125,"x_max":502.8125,"ha":531,"o":"m 265 1175 l 502 1018 l 461 923 l 265 1018 l 69 923 l 27 1018 l 265 1175 "},"ū":{"x_min":33.34375,"x_max":608.375,"ha":638,"o":"m 400 0 l 400 73 q 319 9 366 33 q 223 -15 272 -15 q 164 -6 193 -15 q 112 18 136 2 q 71 54 88 33 q 45 101 54 76 q 36 157 40 120 q 33 236 33 194 l 33 830 l 237 830 l 237 413 q 256 347 237 372 q 309 323 276 323 q 343 330 326 323 q 374 348 361 337 q 395 375 387 359 q 404 406 404 390 l 404 830 l 608 830 q 605 734 607 784 q 602 632 604 683 q 600 531 601 581 q 600 437 600 481 q 600 358 600 411 q 600 243 600 305 q 601 115 601 180 q 601 0 601 50 l 400 0 m 561 1105 l 561 975 l 102 975 l 102 1105 l 561 1105 "},"Ẅ":{"x_min":-1.390625,"x_max":1125.09375,"ha":1128,"o":"m 894 1136 l 1125 1136 l 955 0 l 682 0 l 561 608 l 440 0 l 173 0 l -1 1136 l 229 1136 l 316 359 l 475 1126 l 652 1134 l 809 359 l 894 1136 m 330 1304 q 363 1382 330 1358 q 433 1405 395 1405 q 503 1376 477 1405 q 529 1304 529 1347 q 502 1231 529 1259 q 434 1202 475 1202 q 400 1208 418 1202 q 366 1225 381 1213 q 340 1257 350 1237 q 330 1304 330 1276 m 593 1305 q 602 1350 593 1332 q 625 1382 611 1369 q 658 1400 640 1394 q 694 1405 676 1405 q 765 1376 738 1405 q 791 1304 791 1347 q 764 1231 791 1259 q 697 1202 737 1202 q 662 1208 680 1202 q 628 1225 644 1213 q 602 1257 612 1237 q 593 1305 593 1276 "},"ȷ":{"x_min":-80.5625,"x_max":225.015625,"ha":261,"o":"m 225 -4 q 222 -99 225 -56 q 206 -175 219 -141 q 48 -266 172 -266 q 20 -265 37 -266 q -13 -263 4 -265 q -46 -260 -30 -262 q -72 -255 -62 -258 q -79 -215 -77 -236 q -80 -177 -80 -194 q -77 -119 -80 -148 q -69 -68 -75 -90 q -45 -72 -61 -70 q -19 -73 -29 -73 q 25 -54 15 -73 q 36 20 36 -36 l 36 808 l 225 808 l 225 -4 "},"ņ":{"x_min":34.71875,"x_max":602.828125,"ha":635,"o":"m 236 830 l 236 755 q 317 821 269 797 q 415 845 365 845 q 523 812 476 845 q 586 733 570 779 q 597 675 593 712 q 602 593 602 638 l 602 0 l 398 0 l 398 402 q 375 486 398 465 q 322 508 352 508 q 259 482 281 508 q 236 416 236 456 l 236 0 l 34 0 q 35 96 34 45 q 36 197 36 147 q 36 298 36 248 q 36 393 36 348 q 36 472 36 419 q 35 587 36 525 q 34 715 34 650 q 34 830 34 780 l 236 830 m 415 -76 l 331 -284 l 198 -284 l 231 -76 l 415 -76 "},"µ":{"x_min":44.453125,"x_max":619.5,"ha":650,"o":"m 44 830 l 248 830 l 248 405 q 270 345 248 368 q 329 322 293 322 q 387 344 365 322 q 411 402 409 366 l 425 830 l 619 830 q 616 734 618 784 q 613 632 615 683 q 611 531 612 581 q 611 437 611 481 q 611 358 611 411 q 611 243 611 305 q 612 115 612 180 q 612 0 612 50 l 418 0 l 418 90 q 362 16 401 48 q 273 -15 323 -15 q 227 -6 251 -15 q 181 18 204 1 l 248 -230 l 248 -268 l 44 -268 l 44 830 "},"ỳ":{"x_min":-8.328125,"x_max":636.15625,"ha":628,"o":"m 636 830 l 350 -251 l 140 -251 l 205 23 l -8 830 l 211 830 l 287 426 q 299 377 294 394 q 315 361 304 361 q 345 426 333 361 l 425 830 l 636 830 m 402 902 l 276 902 l 98 1168 l 301 1168 l 402 902 "},"č":{"x_min":13.890625,"x_max":587.546875,"ha":597,"o":"m 418 845 q 566 822 500 845 q 567 771 566 798 q 568 716 568 744 q 567 658 568 687 q 566 604 566 629 q 454 643 520 643 q 384 629 412 643 q 339 595 356 616 q 315 550 322 575 q 308 504 308 526 q 319 446 308 473 q 350 398 330 419 q 395 366 369 377 q 450 354 420 354 q 508 365 477 354 q 566 395 538 376 q 567 300 566 350 q 568 201 568 251 q 567 102 568 152 q 566 1 566 51 q 412 -15 488 -15 q 244 14 318 -15 q 119 100 170 44 q 40 235 68 155 q 13 413 13 315 q 38 586 13 506 q 114 723 63 666 q 240 813 165 780 q 418 845 316 845 m 112 1080 l 154 1175 l 350 1079 l 545 1175 l 587 1080 l 350 922 l 112 1080 "},"’":{"x_min":15.28125,"x_max":287.515625,"ha":299,"o":"m 16 998 q 15 1018 15 1009 q 15 1037 15 1026 q 50 1131 15 1094 q 144 1168 84 1168 q 250 1120 212 1168 q 287 997 287 1073 q 273 907 287 951 q 234 823 259 862 q 170 752 208 784 q 87 701 133 720 l 29 752 q 89 817 68 780 q 111 890 111 854 q 86 957 111 927 q 16 998 62 987 "},"-":{"x_min":34.71875,"x_max":450.03125,"ha":488,"o":"m 448 586 q 449 529 448 556 q 450 473 450 501 q 449 418 450 445 q 448 363 448 391 l 37 363 q 34 419 34 391 q 34 475 34 447 q 34 530 34 502 q 37 586 34 558 l 448 586 "},"Q":{"x_min":18.0625,"x_max":826.453125,"ha":845,"o":"m 422 1152 q 727 1005 629 1152 q 826 577 826 858 q 768 211 826 336 q 602 59 711 86 q 691 36 644 44 q 801 27 737 27 l 722 -222 q 624 -203 669 -220 q 543 -157 579 -186 q 478 -92 506 -129 q 429 -15 450 -55 l 422 -15 q 241 24 318 -15 q 115 139 165 63 q 41 325 65 215 q 18 577 18 436 q 116 1007 18 862 q 422 1152 215 1152 m 422 343 q 500 363 466 343 q 556 418 534 383 q 590 503 579 454 q 601 612 601 552 q 590 722 601 672 q 556 811 579 773 q 500 869 534 848 q 422 890 466 890 q 345 868 377 890 q 289 809 312 847 q 255 721 266 772 q 244 612 244 670 q 255 503 244 552 q 289 418 266 454 q 345 363 312 383 q 422 343 377 343 "},"M":{"x_min":37.5,"x_max":927.859375,"ha":967,"o":"m 719 695 l 540 48 l 411 48 l 243 677 q 249 336 244 508 q 256 0 254 163 l 37 0 q 41 284 40 143 q 43 568 43 425 q 41 852 43 711 q 37 1136 40 993 l 334 1136 l 481 484 l 647 1136 l 927 1136 q 923 568 923 852 q 927 0 923 283 l 705 0 l 719 695 "},"œ":{"x_min":16.671875,"x_max":1093.140625,"ha":1110,"o":"m 333 845 q 468 822 412 845 q 562 751 523 798 q 660 820 607 795 q 773 845 713 845 q 923 812 857 845 q 1032 720 990 779 q 1082 597 1072 665 q 1093 437 1093 529 l 704 437 q 763 340 722 377 q 879 302 805 302 q 927 306 901 302 q 977 316 952 309 q 1025 329 1002 322 q 1063 344 1047 337 q 1067 259 1066 304 q 1068 172 1068 213 q 1063 34 1068 90 q 820 -18 955 -18 q 687 5 752 -18 q 566 81 622 29 q 333 -15 490 -15 q 89 95 162 -15 q 16 415 16 205 q 89 734 16 623 q 333 845 162 845 m 333 311 q 382 322 361 311 q 418 351 404 333 q 438 392 431 369 q 445 440 445 415 q 438 488 445 465 q 418 530 431 512 q 382 559 404 548 q 333 570 361 570 q 247 530 276 570 q 219 440 219 490 q 226 392 219 415 q 247 351 233 369 q 283 322 262 333 q 333 311 304 311 m 783 695 q 727 671 754 695 q 693 586 701 647 l 875 586 q 842 668 869 641 q 783 695 815 695 "},"ě":{"x_min":12.5,"x_max":708.390625,"ha":725,"o":"m 319 437 q 379 340 337 377 q 494 302 420 302 q 542 306 516 302 q 593 316 568 309 q 640 329 618 322 q 679 344 662 337 q 682 259 682 304 q 683 169 683 213 q 679 37 683 95 q 436 -15 570 -15 q 309 -1 373 -15 q 186 51 245 12 q 99 132 133 86 q 45 228 65 179 q 19 325 26 277 q 12 409 12 372 q 25 525 12 465 q 66 641 38 586 q 137 741 94 695 q 238 813 180 787 q 388 845 309 845 q 538 812 472 845 q 647 720 605 779 q 697 597 687 665 q 708 437 708 529 l 319 437 m 398 695 q 343 671 369 695 q 308 586 316 647 l 490 586 q 457 668 484 641 q 398 695 430 695 m 151 1080 l 193 1175 l 388 1079 l 584 1175 l 626 1080 l 388 922 l 151 1080 "},"ũ":{"x_min":33.34375,"x_max":608.375,"ha":638,"o":"m 400 0 l 400 73 q 319 9 366 33 q 223 -15 272 -15 q 164 -6 193 -15 q 112 18 136 2 q 71 54 88 33 q 45 101 54 76 q 36 157 40 120 q 33 236 33 194 l 33 830 l 237 830 l 237 413 q 256 347 237 372 q 309 323 276 323 q 343 330 326 323 q 374 348 361 337 q 395 375 387 359 q 404 406 404 390 l 404 830 l 608 830 q 605 734 607 784 q 602 632 604 683 q 600 531 601 581 q 600 437 600 481 q 600 358 600 411 q 600 243 600 305 q 601 115 601 180 q 601 0 601 50 l 400 0 m 68 1097 q 135 1127 104 1118 q 195 1136 166 1136 q 267 1123 234 1136 q 330 1096 300 1111 q 391 1069 361 1082 q 454 1057 420 1057 q 518 1071 483 1057 q 594 1122 554 1086 l 594 972 q 518 929 554 941 q 452 918 483 918 q 383 930 415 918 q 320 958 351 943 q 258 986 288 973 q 194 998 227 998 q 134 986 165 998 q 68 944 104 975 l 68 1097 "},"ŭ":{"x_min":33.34375,"x_max":608.375,"ha":638,"o":"m 400 0 l 400 73 q 319 9 366 33 q 223 -15 272 -15 q 164 -6 193 -15 q 112 18 136 2 q 71 54 88 33 q 45 101 54 76 q 36 157 40 120 q 33 236 33 194 l 33 830 l 237 830 l 237 413 q 256 347 237 372 q 309 323 276 323 q 343 330 326 323 q 374 348 361 337 q 395 375 387 359 q 404 406 404 390 l 404 830 l 608 830 q 605 734 607 784 q 602 632 604 683 q 600 531 601 581 q 600 437 600 481 q 600 358 600 411 q 600 243 600 305 q 601 115 601 180 q 601 0 601 50 l 400 0 m 523 1134 q 506 1048 523 1086 q 461 986 488 1011 q 396 947 433 961 q 320 934 359 934 q 244 947 280 934 q 180 986 208 961 q 135 1048 152 1011 q 118 1134 118 1086 l 213 1134 q 246 1050 216 1082 q 320 1018 276 1018 q 395 1050 365 1018 q 427 1134 425 1082 l 523 1134 "},"Ə":{"x_min":18.0625,"x_max":841.734375,"ha":856,"o":"m 18 409 q 23 505 18 455 q 40 608 29 555 l 547 608 q 479 792 538 737 q 288 847 419 847 q 72 815 179 847 q 55 906 61 857 q 50 1011 50 955 q 51 1057 50 1034 q 55 1101 52 1080 q 124 1122 86 1112 q 203 1138 162 1132 q 285 1150 244 1145 q 359 1154 326 1154 q 558 1111 469 1154 q 710 993 647 1069 q 807 809 773 916 q 841 573 841 702 q 808 337 841 445 q 714 150 775 229 q 570 28 654 72 q 384 -15 486 -15 q 234 14 301 -15 q 118 100 166 44 q 44 234 70 155 q 18 409 18 312 m 393 280 q 541 459 518 280 l 270 459 q 393 280 270 280 "},"{":{"x_min":-5.5625,"x_max":380.59375,"ha":394,"o":"m 380 1066 l 348 1066 q 286 1041 305 1066 q 268 966 268 1016 l 268 707 q 238 602 268 643 q 165 559 208 562 l 165 554 q 238 512 208 548 q 268 393 268 476 l 268 133 q 286 58 268 83 q 348 33 305 33 l 380 33 l 380 -113 l 312 -113 q 240 -100 275 -113 q 179 -61 205 -87 q 138 3 154 -36 q 122 95 122 43 l 122 345 q 86 455 122 416 q -5 494 50 494 l -5 619 q 86 655 50 619 q 122 754 122 691 l 122 1004 q 138 1096 122 1057 q 179 1161 154 1136 q 240 1200 205 1187 q 312 1213 275 1213 l 380 1213 l 380 1066 "},"¼":{"x_min":29.171875,"x_max":1008.40625,"ha":1032,"o":"m 777 1134 l 295 -58 l 209 -5 l 682 1187 l 777 1134 m 261 1243 q 257 1138 258 1188 q 255 1030 256 1087 q 254 907 254 973 q 254 755 254 840 l 329 755 q 333 704 331 730 q 334 652 334 679 q 333 603 334 629 q 329 550 331 577 l 34 550 q 32 595 33 573 q 31 641 31 618 q 31 697 31 669 q 34 755 31 726 l 104 755 q 103 907 104 827 q 102 1052 102 986 l 33 1041 q 29 1077 30 1059 q 29 1113 29 1095 q 29 1165 29 1133 q 33 1215 30 1197 l 261 1243 m 958 682 l 958 322 l 1008 322 l 1008 137 l 958 137 l 958 0 l 804 0 l 804 137 l 586 137 l 586 322 l 758 682 l 958 682 m 698 322 l 804 322 l 804 555 l 698 322 "},"#":{"x_min":23.609375,"x_max":908.40625,"ha":932,"o":"m 284 813 l 348 1136 l 495 1136 l 429 813 l 588 813 l 652 1136 l 801 1136 l 734 813 l 908 813 l 908 666 l 704 666 l 668 488 l 866 488 l 866 341 l 637 341 l 566 0 l 429 0 l 495 341 l 331 341 l 261 0 l 125 0 l 191 341 l 23 341 l 23 488 l 220 488 l 255 666 l 65 666 l 65 813 l 284 813 m 362 488 l 525 488 l 559 666 l 398 666 l 362 488 "},"ǉ":{"x_min":30.5625,"x_max":590.328125,"ha":574,"o":"m 251 1168 q 240 776 244 975 q 237 354 237 577 q 237 202 237 259 q 237 107 237 144 q 238 47 237 70 q 238 0 238 25 l 30 0 q 36 286 34 122 q 37 666 37 450 q 37 827 37 761 q 36 947 37 893 q 36 1052 36 1001 q 36 1168 36 1102 l 251 1168 m 537 -4 q 534 -99 537 -56 q 519 -175 531 -141 q 361 -266 484 -266 q 333 -265 350 -266 q 299 -263 316 -265 q 265 -260 281 -262 q 240 -255 250 -258 q 233 -215 234 -236 q 231 -177 231 -194 q 234 -119 231 -148 q 243 -68 237 -90 q 267 -72 251 -70 q 293 -73 283 -73 q 338 -54 327 -73 q 348 20 348 -36 l 348 808 l 537 808 l 537 -4 m 447 1152 q 507 1139 480 1152 q 552 1105 534 1126 q 580 1059 570 1084 q 590 1009 590 1033 q 578 950 590 977 q 546 903 566 923 q 500 871 526 883 q 445 859 475 859 q 381 871 409 859 q 335 902 354 883 q 307 945 316 920 q 298 997 298 970 q 309 1051 298 1023 q 338 1102 319 1079 q 384 1138 356 1125 q 447 1152 412 1152 "},"Ĳ":{"x_min":29.171875,"x_max":997.296875,"ha":1033,"o":"m 137 393 l 137 618 q 136 769 137 707 q 136 884 136 832 l 33 884 q 30 947 31 916 q 29 1009 29 977 q 30 1073 29 1041 q 33 1136 31 1105 l 461 1136 q 462 1073 462 1104 q 462 1009 462 1041 q 462 947 462 977 q 461 884 462 916 l 359 884 q 356 701 356 791 q 355 500 355 611 l 355 393 l 461 393 q 462 294 462 343 q 462 195 462 245 q 462 97 462 147 q 461 0 462 48 l 33 0 q 30 97 31 48 q 29 195 29 147 q 30 294 29 245 q 33 393 31 343 l 137 393 m 997 594 q 996 430 997 495 q 994 323 995 365 q 990 258 993 281 q 984 216 987 234 q 895 48 966 112 q 693 -15 823 -15 q 611 -10 659 -15 q 518 6 563 -5 q 513 103 515 54 q 512 201 512 152 q 513 301 512 251 q 518 401 515 351 q 580 379 552 386 q 638 372 608 372 q 709 386 682 372 q 752 431 736 401 q 773 511 768 462 q 779 626 779 559 l 779 898 l 586 898 l 586 1136 l 997 1136 l 997 594 "},"Ê":{"x_min":38.890625,"x_max":552.828125,"ha":576,"o":"m 552 -4 q 450 -2 513 -2 q 313 0 386 -1 q 167 0 240 0 q 38 0 94 0 q 40 77 40 29 q 41 188 41 126 q 41 324 41 251 q 41 475 41 397 q 40 686 41 580 q 40 882 40 791 q 39 1040 40 973 q 38 1134 38 1107 q 158 1134 93 1134 q 291 1135 223 1134 q 425 1137 359 1136 q 547 1140 490 1138 q 547 1109 547 1122 q 548 1072 548 1095 q 547 1032 548 1055 q 546 985 547 1009 q 545 936 545 961 q 543 891 544 912 l 263 891 l 263 730 l 506 730 l 506 523 l 263 523 l 263 368 l 547 368 q 550 302 548 336 q 552 227 551 269 q 552 129 552 186 q 552 -4 552 73 m 311 1451 l 548 1294 l 506 1200 l 311 1294 l 115 1200 l 73 1294 l 311 1451 "},")":{"x_min":-2.78125,"x_max":315.296875,"ha":336,"o":"m 152 1243 q 272 900 230 1083 q 315 534 315 718 q 272 172 315 351 q 152 -158 230 -6 l -2 -111 q 112 213 73 40 q 151 554 151 386 q 113 887 151 722 q -2 1195 75 1052 l 152 1243 "},"ș":{"x_min":13.890625,"x_max":525.046875,"ha":532,"o":"m 113 779 q 215 831 161 816 q 325 845 269 845 q 404 838 365 845 q 480 820 444 832 q 484 682 483 736 q 484 600 484 629 q 483 541 484 558 q 480 508 481 523 q 466 511 477 508 q 440 516 455 513 q 407 521 425 519 q 373 523 390 523 q 331 517 348 523 q 313 493 313 511 q 325 464 313 477 q 352 438 336 451 q 386 413 368 425 q 422 391 405 401 q 492 324 459 366 q 525 212 525 281 q 497 108 525 151 q 429 37 470 65 q 335 -2 387 9 q 233 -15 283 -15 q 188 -13 213 -15 q 138 -8 163 -12 q 87 2 112 -4 q 41 18 62 8 q 31 68 34 41 q 29 122 29 95 q 29 152 29 134 q 31 189 30 170 q 36 226 33 208 q 41 256 38 244 q 77 242 56 250 q 119 227 97 234 q 163 215 141 220 q 204 211 184 211 q 247 222 231 211 q 262 252 262 233 q 252 282 262 269 q 229 307 243 295 q 198 328 215 319 q 168 344 181 337 q 113 375 141 358 q 63 416 86 391 q 27 475 41 440 q 13 559 13 509 q 36 676 13 618 q 113 779 59 734 m 355 -76 l 272 -284 l 138 -284 l 172 -76 l 355 -76 "},"Å":{"x_min":-5.5625,"x_max":747.28125,"ha":742,"o":"m -5 0 l 200 1136 l 543 1136 l 747 0 l 512 0 l 477 227 l 263 227 l 230 0 l -5 0 m 301 476 l 440 476 l 370 934 l 301 476 m 370 1245 q 421 1265 402 1245 q 440 1316 440 1284 q 421 1367 440 1348 q 370 1386 402 1386 q 318 1367 338 1386 q 298 1316 298 1348 q 318 1265 298 1284 q 370 1245 338 1245 m 370 1179 q 263 1220 300 1179 q 227 1316 227 1261 q 263 1411 227 1372 q 370 1450 300 1450 q 476 1411 441 1450 q 511 1316 511 1372 q 476 1220 511 1261 q 370 1179 441 1179 "},"¸":{"x_min":69.453125,"x_max":286.140625,"ha":356,"o":"m 286 -75 l 202 -284 l 69 -284 l 102 -76 l 286 -75 "},"a":{"x_min":13.890625,"x_max":713.953125,"ha":746,"o":"m 707 0 l 516 0 l 516 68 q 411 6 466 27 q 302 -15 355 -15 q 187 15 240 -15 q 96 100 134 45 q 36 231 58 155 q 13 398 13 308 q 37 575 13 493 q 102 717 61 657 q 199 811 143 777 q 320 845 255 845 q 429 821 377 845 q 516 761 480 797 l 516 830 l 713 830 l 707 0 m 279 501 q 310 409 279 444 q 390 375 341 375 q 479 412 443 375 q 516 508 516 450 q 507 558 516 534 q 481 599 498 581 q 443 626 465 616 q 395 636 420 636 q 312 598 345 636 q 279 501 279 561 "},"Ę":{"x_min":38.890625,"x_max":552.828125,"ha":576,"o":"m 441 -254 q 294 -284 354 -284 q 206 -258 238 -284 q 175 -187 175 -231 q 201 -97 175 -147 q 276 0 227 -48 l 38 0 q 40 77 40 29 q 41 188 41 126 q 41 324 41 251 q 41 475 41 397 q 40 686 41 580 q 40 882 40 791 q 39 1040 40 973 q 38 1134 38 1107 q 158 1134 93 1134 q 291 1135 223 1134 q 425 1137 359 1136 q 547 1140 490 1138 q 547 1109 547 1122 q 548 1072 548 1095 q 547 1032 548 1055 q 546 985 547 1009 q 545 936 545 961 q 543 891 544 912 l 263 891 l 263 730 l 506 730 l 506 523 l 263 523 l 263 368 l 547 368 q 550 303 548 336 q 552 229 551 270 q 552 131 552 187 q 552 -1 552 76 l 394 -1 q 326 -83 352 -40 q 300 -154 300 -126 q 330 -183 300 -183 q 377 -177 350 -183 q 431 -161 405 -172 l 441 -254 "},"=":{"x_min":44.453125,"x_max":658.390625,"ha":703,"o":"m 654 408 q 657 356 655 381 q 658 306 658 331 q 657 256 658 280 q 654 205 655 231 l 50 205 q 45 256 47 231 q 44 306 44 280 q 45 356 44 331 q 50 408 47 381 l 654 408 m 654 752 q 657 701 655 726 q 658 651 658 676 q 657 600 658 625 q 654 550 655 576 l 50 550 q 45 600 47 576 q 44 651 44 625 q 45 701 44 676 q 50 752 47 726 l 654 752 "},"˚":{"x_min":25,"x_max":308.359375,"ha":333,"o":"m 168 969 q 218 988 200 969 q 237 1040 237 1008 q 218 1091 237 1072 q 168 1109 200 1109 q 115 1091 136 1109 q 95 1040 95 1072 q 115 988 95 1008 q 168 969 136 969 m 168 902 q 61 943 97 902 q 25 1040 25 984 q 61 1134 25 1095 q 168 1173 97 1173 q 273 1134 238 1173 q 308 1040 308 1095 q 273 943 308 984 q 168 902 238 902 "},"ú":{"x_min":33.34375,"x_max":608.375,"ha":638,"o":"m 400 0 l 400 73 q 319 9 366 33 q 223 -15 272 -15 q 164 -6 193 -15 q 112 18 136 2 q 71 54 88 33 q 45 101 54 76 q 36 157 40 120 q 33 236 33 194 l 33 830 l 237 830 l 237 413 q 256 347 237 372 q 309 323 276 323 q 343 330 326 323 q 374 348 361 337 q 395 375 387 359 q 404 406 404 390 l 404 830 l 608 830 q 605 734 607 784 q 602 632 604 683 q 600 531 601 581 q 600 437 600 481 q 600 358 600 411 q 600 243 600 305 q 601 115 601 180 q 601 0 601 50 l 400 0 m 334 1168 l 537 1168 l 359 902 l 233 902 l 334 1168 "},"¯":{"x_min":27.78125,"x_max":486.15625,"ha":514,"o":"m 486 1105 l 486 975 l 27 975 l 27 1105 l 486 1105 "},"Z":{"x_min":5.5625,"x_max":687.5625,"ha":703,"o":"m 16 0 q 5 129 5 59 q 9 209 5 172 q 20 284 13 247 l 408 887 l 47 887 q 40 938 43 911 q 38 995 38 966 q 41 1070 38 1033 q 50 1136 44 1107 l 669 1136 q 674 1084 672 1111 q 676 1027 676 1058 q 675 974 676 1004 q 669 895 673 944 l 281 295 l 677 295 q 685 225 683 263 q 687 147 687 187 q 685 67 687 105 q 677 0 683 29 l 16 0 "},"":{"x_min":69.453125,"x_max":286.140625,"ha":356,"o":"m 286 -76 l 202 -284 l 69 -284 l 102 -76 l 286 -76 "},"u":{"x_min":33.34375,"x_max":608.375,"ha":638,"o":"m 400 0 l 400 73 q 319 9 366 33 q 223 -15 272 -15 q 164 -6 193 -15 q 112 18 136 2 q 71 54 88 33 q 45 101 54 76 q 36 157 40 120 q 33 236 33 194 l 33 830 l 237 830 l 237 413 q 256 347 237 372 q 309 323 276 323 q 343 330 326 323 q 374 348 361 337 q 395 375 387 359 q 404 406 404 390 l 404 830 l 608 830 q 605 734 607 784 q 602 632 604 683 q 600 531 601 581 q 600 437 600 481 q 600 358 600 411 q 600 243 600 305 q 601 115 601 180 q 601 0 601 50 l 400 0 "},"ṛ":{"x_min":33.34375,"x_max":416.703125,"ha":436,"o":"m 211 830 l 220 725 q 261 773 237 751 q 310 811 284 795 q 361 836 336 827 q 409 845 387 845 q 414 763 412 809 q 416 668 416 716 q 414 558 416 612 q 409 458 412 504 q 375 466 397 463 q 337 469 352 469 q 261 445 286 469 q 237 384 237 420 l 237 0 l 33 0 q 35 427 34 225 q 36 830 36 629 l 211 830 m 152 -72 q 229 -105 202 -72 q 256 -179 256 -138 q 229 -252 256 -219 q 152 -284 202 -284 q 75 -252 102 -284 q 48 -179 48 -219 q 75 -105 48 -138 q 152 -72 102 -72 "},"k":{"x_min":29.171875,"x_max":693.109375,"ha":670,"o":"m 677 830 l 455 437 l 693 0 l 455 0 l 262 347 l 252 347 q 252 267 252 306 q 253 186 252 227 q 255 98 254 144 q 258 0 256 52 l 29 0 q 37 382 36 170 q 38 847 38 594 q 38 984 38 932 q 38 1070 38 1037 q 38 1125 38 1104 q 36 1168 37 1145 l 272 1168 q 265 938 268 1040 q 260 753 262 836 q 256 604 258 670 q 254 483 255 538 l 263 483 l 455 830 l 677 830 "},"Ù":{"x_min":27.78125,"x_max":800.0625,"ha":829,"o":"m 786 1137 q 794 786 788 934 q 800 534 800 638 q 795 399 800 466 q 777 270 791 331 q 738 157 763 209 q 670 66 712 105 q 565 6 627 27 q 416 -15 502 -15 q 264 7 327 -15 q 158 69 201 30 q 89 161 115 108 q 50 276 63 215 q 31 402 36 337 q 27 533 27 468 q 29 643 27 584 q 33 773 30 701 q 39 934 36 845 q 47 1136 43 1023 l 291 1136 q 284 924 287 1011 q 279 779 281 837 q 277 686 277 720 q 275 634 276 652 q 275 609 275 616 q 275 597 275 601 q 305 394 275 462 q 415 326 336 326 q 524 400 495 326 q 552 623 552 473 q 552 639 552 630 q 552 668 552 648 q 550 720 551 687 q 547 807 550 752 q 543 942 545 862 q 536 1136 540 1022 l 786 1137 m 502 1179 l 376 1179 l 198 1444 l 401 1444 l 502 1179 "},"Ů":{"x_min":27.78125,"x_max":800.0625,"ha":829,"o":"m 786 1137 q 794 786 788 934 q 800 534 800 638 q 795 399 800 466 q 777 270 791 331 q 738 157 763 209 q 670 66 712 105 q 565 6 627 27 q 416 -15 502 -15 q 264 7 327 -15 q 158 69 201 30 q 89 161 115 108 q 50 276 63 215 q 31 402 36 337 q 27 533 27 468 q 29 643 27 584 q 33 773 30 701 q 39 934 36 845 q 47 1136 43 1023 l 291 1136 q 284 924 287 1011 q 279 779 281 837 q 277 686 277 720 q 275 634 276 652 q 275 609 275 616 q 275 597 275 601 q 305 394 275 462 q 415 326 336 326 q 524 400 495 326 q 552 623 552 473 q 552 639 552 630 q 552 668 552 648 q 550 720 551 687 q 547 807 550 752 q 543 942 545 862 q 536 1136 540 1022 l 786 1137 m 415 1245 q 466 1265 447 1245 q 484 1316 484 1284 q 466 1367 484 1348 q 415 1386 447 1386 q 363 1367 383 1386 q 343 1316 343 1348 q 363 1265 343 1284 q 415 1245 383 1245 m 415 1179 q 308 1220 344 1179 q 272 1316 272 1261 q 308 1411 272 1372 q 415 1450 344 1450 q 520 1411 486 1450 q 555 1316 555 1372 q 520 1220 555 1261 q 415 1179 486 1179 "},"¢":{"x_min":22.21875,"x_max":520.875,"ha":563,"o":"m 22 422 q 81 658 22 559 q 259 793 140 757 l 234 990 l 430 990 l 406 811 q 466 804 438 809 q 519 790 494 798 q 520 745 519 769 q 520 694 520 720 q 520 642 520 668 q 519 593 519 616 q 418 629 479 629 q 355 616 380 629 q 315 585 330 604 q 293 545 300 566 q 287 504 287 523 q 297 452 287 476 q 325 409 308 427 q 366 379 343 390 q 415 368 388 368 q 467 377 438 368 q 519 405 495 387 q 520 320 519 365 q 520 230 520 276 q 520 140 520 186 q 519 51 519 95 q 406 36 459 37 l 430 -145 l 234 -145 l 259 51 q 84 181 145 84 q 22 422 22 277 "},"Ş":{"x_min":15.28125,"x_max":632,"ha":639,"o":"m 23 854 q 57 1000 23 943 q 143 1092 91 1058 q 259 1139 195 1126 q 380 1152 322 1152 q 422 1151 397 1152 q 477 1147 448 1150 q 535 1139 505 1144 q 591 1126 565 1134 q 595 1059 594 1090 q 597 987 597 1027 q 595 910 597 947 q 591 840 594 873 q 563 844 580 841 q 527 848 545 847 q 489 851 508 850 q 454 852 470 852 q 356 832 387 852 q 326 775 326 811 q 336 735 326 754 q 361 700 345 716 q 397 668 377 683 q 438 638 418 652 q 506 586 472 615 q 568 518 540 558 q 613 427 595 479 q 632 306 632 375 q 601 156 632 218 q 522 57 570 95 q 416 2 475 19 q 298 -15 356 -15 q 234 -11 272 -15 q 156 -2 195 -8 q 83 13 118 4 q 27 34 48 22 q 18 86 22 59 q 15 144 15 112 q 17 198 15 166 q 22 263 19 230 q 28 327 25 297 q 34 379 31 358 q 79 360 50 370 q 142 340 108 350 q 211 323 176 330 q 272 316 245 316 q 338 335 316 316 q 361 386 361 354 q 336 447 361 420 q 273 501 311 475 q 192 557 236 527 q 111 627 148 587 q 48 722 73 668 q 23 854 23 777 m 408 -75 l 325 -284 l 191 -284 l 225 -76 l 408 -75 "},"é":{"x_min":12.5,"x_max":708.390625,"ha":725,"o":"m 319 437 q 379 340 337 377 q 494 302 420 302 q 542 306 516 302 q 593 316 568 309 q 640 329 618 322 q 679 344 662 337 q 682 259 682 304 q 683 169 683 213 q 679 37 683 95 q 436 -15 570 -15 q 309 -1 373 -15 q 186 51 245 12 q 99 132 133 86 q 45 228 65 179 q 19 325 26 277 q 12 409 12 372 q 25 525 12 465 q 66 641 38 586 q 137 741 94 695 q 238 813 180 787 q 388 845 309 845 q 538 812 472 845 q 647 720 605 779 q 697 597 687 665 q 708 437 708 529 l 319 437 m 398 695 q 343 671 369 695 q 308 586 316 647 l 490 586 q 457 668 484 641 q 398 695 430 695 m 402 1168 l 605 1168 l 427 902 l 301 902 l 402 1168 "},"B":{"x_min":33.34375,"x_max":801.453125,"ha":811,"o":"m 256 768 q 288 765 276 765 q 315 765 301 765 q 434 793 390 765 q 479 866 479 820 q 441 930 479 908 q 329 952 402 952 q 286 950 305 952 q 256 944 268 948 l 256 768 m 38 0 q 40 124 40 63 q 42 243 41 184 q 43 362 43 302 q 43 486 43 422 q 40 834 43 668 q 33 1132 38 1001 q 193 1148 111 1143 q 340 1152 275 1152 q 726 929 726 1152 q 675 779 726 841 q 541 704 625 718 q 738 600 676 679 q 801 379 801 522 q 676 81 801 177 q 287 -15 551 -15 q 172 -11 236 -15 q 38 0 109 -8 m 256 373 q 298 366 270 369 q 352 363 326 363 q 485 391 440 363 q 530 470 530 419 q 482 551 530 523 q 350 579 434 579 q 310 577 331 579 q 256 573 288 576 l 256 373 "},"…":{"x_min":15.28125,"x_max":1120.921875,"ha":1135,"o":"m 163 283 q 225 269 198 283 q 271 234 252 255 q 300 186 290 212 q 309 137 309 161 q 297 79 309 106 q 266 30 286 51 q 218 -2 245 9 q 162 -15 191 -15 q 97 -3 125 -15 q 51 28 69 8 q 24 73 33 48 q 15 125 15 98 q 25 181 15 152 q 53 232 34 209 q 100 269 72 255 q 163 283 127 283 m 569 283 q 631 269 604 283 q 677 234 658 255 q 705 186 695 212 q 715 137 715 161 q 703 79 715 106 q 671 30 691 51 q 624 -2 651 9 q 568 -15 597 -15 q 502 -3 530 -15 q 456 28 475 8 q 429 73 438 48 q 420 125 420 98 q 430 181 420 152 q 459 232 440 209 q 505 269 477 255 q 569 283 533 283 m 975 283 q 1036 269 1009 283 q 1082 234 1063 255 q 1111 186 1101 212 q 1120 137 1120 161 q 1109 79 1120 106 q 1077 30 1097 51 q 1029 -2 1057 9 q 973 -15 1002 -15 q 908 -3 936 -15 q 862 28 880 8 q 835 73 844 48 q 826 125 826 98 q 836 181 826 152 q 864 232 845 209 q 911 269 883 255 q 975 283 938 283 "},"ē":{"x_min":12.5,"x_max":708.390625,"ha":725,"o":"m 319 437 q 379 340 337 377 q 494 302 420 302 q 542 306 516 302 q 593 316 568 309 q 640 329 618 322 q 679 344 662 337 q 682 259 682 304 q 683 169 683 213 q 679 37 683 95 q 436 -15 570 -15 q 309 -1 373 -15 q 186 51 245 12 q 99 132 133 86 q 45 228 65 179 q 19 325 26 277 q 12 409 12 372 q 25 525 12 465 q 66 641 38 586 q 137 741 94 695 q 238 813 180 787 q 388 845 309 845 q 538 812 472 845 q 647 720 605 779 q 697 597 687 665 q 708 437 708 529 l 319 437 m 398 695 q 343 671 369 695 q 308 586 316 647 l 490 586 q 457 668 484 641 q 398 695 430 695 m 629 1105 l 629 975 l 170 975 l 170 1105 l 629 1105 "},"H":{"x_min":36.109375,"x_max":702.828125,"ha":735,"o":"m 702 1136 q 696 970 698 1048 q 693 817 694 893 q 691 664 691 741 q 690 500 690 587 q 691 276 690 397 q 693 0 691 155 l 462 0 q 466 174 465 83 q 469 381 468 265 l 263 381 q 264 206 263 300 q 266 0 265 112 l 36 0 q 38 125 37 61 q 41 262 40 188 q 43 423 43 336 q 43 618 43 511 q 43 781 43 712 q 42 907 43 850 q 41 1017 41 963 q 41 1136 41 1070 l 276 1136 q 268 922 270 1020 q 263 725 265 825 l 469 725 q 469 841 469 788 q 468 941 469 893 q 468 1035 468 988 q 468 1136 468 1082 l 702 1136 "},"î":{"x_min":-68.0625,"x_max":351.421875,"ha":276,"o":"m 141 1175 l 351 1018 l 309 923 l 141 1018 l -26 923 l -68 1018 l 141 1175 m 36 808 l 240 808 l 240 0 l 36 0 l 36 808 "},"Ẹ":{"x_min":38.890625,"x_max":552.828125,"ha":576,"o":"m 552 -4 q 450 -2 513 -2 q 313 0 386 -1 q 167 0 240 0 q 38 0 94 0 q 40 77 40 29 q 41 188 41 126 q 41 324 41 251 q 41 475 41 397 q 40 686 41 580 q 40 882 40 791 q 39 1040 40 973 q 38 1134 38 1107 q 158 1134 93 1134 q 291 1135 223 1134 q 425 1137 359 1136 q 547 1140 490 1138 q 547 1109 547 1122 q 548 1072 548 1095 q 547 1032 548 1055 q 546 985 547 1009 q 545 936 545 961 q 543 891 544 912 l 263 891 l 263 730 l 506 730 l 506 523 l 263 523 l 263 368 l 547 368 q 550 302 548 336 q 552 227 551 269 q 552 129 552 186 q 552 -4 552 73 m 313 -72 q 391 -105 363 -72 q 418 -179 418 -138 q 391 -252 418 -219 q 313 -284 363 -284 q 236 -252 263 -284 q 209 -179 209 -219 q 236 -105 209 -138 q 313 -72 263 -72 "},"−":{"x_min":43.0625,"x_max":644.5,"ha":688,"o":"m 644 559 l 644 394 l 43 394 l 43 559 l 644 559 "},"≠":{"x_min":33.34375,"x_max":647.28125,"ha":682,"o":"m 372 752 l 448 966 l 584 966 l 506 752 l 643 752 q 645 701 644 726 q 647 651 647 676 q 645 600 647 625 q 643 550 644 576 l 431 550 l 380 408 l 643 408 q 645 356 644 381 q 647 306 647 331 q 645 256 647 280 q 643 205 644 231 l 305 205 l 222 -23 l 94 -23 l 176 205 l 38 205 q 34 256 36 231 q 33 306 33 280 q 34 356 33 331 q 38 408 36 381 l 248 408 l 298 550 l 38 550 q 34 600 36 576 q 33 651 33 625 q 34 701 33 676 q 38 752 36 726 l 372 752 "},"¥":{"x_min":20.828125,"x_max":793.125,"ha":815,"o":"m 747 625 l 747 475 l 68 475 l 68 625 l 212 625 l 20 1136 l 251 1136 l 406 641 l 563 1136 l 793 1136 l 600 625 l 747 625 m 747 375 l 747 223 l 522 223 q 522 88 522 140 q 523 0 522 36 l 283 0 q 286 106 286 52 q 288 223 287 161 l 68 223 l 68 375 l 747 375 "},"ǫ":{"x_min":18.0625,"x_max":650.046875,"ha":667,"o":"m 462 -254 q 315 -284 375 -284 q 227 -258 259 -284 q 195 -187 195 -231 q 218 -104 195 -150 q 286 -12 241 -58 q 163 27 213 -4 q 79 112 112 58 q 32 242 47 166 q 18 415 18 318 q 90 734 18 623 q 334 845 163 845 q 577 734 504 845 q 650 415 650 623 q 593 121 650 229 q 406 -8 536 13 q 344 -86 368 -45 q 320 -154 320 -126 q 351 -183 320 -183 q 398 -177 370 -183 q 452 -161 426 -172 l 462 -254 m 334 311 q 384 322 362 311 q 419 351 405 333 q 440 392 433 369 q 447 440 447 415 q 440 488 447 465 q 419 530 433 512 q 384 559 405 548 q 334 570 362 570 q 249 530 277 570 q 220 440 220 490 q 227 392 220 415 q 249 351 234 369 q 284 322 263 333 q 334 311 305 311 "},"Ĥ":{"x_min":36.109375,"x_max":702.828125,"ha":735,"o":"m 702 1136 q 696 970 698 1048 q 693 817 694 893 q 691 664 691 741 q 690 500 690 587 q 691 276 690 397 q 693 0 691 155 l 462 0 q 466 174 465 83 q 469 381 468 265 l 263 381 q 264 206 263 300 q 266 0 265 112 l 36 0 q 38 125 37 61 q 41 262 40 188 q 43 423 43 336 q 43 618 43 511 q 43 781 43 712 q 42 907 43 850 q 41 1017 41 963 q 41 1136 41 1070 l 276 1136 q 268 922 270 1020 q 263 725 265 825 l 469 725 q 469 841 469 788 q 468 941 469 893 q 468 1035 468 988 q 468 1136 468 1082 l 702 1136 m 368 1451 l 605 1294 l 563 1200 l 368 1294 l 172 1200 l 130 1294 l 368 1451 "},"U":{"x_min":27.78125,"x_max":800.0625,"ha":829,"o":"m 786 1137 q 794 786 788 934 q 800 534 800 638 q 795 399 800 466 q 777 270 791 331 q 738 157 763 209 q 670 66 712 105 q 565 6 627 27 q 416 -15 502 -15 q 264 7 327 -15 q 158 69 201 30 q 89 161 115 108 q 50 276 63 215 q 31 402 36 337 q 27 533 27 468 q 29 643 27 584 q 33 773 30 701 q 39 934 36 845 q 47 1136 43 1023 l 291 1136 q 284 924 287 1011 q 279 779 281 837 q 277 686 277 720 q 275 634 276 652 q 275 609 275 616 q 275 597 275 601 q 305 394 275 462 q 415 326 336 326 q 524 400 495 326 q 552 623 552 473 q 552 639 552 630 q 552 668 552 648 q 550 720 551 687 q 547 807 550 752 q 543 942 545 862 q 536 1136 540 1022 l 786 1137 "},"Ñ":{"x_min":37.5,"x_max":790.34375,"ha":829,"o":"m 591 1136 l 790 1136 q 786 568 786 852 q 790 0 786 283 l 522 0 l 227 679 l 227 0 l 37 0 q 41 284 40 143 q 43 568 43 425 q 41 852 43 711 q 37 1136 40 993 l 318 1136 l 591 458 l 591 1136 m 163 1373 q 231 1403 200 1394 q 291 1412 262 1412 q 363 1400 330 1412 q 426 1373 395 1387 q 486 1345 456 1358 q 550 1333 516 1333 q 614 1348 579 1333 q 690 1398 650 1362 l 690 1248 q 614 1206 650 1218 q 548 1194 579 1194 q 479 1207 511 1194 q 416 1234 447 1219 q 354 1262 384 1250 q 290 1275 323 1275 q 230 1263 261 1275 q 163 1220 200 1251 l 163 1373 "},"F":{"x_min":38.890625,"x_max":548.65625,"ha":561,"o":"m 38 0 q 40 75 40 22 q 41 202 41 129 q 41 362 41 275 q 41 541 41 450 q 41 724 41 633 q 41 894 41 815 q 40 1036 41 973 q 38 1134 40 1098 q 158 1135 93 1134 q 291 1136 223 1136 q 425 1138 359 1137 q 547 1141 490 1140 q 548 1101 548 1120 q 548 1062 548 1082 q 547 979 548 1022 q 543 893 545 936 l 263 893 l 263 684 l 495 684 l 495 448 l 263 448 q 264 311 263 379 q 265 183 265 243 q 268 75 266 123 q 270 0 269 27 l 38 0 "},"ĵ":{"x_min":-80.5625,"x_max":340.3125,"ha":261,"o":"m 130 1175 l 340 1018 l 298 923 l 130 1018 l -37 923 l -79 1018 l 130 1175 m 225 -4 q 222 -99 225 -56 q 206 -175 219 -141 q 48 -266 172 -266 q 20 -265 37 -266 q -13 -263 4 -265 q -46 -260 -30 -262 q -72 -255 -62 -258 q -79 -215 -77 -236 q -80 -177 -80 -194 q -77 -119 -80 -148 q -69 -68 -75 -90 q -45 -72 -61 -70 q -19 -73 -29 -73 q 25 -54 15 -73 q 36 20 36 -36 l 36 808 l 225 808 l 225 -4 "},"ā":{"x_min":13.890625,"x_max":713.953125,"ha":746,"o":"m 707 0 l 516 0 l 516 68 q 411 6 466 27 q 302 -15 355 -15 q 187 15 240 -15 q 96 100 134 45 q 36 231 58 155 q 13 398 13 308 q 37 575 13 493 q 102 717 61 657 q 199 811 143 777 q 320 845 255 845 q 429 821 377 845 q 516 761 480 797 l 516 830 l 713 830 l 707 0 m 279 501 q 310 409 279 444 q 390 375 341 375 q 479 412 443 375 q 516 508 516 450 q 507 558 516 534 q 481 599 498 581 q 443 626 465 616 q 395 636 420 636 q 312 598 345 636 q 279 501 279 561 m 651 1105 l 651 975 l 193 975 l 193 1105 l 651 1105 "},"Ĩ":{"x_min":-4.171875,"x_max":522.265625,"ha":493,"o":"m 137 393 l 137 618 q 136 769 137 707 q 136 884 136 832 l 33 884 q 30 947 31 916 q 29 1009 29 977 q 30 1073 29 1041 q 33 1136 31 1105 l 461 1136 q 462 1073 462 1104 q 462 1009 462 1041 q 462 947 462 977 q 461 884 462 916 l 359 884 q 356 701 356 791 q 355 500 355 611 l 355 393 l 461 393 q 462 294 462 343 q 462 195 462 245 q 462 97 462 147 q 461 0 462 48 l 33 0 q 30 97 31 48 q 29 195 29 147 q 30 294 29 245 q 33 393 31 343 l 137 393 m -4 1373 q 63 1403 31 1394 q 123 1412 94 1412 q 195 1400 162 1412 q 258 1373 227 1387 q 318 1345 288 1358 q 381 1333 348 1333 q 446 1348 411 1333 q 522 1398 481 1362 l 522 1248 q 446 1206 481 1218 q 380 1194 411 1194 q 311 1207 343 1194 q 247 1234 279 1219 q 186 1262 216 1250 q 122 1275 155 1275 q 62 1263 93 1275 q -4 1220 31 1251 l -4 1373 "},"ă":{"x_min":13.890625,"x_max":713.953125,"ha":746,"o":"m 707 0 l 516 0 l 516 68 q 411 6 466 27 q 302 -15 355 -15 q 187 15 240 -15 q 96 100 134 45 q 36 231 58 155 q 13 398 13 308 q 37 575 13 493 q 102 717 61 657 q 199 811 143 777 q 320 845 255 845 q 429 821 377 845 q 516 761 480 797 l 516 830 l 713 830 l 707 0 m 279 501 q 310 409 279 444 q 390 375 341 375 q 479 412 443 375 q 516 508 516 450 q 507 558 516 534 q 481 599 498 581 q 443 626 465 616 q 395 636 420 636 q 312 598 345 636 q 279 501 279 561 m 613 1134 q 596 1048 613 1086 q 551 986 579 1011 q 486 947 523 961 q 411 934 450 934 q 334 947 370 934 q 270 986 298 961 q 225 1048 243 1011 q 208 1134 208 1086 l 304 1134 q 336 1050 306 1082 q 411 1018 366 1018 q 485 1050 455 1018 q 518 1134 515 1082 l 613 1134 "},"*":{"x_min":22.21875,"x_max":602.828125,"ha":625,"o":"m 251 975 l 233 1168 l 387 1168 l 369 970 l 544 1062 l 602 916 l 412 859 l 555 707 l 433 611 l 312 795 l 195 611 l 70 707 l 215 858 l 22 916 l 81 1062 l 251 975 "},"†":{"x_min":22.21875,"x_max":616.71875,"ha":639,"o":"m 405 1136 l 381 808 l 616 830 l 616 647 l 383 668 l 405 415 l 377 -112 l 261 -112 l 233 415 l 254 668 l 22 647 l 22 830 l 255 808 l 233 1136 l 405 1136 "},"∕":{"x_min":-20.828125,"x_max":534.765625,"ha":515,"o":"m 534 1134 q 430 845 486 998 q 319 535 375 691 q 209 227 263 379 q 108 -58 155 75 l -20 -5 q 41 165 6 69 q 114 369 76 262 q 192 588 152 476 q 268 809 231 701 q 338 1013 305 916 q 395 1187 370 1111 l 534 1134 "},"°":{"x_min":11.109375,"x_max":459.765625,"ha":472,"o":"m 236 820 q 327 856 295 820 q 359 947 359 891 q 327 1034 359 997 q 236 1072 295 1072 q 144 1034 177 1072 q 111 945 111 997 q 144 856 111 891 q 236 820 177 820 m 236 716 q 144 735 186 716 q 72 785 102 754 q 27 858 43 816 q 11 947 11 900 q 26 1035 11 994 q 70 1105 41 1076 q 141 1151 100 1134 q 234 1168 183 1168 q 331 1151 290 1168 q 402 1105 373 1134 q 445 1036 430 1076 q 459 948 459 995 q 445 859 459 901 q 403 785 431 816 q 333 735 375 754 q 236 716 291 716 "},"å":{"x_min":13.890625,"x_max":713.953125,"ha":746,"o":"m 707 0 l 516 0 l 516 68 q 411 6 466 27 q 302 -15 355 -15 q 187 15 240 -15 q 96 100 134 45 q 36 231 58 155 q 13 398 13 308 q 37 575 13 493 q 102 717 61 657 q 199 811 143 777 q 320 845 255 845 q 429 821 377 845 q 516 761 480 797 l 516 830 l 713 830 l 707 0 m 279 501 q 310 409 279 444 q 390 375 341 375 q 479 412 443 375 q 516 508 516 450 q 507 558 516 534 q 481 599 498 581 q 443 626 465 616 q 395 636 420 636 q 312 598 345 636 q 279 501 279 561 m 411 969 q 461 988 443 969 q 480 1040 480 1008 q 461 1091 480 1072 q 411 1109 443 1109 q 359 1091 379 1109 q 338 1040 338 1072 q 359 988 338 1008 q 411 969 379 969 m 411 902 q 304 943 340 902 q 268 1040 268 984 q 304 1134 268 1095 q 411 1173 340 1173 q 516 1134 481 1173 q 551 1040 551 1095 q 516 943 551 984 q 411 902 481 902 "},"0":{"x_min":29.171875,"x_max":775.0625,"ha":804,"o":"m 408 1152 q 568 1113 500 1152 q 683 1000 637 1075 q 752 818 729 926 q 775 573 775 711 q 679 136 775 288 q 398 -15 584 -15 q 236 23 305 -15 q 120 136 166 62 q 52 317 75 211 q 29 559 29 423 q 127 1002 29 851 q 408 1152 226 1152 m 402 343 q 466 364 438 343 q 511 424 493 386 q 539 513 530 462 q 548 622 548 563 q 539 727 548 679 q 512 812 530 776 q 467 869 494 848 q 405 890 440 890 q 341 869 369 890 q 294 812 313 848 q 265 726 275 776 q 255 618 255 676 q 265 511 255 561 q 293 423 275 461 q 339 364 312 386 q 402 343 366 343 "},"ō":{"x_min":16.671875,"x_max":648.65625,"ha":665,"o":"m 333 845 q 575 734 502 845 q 648 415 648 623 q 575 95 648 205 q 333 -15 502 -15 q 89 95 162 -15 q 16 415 16 205 q 89 734 16 623 q 333 845 162 845 m 333 311 q 382 322 361 311 q 418 351 404 333 q 438 392 431 369 q 445 440 445 415 q 438 488 445 465 q 418 530 431 512 q 382 559 404 548 q 333 570 361 570 q 247 530 276 570 q 219 440 219 490 q 226 392 219 415 q 247 351 233 369 q 283 322 262 333 q 333 311 304 311 m 573 1105 l 573 975 l 115 975 l 115 1105 l 573 1105 "},"”":{"x_min":15.28125,"x_max":623.65625,"ha":635,"o":"m 16 997 q 15 1016 15 1008 q 15 1036 15 1025 q 50 1129 15 1093 q 144 1166 84 1166 q 250 1119 212 1166 q 287 995 287 1072 q 273 905 287 950 q 234 822 259 861 q 170 751 208 783 q 87 700 133 719 l 29 751 q 89 816 68 779 q 111 888 111 852 q 86 956 111 926 q 16 997 62 986 m 352 997 q 351 1016 351 1008 q 351 1036 351 1025 q 386 1129 351 1093 q 480 1166 420 1166 q 586 1119 548 1166 q 623 995 623 1072 q 609 905 623 950 q 570 822 595 861 q 506 751 544 783 q 423 700 469 719 l 365 751 q 425 816 404 779 q 447 888 447 852 q 422 956 447 926 q 352 997 398 986 "},"ŵ":{"x_min":0,"x_max":969.515625,"ha":968,"o":"m 969 830 l 811 0 l 554 0 l 484 419 l 416 0 l 161 0 l 0 830 l 208 830 l 265 388 q 275 345 269 359 q 295 330 281 330 q 312 344 306 330 q 322 388 318 358 l 390 830 l 579 830 l 651 388 q 661 345 655 359 q 680 330 668 330 q 707 388 701 330 l 761 830 l 969 830 m 484 1175 l 722 1018 l 680 923 l 484 1018 l 288 923 l 247 1018 l 484 1175 "},"Ķ":{"x_min":36.109375,"x_max":805.625,"ha":774,"o":"m 290 1136 q 284 988 286 1052 q 280 866 281 925 q 278 746 279 808 q 277 605 277 684 l 283 605 l 530 1137 l 788 1137 l 516 583 l 805 0 l 545 0 l 283 550 l 277 550 q 277 433 277 498 q 278 296 277 368 q 279 149 279 225 q 280 0 280 73 l 36 0 q 38 127 37 61 q 41 270 40 193 q 43 436 43 347 q 43 634 43 526 q 43 795 43 729 q 42 915 43 861 q 41 1020 41 969 q 41 1136 41 1070 l 290 1136 m 480 -76 l 397 -284 l 263 -284 l 297 -76 l 480 -76 "},"ö":{"x_min":16.671875,"x_max":648.65625,"ha":665,"o":"m 333 845 q 575 734 502 845 q 648 415 648 623 q 575 95 648 205 q 333 -15 502 -15 q 89 95 162 -15 q 16 415 16 205 q 89 734 16 623 q 333 845 162 845 m 333 311 q 382 322 361 311 q 418 351 404 333 q 438 392 431 369 q 445 440 445 415 q 438 488 445 465 q 418 530 431 512 q 382 559 404 548 q 333 570 361 570 q 247 530 276 570 q 219 440 219 490 q 226 392 219 415 q 247 351 233 369 q 283 322 262 333 q 333 311 304 311 m 102 1027 q 135 1105 102 1082 q 205 1129 168 1129 q 275 1100 250 1129 q 301 1027 301 1070 q 274 954 301 983 q 206 926 247 926 q 172 932 190 926 q 138 949 154 937 q 112 980 122 961 q 102 1027 102 1000 m 365 1029 q 374 1074 365 1055 q 397 1105 383 1093 q 430 1123 412 1118 q 466 1129 448 1129 q 537 1100 511 1129 q 563 1027 563 1070 q 536 954 563 983 q 469 926 509 926 q 434 932 452 926 q 400 949 416 937 q 375 980 384 961 q 365 1029 365 1000 "},"ǽ":{"x_min":5.5625,"x_max":1062.578125,"ha":1078,"o":"m 504 94 q 393 14 462 44 q 247 -15 325 -15 q 68 52 131 -15 q 5 244 5 119 q 25 356 5 309 q 88 436 44 404 q 204 489 133 469 q 379 520 276 509 q 349 602 379 579 q 275 626 319 626 q 183 611 233 626 q 86 573 133 595 l 26 780 q 83 807 51 794 q 151 827 115 819 q 224 841 187 836 q 295 845 261 845 q 440 814 384 845 q 526 729 495 783 l 531 729 q 616 813 555 780 q 761 845 677 845 q 887 820 832 845 q 982 747 943 794 q 1041 634 1020 701 q 1062 483 1062 566 q 1062 456 1062 466 q 1061 437 1062 447 l 672 437 q 734 337 690 372 q 844 302 779 302 q 936 314 883 302 q 1032 344 988 326 q 1035 268 1034 311 q 1036 180 1036 225 q 1032 37 1036 95 q 797 -15 923 -15 q 631 13 705 -15 q 509 94 558 41 l 504 94 m 751 695 q 691 666 715 695 q 661 586 668 637 l 843 586 q 812 665 837 634 q 751 695 787 695 m 379 401 q 272 377 312 401 q 233 308 233 352 q 252 256 233 276 q 298 236 270 236 q 345 247 319 236 q 391 279 372 259 l 379 401 m 541 1168 l 744 1168 l 566 902 l 440 902 l 541 1168 "},"Ļ":{"x_min":36.109375,"x_max":490.3125,"ha":508,"o":"m 277 1136 q 271 822 273 945 q 268 614 269 698 q 266 473 266 530 q 266 358 266 416 l 484 366 q 488 276 487 320 q 490 187 490 231 q 488 95 490 141 q 484 0 487 48 l 36 0 q 42 398 40 194 q 44 797 44 602 q 44 972 44 887 q 43 1136 44 1057 l 277 1136 m 358 -76 l 275 -284 l 141 -284 l 175 -76 l 358 -76 "},"Õ":{"x_min":18.0625,"x_max":826.453125,"ha":845,"o":"m 422 1152 q 727 1005 629 1152 q 826 577 826 858 q 729 138 826 293 q 422 -15 633 -15 q 241 24 318 -15 q 115 139 165 63 q 41 325 65 215 q 18 577 18 436 q 116 1007 18 862 q 422 1152 215 1152 m 422 343 q 500 363 466 343 q 556 418 534 383 q 590 503 579 454 q 601 612 601 552 q 590 722 601 672 q 556 811 579 773 q 500 869 534 848 q 422 890 466 890 q 345 868 377 890 q 289 809 312 847 q 255 721 266 772 q 244 612 244 670 q 255 503 244 552 q 289 418 266 454 q 345 363 312 383 q 422 343 377 343 m 169 1373 q 236 1403 205 1394 q 297 1412 268 1412 q 368 1400 336 1412 q 431 1373 401 1387 q 492 1345 462 1358 q 555 1333 522 1333 q 620 1348 584 1333 q 695 1398 655 1362 l 695 1248 q 620 1206 655 1218 q 554 1194 584 1194 q 484 1207 516 1194 q 421 1234 452 1219 q 359 1262 390 1250 q 295 1275 329 1275 q 236 1263 266 1275 q 169 1220 205 1251 l 169 1373 "},"ć":{"x_min":13.890625,"x_max":568.09375,"ha":597,"o":"m 418 845 q 566 822 500 845 q 567 771 566 798 q 568 716 568 744 q 567 658 568 687 q 566 604 566 629 q 454 643 520 643 q 384 629 412 643 q 339 595 356 616 q 315 550 322 575 q 308 504 308 526 q 319 446 308 473 q 350 398 330 419 q 395 366 369 377 q 450 354 420 354 q 508 365 477 354 q 566 395 538 376 q 567 300 566 350 q 568 201 568 251 q 567 102 568 152 q 566 1 566 51 q 412 -15 488 -15 q 244 14 318 -15 q 119 100 170 44 q 40 235 68 155 q 13 413 13 315 q 38 586 13 506 q 114 723 63 666 q 240 813 165 780 q 418 845 316 845 m 363 1168 l 566 1168 l 388 902 l 262 902 l 363 1168 "},"þ":{"x_min":33.34375,"x_max":733.390625,"ha":747,"o":"m 40 1168 l 230 1168 l 230 761 q 335 822 280 800 q 444 845 390 845 q 559 814 506 845 q 650 727 612 783 q 711 595 688 672 q 733 427 733 519 q 709 252 733 333 q 644 111 686 170 q 546 18 602 51 q 425 -15 490 -15 q 318 8 369 -15 q 230 68 268 31 l 230 -251 l 33 -251 l 40 1168 m 230 501 q 261 409 230 444 q 341 375 293 375 q 431 412 394 375 q 468 508 468 450 q 459 558 468 534 q 433 599 450 581 q 395 626 416 616 q 348 636 373 636 q 263 598 297 636 q 230 501 230 561 "},"]":{"x_min":11.109375,"x_max":340.3125,"ha":390,"o":"m 172 38 q 174 288 173 154 q 175 541 175 422 q 175 667 175 601 q 174 800 175 733 q 172 934 173 868 q 172 1059 172 1000 l 11 1059 l 11 1198 l 340 1198 q 338 1030 338 1111 q 336 870 337 950 q 336 709 336 790 q 336 541 336 629 q 336 375 336 454 q 336 220 336 297 q 338 65 337 143 q 340 -100 338 -12 l 11 -100 l 11 38 l 172 38 "},"ẁ":{"x_min":0,"x_max":969.515625,"ha":968,"o":"m 969 830 l 811 0 l 554 0 l 484 419 l 416 0 l 161 0 l 0 830 l 208 830 l 265 388 q 275 345 269 359 q 295 330 281 330 q 312 344 306 330 q 322 388 318 358 l 390 830 l 579 830 l 651 388 q 661 345 655 359 q 680 330 668 330 q 707 388 701 330 l 761 830 l 969 830 m 572 902 l 445 902 l 268 1168 l 470 1168 l 572 902 "},"ĭ":{"x_min":-61.109375,"x_max":344.46875,"ha":276,"o":"m 36 808 l 240 808 l 240 0 l 36 0 l 36 808 m 344 1134 q 327 1048 344 1086 q 281 986 309 1011 q 217 947 254 961 q 141 934 180 934 q 65 947 101 934 q 1 986 29 961 q -43 1048 -26 1011 q -61 1134 -61 1086 l 34 1134 q 67 1050 37 1082 q 141 1018 97 1018 q 215 1050 186 1018 q 248 1134 245 1082 l 344 1134 "},"8":{"x_min":25,"x_max":772.28125,"ha":797,"o":"m 401 -15 q 120 75 215 -15 q 25 333 25 166 q 44 463 25 409 q 92 552 63 516 q 154 606 120 587 q 218 633 188 626 q 161 660 188 641 q 113 708 134 679 q 80 777 93 737 q 68 870 68 818 q 95 993 68 940 q 167 1081 122 1045 q 272 1134 212 1116 q 398 1152 331 1152 q 523 1134 463 1152 q 629 1081 583 1116 q 702 993 675 1045 q 730 869 730 940 q 718 780 730 820 q 686 709 707 740 q 637 659 665 679 q 579 633 609 640 q 647 596 613 619 q 709 537 682 573 q 754 450 737 501 q 772 327 772 398 q 677 72 772 161 q 401 -15 583 -15 m 398 529 q 306 493 338 529 q 275 406 275 458 q 306 317 275 354 q 395 280 338 280 q 451 292 427 280 q 491 322 475 304 q 515 363 506 340 q 523 406 523 386 q 516 449 523 427 q 494 488 509 470 q 455 517 479 505 q 398 529 431 529 m 395 922 q 318 888 347 922 q 290 812 290 855 q 318 738 290 768 q 394 708 347 708 q 476 741 447 708 q 505 812 505 775 q 498 848 505 829 q 478 884 491 868 q 444 911 465 901 q 395 922 423 922 "},"R":{"x_min":37.5,"x_max":818.125,"ha":818,"o":"m 37 0 q 43 263 41 131 q 44 512 44 394 q 42 832 44 680 q 37 1136 40 983 q 174 1148 105 1143 q 313 1152 243 1152 q 504 1138 415 1152 q 658 1084 593 1123 q 761 975 723 1044 q 800 795 800 905 q 743 581 800 659 q 591 465 687 504 l 818 0 l 570 0 l 386 423 q 268 419 329 419 q 269 209 268 312 q 277 0 270 106 l 37 0 m 268 630 q 347 626 311 626 q 481 661 441 626 q 520 768 520 697 q 509 837 520 811 q 477 879 497 863 q 429 900 456 894 q 372 905 402 905 q 322 903 350 905 q 268 897 295 901 l 268 630 "},"ť":{"x_min":20.828125,"x_max":577.828125,"ha":421,"o":"m 104 991 l 294 991 l 294 830 l 401 830 l 401 461 l 291 461 l 291 266 q 301 190 291 209 q 345 172 311 172 q 372 173 355 172 q 397 177 388 175 q 400 138 400 168 q 400 77 400 108 q 400 29 400 51 q 398 0 400 8 q 361 -4 381 -2 q 322 -8 341 -6 q 288 -10 304 -9 q 262 -11 272 -11 q 180 8 212 -11 q 130 60 148 27 q 105 134 112 93 q 98 218 98 175 q 99 267 98 234 q 100 336 100 300 q 102 406 101 372 q 104 461 104 440 l 20 461 l 20 830 l 104 830 l 104 991 m 433 1168 l 577 1168 l 518 888 l 408 888 l 433 1168 "},"Ľ":{"x_min":36.109375,"x_max":534.765625,"ha":515,"o":"m 277 1136 q 271 822 273 945 q 268 614 269 698 q 266 473 266 530 q 266 358 266 416 l 484 366 q 488 276 487 320 q 490 187 490 231 q 488 95 490 141 q 484 0 487 48 l 36 0 q 42 398 40 194 q 44 797 44 602 q 44 972 44 887 q 43 1136 44 1057 l 277 1136 m 390 1168 l 534 1168 l 475 888 l 365 888 l 390 1168 "},"Ż":{"x_min":5.5625,"x_max":687.5625,"ha":703,"o":"m 16 0 q 5 129 5 59 q 9 209 5 172 q 20 284 13 247 l 408 887 l 47 887 q 40 938 43 911 q 38 995 38 966 q 41 1070 38 1033 q 50 1136 44 1107 l 669 1136 q 674 1084 672 1111 q 676 1027 676 1058 q 675 974 676 1004 q 669 895 673 944 l 281 295 l 677 295 q 685 225 683 263 q 687 147 687 187 q 685 67 687 105 q 677 0 683 29 l 16 0 m 252 1304 q 290 1395 252 1365 q 375 1425 329 1425 q 459 1392 426 1425 q 491 1308 491 1359 q 454 1218 491 1251 q 369 1186 418 1186 q 326 1193 347 1186 q 288 1216 305 1201 q 262 1252 272 1230 q 252 1304 252 1275 "},"o":{"x_min":16.671875,"x_max":648.65625,"ha":665,"o":"m 333 845 q 575 734 502 845 q 648 415 648 623 q 575 95 648 205 q 333 -15 502 -15 q 89 95 162 -15 q 16 415 16 205 q 89 734 16 623 q 333 845 162 845 m 333 311 q 382 322 361 311 q 418 351 404 333 q 438 392 431 369 q 445 440 445 415 q 438 488 445 465 q 418 530 431 512 q 382 559 404 548 q 333 570 361 570 q 247 530 276 570 q 219 440 219 490 q 226 392 219 415 q 247 351 233 369 q 283 322 262 333 q 333 311 304 311 "},"5":{"x_min":40.28125,"x_max":688.9375,"ha":703,"o":"m 237 870 q 234 820 234 850 q 233 772 233 791 q 237 690 233 729 q 297 701 268 697 q 356 705 327 705 q 490 679 429 705 q 595 606 551 652 q 664 499 640 561 q 688 368 688 437 q 661 227 688 295 q 583 104 634 158 q 457 17 531 50 q 288 -15 383 -15 q 229 -12 263 -15 q 161 0 195 -9 q 95 27 126 9 q 44 72 63 44 q 40 140 41 109 q 40 211 40 170 q 40 280 40 252 q 44 340 41 308 q 125 287 76 306 q 229 268 173 268 q 352 303 306 268 q 398 397 398 338 q 352 487 398 455 q 223 519 305 519 q 122 504 168 519 q 47 462 76 490 q 51 798 51 630 q 50 968 51 880 q 47 1136 50 1055 l 645 1136 q 650 1068 648 1101 q 651 1000 651 1034 q 650 929 651 963 q 645 858 648 894 l 237 870 "},"ħ":{"x_min":-47.21875,"x_max":604.21875,"ha":638,"o":"m 251 1168 l 247 1086 l 419 1086 l 419 930 l 240 930 q 237 840 237 882 q 237 755 237 798 q 318 821 270 797 q 413 845 365 845 q 472 836 444 845 q 525 812 501 827 q 566 775 548 797 q 591 729 583 754 q 600 672 597 709 q 604 593 604 636 l 604 0 l 400 0 l 400 416 q 379 482 400 458 q 326 506 359 506 q 264 484 291 506 q 237 430 237 462 l 237 0 l 33 0 q 35 191 34 91 q 36 405 36 291 q 36 649 36 519 q 36 930 36 779 l -47 930 l -47 1086 l 36 1086 l 36 1168 l 251 1168 "},"õ":{"x_min":16.671875,"x_max":648.65625,"ha":665,"o":"m 333 845 q 575 734 502 845 q 648 415 648 623 q 575 95 648 205 q 333 -15 502 -15 q 89 95 162 -15 q 16 415 16 205 q 89 734 16 623 q 333 845 162 845 m 333 311 q 382 322 361 311 q 418 351 404 333 q 438 392 431 369 q 445 440 445 415 q 438 488 445 465 q 418 530 431 512 q 382 559 404 548 q 333 570 361 570 q 247 530 276 570 q 219 440 219 490 q 226 392 219 415 q 247 351 233 369 q 283 322 262 333 q 333 311 304 311 m 80 1097 q 147 1127 116 1118 q 208 1136 179 1136 q 279 1123 247 1136 q 343 1096 312 1111 q 403 1069 373 1082 q 466 1057 433 1057 q 531 1071 495 1057 q 607 1122 566 1086 l 607 972 q 531 929 566 941 q 465 918 495 918 q 395 930 427 918 q 332 958 363 943 q 270 986 301 973 q 206 998 240 998 q 147 986 177 998 q 80 944 116 975 l 80 1097 "},",":{"x_min":-23.609375,"x_max":300.03125,"ha":318,"o":"m 5 155 q 62 247 20 213 q 159 281 104 281 q 261 240 223 281 q 300 133 300 200 q 281 39 300 88 q 229 -59 262 -9 q 152 -156 197 -109 q 55 -243 108 -204 l -23 -165 q 57 -68 30 -116 q 84 25 84 -19 q 5 155 84 95 "},"d":{"x_min":13.890625,"x_max":713.953125,"ha":746,"o":"m 707 0 l 516 0 l 516 68 q 411 6 466 27 q 302 -15 355 -15 q 187 15 240 -15 q 96 100 134 45 q 36 231 58 155 q 13 398 13 308 q 37 575 13 493 q 102 717 61 657 q 199 811 143 777 q 320 845 255 845 q 429 821 377 845 q 516 761 480 797 l 516 1168 l 713 1168 l 707 0 m 279 501 q 310 409 279 444 q 390 375 341 375 q 479 412 443 375 q 516 508 516 450 q 507 558 516 534 q 481 599 498 581 q 443 626 465 616 q 395 636 420 636 q 312 598 345 636 q 279 501 279 561 "},"\"":{"x_min":19.453125,"x_max":463.921875,"ha":483,"o":"m 19 1168 l 211 1168 l 180 751 l 50 751 l 19 1168 m 272 1168 l 463 1168 l 433 751 l 302 751 l 272 1168 "},"˙":{"x_min":27.78125,"x_max":266.6875,"ha":294,"o":"m 27 1027 q 65 1118 27 1088 q 150 1148 104 1148 q 234 1116 201 1148 q 266 1032 266 1083 q 229 942 266 975 q 144 909 193 909 q 101 917 122 909 q 63 939 80 925 q 37 976 47 954 q 27 1027 27 998 "},"ê":{"x_min":12.5,"x_max":708.390625,"ha":725,"o":"m 319 437 q 379 340 337 377 q 494 302 420 302 q 542 306 516 302 q 593 316 568 309 q 640 329 618 322 q 679 344 662 337 q 682 259 682 304 q 683 169 683 213 q 679 37 683 95 q 436 -15 570 -15 q 309 -1 373 -15 q 186 51 245 12 q 99 132 133 86 q 45 228 65 179 q 19 325 26 277 q 12 409 12 372 q 25 525 12 465 q 66 641 38 586 q 137 741 94 695 q 238 813 180 787 q 388 845 309 845 q 538 812 472 845 q 647 720 605 779 q 697 597 687 665 q 708 437 708 529 l 319 437 m 398 695 q 343 671 369 695 q 308 586 316 647 l 490 586 q 457 668 484 641 q 398 695 430 695 m 388 1175 l 626 1018 l 584 923 l 388 1018 l 193 923 l 151 1018 l 388 1175 "},"„":{"x_min":15.28125,"x_max":623.65625,"ha":643,"o":"m 16 80 q 15 100 15 91 q 15 119 15 108 q 50 213 15 176 q 144 250 84 250 q 250 202 212 250 q 287 79 287 155 q 273 -11 287 33 q 234 -94 259 -55 q 170 -165 208 -133 q 87 -216 133 -197 l 29 -165 q 89 -100 68 -137 q 111 -27 111 -63 q 86 39 111 9 q 16 80 62 69 m 352 80 q 351 100 351 91 q 351 119 351 108 q 386 213 351 176 q 480 250 420 250 q 586 202 548 250 q 623 79 623 155 q 609 -11 623 33 q 570 -94 595 -55 q 506 -165 544 -133 q 423 -216 469 -197 l 365 -165 q 425 -100 404 -137 q 447 -27 447 -63 q 422 39 447 9 q 352 80 398 69 "},"ľ":{"x_min":30.5625,"x_max":462.53125,"ha":275,"o":"m 251 1168 q 240 776 244 975 q 237 354 237 577 q 237 202 237 259 q 237 107 237 144 q 238 47 237 70 q 238 0 238 25 l 30 0 q 36 286 34 122 q 37 666 37 450 q 37 827 37 761 q 36 947 37 893 q 36 1052 36 1001 q 36 1168 36 1102 l 251 1168 m 318 1168 l 462 1168 l 402 888 l 293 888 l 318 1168 "},"Â":{"x_min":-5.5625,"x_max":747.28125,"ha":742,"o":"m -5 0 l 200 1136 l 543 1136 l 747 0 l 512 0 l 477 227 l 263 227 l 230 0 l -5 0 m 301 476 l 440 476 l 370 934 l 301 476 m 370 1451 l 608 1294 l 566 1200 l 370 1294 l 175 1200 l 133 1294 l 370 1451 "},"Į":{"x_min":29.171875,"x_max":462.53125,"ha":493,"o":"m 376 -254 q 229 -284 288 -284 q 141 -258 173 -284 q 109 -187 109 -231 q 136 -97 109 -147 q 212 0 163 -48 l 33 0 q 30 97 31 48 q 29 195 29 147 q 30 294 29 245 q 33 393 31 343 l 137 393 l 137 618 q 136 769 137 707 q 136 884 136 832 l 33 884 q 30 947 31 916 q 29 1009 29 977 q 30 1073 29 1041 q 33 1136 31 1105 l 461 1136 q 462 1073 462 1104 q 462 1009 462 1041 q 462 947 462 977 q 461 884 462 916 l 359 884 q 356 701 356 791 q 355 500 355 611 l 355 393 l 461 393 q 462 294 462 343 q 462 195 462 245 q 462 97 462 147 q 461 0 462 48 l 330 0 q 261 -82 288 -38 q 234 -154 234 -126 q 265 -183 234 -183 q 312 -177 284 -183 q 366 -161 340 -172 l 376 -254 "},"ė":{"x_min":12.5,"x_max":708.390625,"ha":725,"o":"m 319 437 q 379 340 337 377 q 494 302 420 302 q 542 306 516 302 q 593 316 568 309 q 640 329 618 322 q 679 344 662 337 q 682 259 682 304 q 683 169 683 213 q 679 37 683 95 q 436 -15 570 -15 q 309 -1 373 -15 q 186 51 245 12 q 99 132 133 86 q 45 228 65 179 q 19 325 26 277 q 12 409 12 372 q 25 525 12 465 q 66 641 38 586 q 137 741 94 695 q 238 813 180 787 q 388 845 309 845 q 538 812 472 845 q 647 720 605 779 q 697 597 687 665 q 708 437 708 529 l 319 437 m 398 695 q 343 671 369 695 q 308 586 316 647 l 490 586 q 457 668 484 641 q 398 695 430 695 m 269 1027 q 307 1118 269 1088 q 391 1148 345 1148 q 475 1116 443 1148 q 508 1032 508 1083 q 471 942 508 975 q 386 909 434 909 q 343 917 363 909 q 305 939 322 925 q 279 976 288 954 q 269 1027 269 998 "},"Ţ":{"x_min":15.28125,"x_max":566.71875,"ha":582,"o":"m 566 879 l 406 879 q 402 628 404 755 q 401 354 401 501 q 401 202 401 259 q 401 107 401 144 q 402 47 401 70 q 402 0 402 25 l 169 0 q 172 127 170 61 q 174 270 173 193 q 175 436 175 347 q 176 634 176 526 q 176 772 176 713 q 175 879 176 830 l 15 879 l 15 1136 l 566 1136 l 566 879 m 387 -75 l 304 -284 l 170 -284 l 204 -76 l 387 -75 "},"₄":{"x_min":15.28125,"x_max":437.53125,"ha":465,"o":"m 387 682 l 387 322 l 437 322 l 437 137 l 387 137 l 387 0 l 233 0 l 233 137 l 15 137 l 15 322 l 187 682 l 387 682 m 127 322 l 233 322 l 233 555 l 127 322 "},"Í":{"x_min":29.171875,"x_max":465.3125,"ha":493,"o":"m 137 393 l 137 618 q 136 769 137 707 q 136 884 136 832 l 33 884 q 30 947 31 916 q 29 1009 29 977 q 30 1073 29 1041 q 33 1136 31 1105 l 461 1136 q 462 1073 462 1104 q 462 1009 462 1041 q 462 947 462 977 q 461 884 462 916 l 359 884 q 356 701 356 791 q 355 500 355 611 l 355 393 l 461 393 q 462 294 462 343 q 462 195 462 245 q 462 97 462 147 q 461 0 462 48 l 33 0 q 30 97 31 48 q 29 195 29 147 q 30 294 29 245 q 33 393 31 343 l 137 393 m 262 1444 l 465 1444 l 287 1179 l 161 1179 l 262 1444 "},"´":{"x_min":27.78125,"x_max":331.96875,"ha":371,"o":"m 129 1168 l 331 1168 l 154 902 l 27 902 l 129 1168 "},"Ú":{"x_min":27.78125,"x_max":800.0625,"ha":829,"o":"m 786 1137 q 794 786 788 934 q 800 534 800 638 q 795 399 800 466 q 777 270 791 331 q 738 157 763 209 q 670 66 712 105 q 565 6 627 27 q 416 -15 502 -15 q 264 7 327 -15 q 158 69 201 30 q 89 161 115 108 q 50 276 63 215 q 31 402 36 337 q 27 533 27 468 q 29 643 27 584 q 33 773 30 701 q 39 934 36 845 q 47 1136 43 1023 l 291 1136 q 284 924 287 1011 q 279 779 281 837 q 277 686 277 720 q 275 634 276 652 q 275 609 275 616 q 275 597 275 601 q 305 394 275 462 q 415 326 336 326 q 524 400 495 326 q 552 623 552 473 q 552 639 552 630 q 552 668 552 648 q 550 720 551 687 q 547 807 550 752 q 543 942 545 862 q 536 1136 540 1022 l 786 1137 m 429 1444 l 632 1444 l 454 1179 l 327 1179 l 429 1444 "},"Ŷ":{"x_min":-12.5,"x_max":759.78125,"ha":746,"o":"m 530 1136 l 759 1136 l 488 416 l 488 354 q 488 202 488 259 q 488 107 488 144 q 489 47 488 70 q 490 0 490 25 l 250 0 q 254 188 252 90 q 256 416 255 287 l -12 1136 l 218 1136 l 373 662 l 530 1136 m 372 1451 l 609 1294 l 568 1200 l 372 1294 l 176 1200 l 134 1294 l 372 1451 "},"ŝ":{"x_min":13.890625,"x_max":525.046875,"ha":532,"o":"m 113 779 q 215 831 161 816 q 325 845 269 845 q 404 838 365 845 q 480 820 444 832 q 484 682 483 736 q 484 600 484 629 q 483 541 484 558 q 480 508 481 523 q 466 511 477 508 q 440 516 455 513 q 407 521 425 519 q 373 523 390 523 q 331 517 348 523 q 313 493 313 511 q 325 464 313 477 q 352 438 336 451 q 386 413 368 425 q 422 391 405 401 q 492 324 459 366 q 525 212 525 281 q 497 108 525 151 q 429 37 470 65 q 335 -2 387 9 q 233 -15 283 -15 q 188 -13 213 -15 q 138 -8 163 -12 q 87 2 112 -4 q 41 18 62 8 q 31 68 34 41 q 29 122 29 95 q 29 152 29 134 q 31 189 30 170 q 36 226 33 208 q 41 256 38 244 q 77 242 56 250 q 119 227 97 234 q 163 215 141 220 q 204 211 184 211 q 247 222 231 211 q 262 252 262 233 q 252 282 262 269 q 229 307 243 295 q 198 328 215 319 q 168 344 181 337 q 113 375 141 358 q 63 416 86 391 q 27 475 41 440 q 13 559 13 509 q 36 676 13 618 q 113 779 59 734 m 287 1175 l 525 1018 l 483 923 l 287 1018 l 91 923 l 50 1018 l 287 1175 "},"Ý":{"x_min":-12.5,"x_max":759.78125,"ha":746,"o":"m 530 1136 l 759 1136 l 488 416 l 488 354 q 488 202 488 259 q 488 107 488 144 q 489 47 488 70 q 490 0 490 25 l 250 0 q 254 188 252 90 q 256 416 255 287 l -12 1136 l 218 1136 l 373 662 l 530 1136 m 386 1444 l 588 1444 l 411 1179 l 284 1179 l 386 1444 "},"Ĉ":{"x_min":13.890625,"x_max":741.71875,"ha":717,"o":"m 537 1152 q 624 1146 587 1152 q 693 1129 661 1140 q 693 1079 693 1105 q 694 1022 694 1052 q 693 957 694 991 q 693 894 693 923 q 566 927 640 927 q 450 902 497 927 q 375 836 404 876 q 335 747 347 795 q 323 657 323 700 q 341 547 323 598 q 392 457 359 495 q 468 397 425 419 q 563 375 512 375 q 624 381 587 375 q 693 408 661 388 q 693 306 693 359 q 694 204 694 254 q 693 101 694 151 q 693 1 693 51 q 534 -15 615 -15 q 316 25 412 -15 q 152 140 219 65 q 49 324 84 216 q 13 565 13 431 q 47 800 13 693 q 146 986 80 908 q 310 1109 212 1065 q 537 1152 408 1152 m 504 1451 l 741 1294 l 700 1200 l 504 1294 l 308 1200 l 266 1294 l 504 1451 "},"₁":{"x_min":33.34375,"x_max":338.921875,"ha":364,"o":"m 265 693 q 261 588 262 638 q 259 480 261 537 q 258 356 258 423 q 258 205 258 290 l 333 205 q 337 154 336 180 q 338 102 338 129 q 337 53 338 79 q 333 0 336 27 l 38 0 q 36 45 37 23 q 36 91 36 68 q 36 147 36 119 q 38 205 36 176 l 108 205 q 107 356 108 277 q 106 502 106 436 l 37 491 q 34 527 34 509 q 33 563 33 545 q 34 615 33 583 q 37 665 34 647 l 265 693 "},"ą":{"x_min":13.890625,"x_max":752.84375,"ha":746,"o":"m 752 -254 q 605 -284 665 -284 q 518 -258 550 -284 q 486 -187 486 -231 q 513 -97 486 -147 q 588 0 540 -48 l 516 0 l 516 68 q 411 6 466 27 q 302 -15 355 -15 q 187 15 240 -15 q 96 100 134 45 q 36 231 58 155 q 13 398 13 308 q 37 575 13 493 q 102 717 61 657 q 199 811 143 777 q 320 845 255 845 q 429 821 377 845 q 516 761 480 797 l 516 830 l 713 830 l 713 0 q 674 -40 693 -19 q 641 -81 655 -61 q 619 -121 627 -102 q 611 -154 611 -140 q 641 -183 611 -183 q 688 -177 661 -183 q 743 -161 716 -172 l 752 -254 m 279 501 q 310 409 279 444 q 390 375 341 375 q 479 412 443 375 q 516 508 516 450 q 507 558 516 534 q 481 599 498 581 q 443 626 465 616 q 395 636 420 636 q 312 598 345 636 q 279 501 279 561 "},"Ö":{"x_min":18.0625,"x_max":826.453125,"ha":845,"o":"m 422 1152 q 727 1005 629 1152 q 826 577 826 858 q 729 138 826 293 q 422 -15 633 -15 q 241 24 318 -15 q 115 139 165 63 q 41 325 65 215 q 18 577 18 436 q 116 1007 18 862 q 422 1152 215 1152 m 422 343 q 500 363 466 343 q 556 418 534 383 q 590 503 579 454 q 601 612 601 552 q 590 722 601 672 q 556 811 579 773 q 500 869 534 848 q 422 890 466 890 q 345 868 377 890 q 289 809 312 847 q 255 721 266 772 q 244 612 244 670 q 255 503 244 552 q 289 418 266 454 q 345 363 312 383 q 422 343 377 343 m 191 1304 q 224 1382 191 1358 q 294 1405 256 1405 q 364 1376 338 1405 q 390 1304 390 1347 q 363 1231 390 1259 q 295 1202 336 1202 q 261 1208 279 1202 q 227 1225 243 1213 q 201 1257 211 1237 q 191 1304 191 1276 m 454 1305 q 463 1350 454 1332 q 486 1382 472 1369 q 519 1400 501 1394 q 555 1405 537 1405 q 626 1376 600 1405 q 652 1304 652 1347 q 625 1231 652 1259 q 558 1202 598 1202 q 523 1208 541 1202 q 489 1225 505 1213 q 463 1257 473 1237 q 454 1305 454 1276 "},"z":{"x_min":12.5,"x_max":590.328125,"ha":611,"o":"m 23 0 q 14 61 16 27 q 12 129 12 94 q 15 209 12 172 q 26 284 19 247 l 319 551 l 51 551 q 44 614 47 579 q 41 690 41 650 q 44 765 41 729 q 51 830 47 801 l 576 830 q 581 779 579 805 q 583 720 583 752 q 581 668 583 698 q 576 590 580 637 l 243 295 l 580 295 q 587 225 584 263 q 590 147 590 187 q 587 67 590 105 q 580 0 584 29 l 23 0 "},"™":{"x_min":51.390625,"x_max":958.40625,"ha":1007,"o":"m 837 952 l 730 594 l 648 594 l 547 943 l 547 561 l 427 561 q 429 702 429 633 q 430 841 430 772 q 429 1005 430 925 q 427 1168 429 1086 l 595 1168 l 691 813 l 802 1168 l 958 1168 q 957 1036 957 1101 q 957 908 957 972 q 957 734 957 820 q 958 561 957 648 l 825 561 l 837 952 m 398 1030 l 288 1030 l 288 561 l 158 561 l 158 1030 l 51 1030 l 51 1168 l 398 1168 l 398 1030 "},"Ř":{"x_min":37.5,"x_max":818.125,"ha":818,"o":"m 37 0 q 43 263 41 131 q 44 512 44 394 q 42 832 44 680 q 37 1136 40 983 q 174 1148 105 1143 q 313 1152 243 1152 q 504 1138 415 1152 q 658 1084 593 1123 q 761 975 723 1044 q 800 795 800 905 q 743 581 800 659 q 591 465 687 504 l 818 0 l 570 0 l 386 423 q 268 419 329 419 q 269 209 268 312 q 277 0 270 106 l 37 0 m 268 630 q 347 626 311 626 q 481 661 441 626 q 520 768 520 697 q 509 837 520 811 q 477 879 497 863 q 429 900 456 894 q 372 905 402 905 q 322 903 350 905 q 268 897 295 901 l 268 630 m 151 1357 l 193 1451 l 388 1355 l 584 1451 l 626 1357 l 388 1198 l 151 1357 "},"ǳ":{"x_min":13.890625,"x_max":1352.890625,"ha":1374,"o":"m 707 0 l 516 0 l 516 68 q 411 6 466 27 q 302 -15 355 -15 q 187 15 240 -15 q 96 100 134 45 q 36 231 58 155 q 13 398 13 308 q 37 575 13 493 q 102 717 61 657 q 199 811 143 777 q 320 845 255 845 q 429 821 377 845 q 516 761 480 797 l 516 1168 l 713 1168 l 707 0 m 279 501 q 310 409 279 444 q 390 375 341 375 q 479 412 443 375 q 516 508 516 450 q 507 558 516 534 q 481 599 498 581 q 443 626 465 616 q 395 636 420 636 q 312 598 345 636 q 279 501 279 561 m 786 0 q 777 61 779 27 q 775 129 775 94 q 778 209 775 172 q 788 284 782 247 l 1082 551 l 813 551 q 807 614 809 579 q 804 690 804 650 q 807 765 804 729 q 813 830 809 801 l 1339 830 q 1343 779 1341 805 q 1345 720 1345 752 q 1344 668 1345 698 q 1339 590 1343 637 l 1005 295 l 1343 295 q 1350 225 1347 263 q 1352 147 1352 187 q 1350 67 1352 105 q 1343 0 1347 29 l 786 0 "},"ã":{"x_min":13.890625,"x_max":713.953125,"ha":746,"o":"m 707 0 l 516 0 l 516 68 q 411 6 466 27 q 302 -15 355 -15 q 187 15 240 -15 q 96 100 134 45 q 36 231 58 155 q 13 398 13 308 q 37 575 13 493 q 102 717 61 657 q 199 811 143 777 q 320 845 255 845 q 429 821 377 845 q 516 761 480 797 l 516 830 l 713 830 l 707 0 m 279 501 q 310 409 279 444 q 390 375 341 375 q 479 412 443 375 q 516 508 516 450 q 507 558 516 534 q 481 599 498 581 q 443 626 465 616 q 395 636 420 636 q 312 598 345 636 q 279 501 279 561 m 158 1097 q 225 1127 194 1118 q 286 1136 256 1136 q 357 1123 325 1136 q 420 1096 390 1111 q 481 1069 451 1082 q 544 1057 511 1057 q 609 1071 573 1057 q 684 1122 644 1086 l 684 972 q 609 929 644 941 q 543 918 573 918 q 473 930 505 918 q 410 958 441 943 q 348 986 379 973 q 284 998 318 998 q 225 986 255 998 q 158 944 194 975 l 158 1097 "},"Ň":{"x_min":37.5,"x_max":790.34375,"ha":829,"o":"m 591 1136 l 790 1136 q 786 568 786 852 q 790 0 786 283 l 522 0 l 227 679 l 227 0 l 37 0 q 41 284 40 143 q 43 568 43 425 q 41 852 43 711 q 37 1136 40 993 l 318 1136 l 591 458 l 591 1136 m 179 1357 l 220 1451 l 416 1355 l 612 1451 l 654 1357 l 416 1198 l 179 1357 "},"æ":{"x_min":5.5625,"x_max":1062.578125,"ha":1078,"o":"m 504 94 q 393 14 462 44 q 247 -15 325 -15 q 68 52 131 -15 q 5 244 5 119 q 25 356 5 309 q 88 436 44 404 q 204 489 133 469 q 379 520 276 509 q 349 602 379 579 q 275 626 319 626 q 183 611 233 626 q 86 573 133 595 l 26 780 q 83 807 51 794 q 151 827 115 819 q 224 841 187 836 q 295 845 261 845 q 440 814 384 845 q 526 729 495 783 l 531 729 q 616 813 555 780 q 761 845 677 845 q 887 820 832 845 q 982 747 943 794 q 1041 634 1020 701 q 1062 483 1062 566 q 1062 456 1062 466 q 1061 437 1062 447 l 672 437 q 734 337 690 372 q 844 302 779 302 q 936 314 883 302 q 1032 344 988 326 q 1035 268 1034 311 q 1036 180 1036 225 q 1032 37 1036 95 q 797 -15 923 -15 q 631 13 705 -15 q 509 94 558 41 l 504 94 m 751 695 q 691 666 715 695 q 661 586 668 637 l 843 586 q 812 665 837 634 q 751 695 787 695 m 379 401 q 272 377 312 401 q 233 308 233 352 q 252 256 233 276 q 298 236 270 236 q 345 247 319 236 q 391 279 372 259 l 379 401 "},"ĩ":{"x_min":-45.84375,"x_max":322.25,"ha":276,"o":"m -45 1097 q 1 1127 -20 1118 q 43 1136 23 1136 q 93 1123 69 1136 q 137 1096 116 1111 q 179 1069 158 1082 q 223 1057 200 1057 q 269 1071 244 1057 q 322 1122 294 1086 l 322 972 q 269 929 294 941 q 223 918 244 918 q 174 930 197 918 q 129 958 151 943 q 86 986 108 973 q 43 998 65 998 q 0 986 22 998 q -45 944 -20 975 l -45 1097 m 36 808 l 240 808 l 240 0 l 36 0 l 36 808 "},"É":{"x_min":38.890625,"x_max":552.828125,"ha":576,"o":"m 552 -4 q 450 -2 513 -2 q 313 0 386 -1 q 167 0 240 0 q 38 0 94 0 q 40 77 40 29 q 41 188 41 126 q 41 324 41 251 q 41 475 41 397 q 40 686 41 580 q 40 882 40 791 q 39 1040 40 973 q 38 1134 38 1107 q 158 1134 93 1134 q 291 1135 223 1134 q 425 1137 359 1136 q 547 1140 490 1138 q 547 1109 547 1122 q 548 1072 548 1095 q 547 1032 548 1055 q 546 985 547 1009 q 545 936 545 961 q 543 891 544 912 l 263 891 l 263 730 l 506 730 l 506 523 l 263 523 l 263 368 l 547 368 q 550 302 548 336 q 552 227 551 269 q 552 129 552 186 q 552 -4 552 73 m 325 1444 l 527 1444 l 350 1179 l 223 1179 l 325 1444 "},"ṅ":{"x_min":34.71875,"x_max":602.828125,"ha":635,"o":"m 236 830 l 236 755 q 317 821 269 797 q 415 845 365 845 q 523 812 476 845 q 586 733 570 779 q 597 675 593 712 q 602 593 602 638 l 602 0 l 398 0 l 398 402 q 375 486 398 465 q 322 508 352 508 q 259 482 281 508 q 236 416 236 456 l 236 0 l 34 0 q 35 96 34 45 q 36 197 36 147 q 36 298 36 248 q 36 393 36 348 q 36 472 36 419 q 35 587 36 525 q 34 715 34 650 q 34 830 34 780 l 236 830 m 197 1027 q 235 1118 197 1088 q 319 1148 273 1148 q 403 1116 370 1148 q 436 1032 436 1083 q 399 942 436 975 q 313 909 362 909 q 270 917 291 909 q 233 939 250 925 q 206 976 216 954 q 197 1027 197 998 "},"ŀ":{"x_min":30.5625,"x_max":593.109375,"ha":606,"o":"m 251 1168 q 240 776 244 975 q 237 354 237 577 q 237 202 237 259 q 237 107 237 144 q 238 47 237 70 q 238 0 238 25 l 30 0 q 36 286 34 122 q 37 666 37 450 q 37 827 37 761 q 36 947 37 893 q 36 1052 36 1001 q 36 1168 36 1102 l 251 1168 m 447 630 q 509 616 481 630 q 554 581 536 602 q 583 534 573 559 q 593 484 593 508 q 581 426 593 454 q 549 377 569 398 q 502 344 529 356 q 445 331 475 331 q 380 343 408 331 q 334 375 352 355 q 307 420 316 395 q 298 472 298 445 q 308 528 298 500 q 336 579 318 556 q 383 616 355 602 q 447 630 411 630 "},"~":{"x_min":38.890625,"x_max":650.046875,"ha":689,"o":"m 38 551 q 122 583 80 575 q 205 591 163 591 q 275 583 240 591 q 344 564 309 575 q 413 545 379 554 q 483 537 448 537 q 566 545 525 537 q 650 577 608 554 l 650 402 q 566 370 608 379 q 483 362 525 362 q 413 370 448 362 q 344 389 379 379 q 275 408 309 400 q 205 416 240 416 q 122 408 163 416 q 38 376 80 400 l 38 551 "},"Ċ":{"x_min":13.890625,"x_max":694.5,"ha":717,"o":"m 537 1152 q 624 1146 587 1152 q 693 1129 661 1140 q 693 1079 693 1105 q 694 1022 694 1052 q 693 957 694 991 q 693 894 693 923 q 566 927 640 927 q 450 902 497 927 q 375 836 404 876 q 335 747 347 795 q 323 657 323 700 q 341 547 323 598 q 392 457 359 495 q 468 397 425 419 q 563 375 512 375 q 624 381 587 375 q 693 408 661 388 q 693 306 693 359 q 694 204 694 254 q 693 101 694 151 q 693 1 693 51 q 534 -15 615 -15 q 316 25 412 -15 q 152 140 219 65 q 49 324 84 216 q 13 565 13 431 q 47 800 13 693 q 146 986 80 908 q 310 1109 212 1065 q 537 1152 408 1152 m 384 1304 q 422 1395 384 1365 q 506 1425 461 1425 q 591 1392 558 1425 q 623 1308 623 1359 q 586 1218 623 1251 q 501 1186 550 1186 q 458 1193 479 1186 q 420 1216 437 1201 q 394 1252 404 1230 q 384 1304 384 1275 "},"³":{"x_min":19.453125,"x_max":400.03125,"ha":418,"o":"m 95 858 q 94 886 94 873 q 94 915 94 900 q 95 941 94 927 q 97 966 95 954 q 115 964 106 965 q 133 963 125 963 q 202 985 181 963 q 223 1033 223 1007 q 202 1082 223 1059 q 145 1104 181 1104 q 86 1088 116 1104 q 40 1048 56 1073 q 38 1088 38 1069 q 38 1133 38 1108 q 38 1152 38 1145 q 38 1166 38 1159 q 39 1179 38 1172 q 40 1197 40 1186 q 70 1224 52 1213 q 109 1241 88 1234 q 150 1249 130 1247 q 187 1251 170 1251 q 261 1241 225 1251 q 324 1210 297 1230 q 368 1159 351 1190 q 384 1088 384 1129 q 374 1028 384 1057 q 347 977 363 1000 q 311 938 331 954 q 272 915 291 922 q 316 901 293 912 q 357 870 338 890 q 388 818 376 850 q 400 743 400 787 q 379 649 400 687 q 327 586 359 611 q 256 551 295 562 q 177 540 216 540 q 93 551 137 540 q 22 587 50 562 q 19 630 19 609 q 19 675 19 651 q 19 725 19 700 q 22 769 19 750 q 70 729 37 745 q 134 713 102 713 q 194 732 169 713 q 219 790 219 750 q 215 815 219 802 q 202 837 212 827 q 172 853 191 847 q 123 859 154 859 q 110 859 118 859 q 95 858 102 859 "},"¡":{"x_min":16.671875,"x_max":330.578125,"ha":343,"o":"m 16 -243 l 84 480 l 252 480 l 252 -266 l 16 -243 m 181 618 q 120 632 147 618 q 74 667 93 645 q 45 714 55 688 q 36 763 36 740 q 47 822 36 794 q 79 870 59 850 q 127 904 100 891 q 183 916 154 916 q 248 904 220 916 q 294 872 276 891 q 321 827 312 852 q 330 776 330 802 q 320 720 330 748 q 292 668 311 691 q 245 632 273 645 q 181 618 218 618 "},"ẅ":{"x_min":0,"x_max":969.515625,"ha":968,"o":"m 969 830 l 811 0 l 554 0 l 484 419 l 416 0 l 161 0 l 0 830 l 208 830 l 265 388 q 275 345 269 359 q 295 330 281 330 q 312 344 306 330 q 322 388 318 358 l 390 830 l 579 830 l 651 388 q 661 345 655 359 q 680 330 668 330 q 707 388 701 330 l 761 830 l 969 830 m 254 1027 q 286 1105 254 1082 q 356 1129 319 1129 q 427 1100 401 1129 q 452 1027 452 1070 q 425 954 452 983 q 358 926 398 926 q 323 932 341 926 q 289 949 305 937 q 263 980 273 961 q 254 1027 254 1000 m 516 1029 q 525 1074 516 1055 q 549 1105 534 1093 q 581 1123 563 1118 q 618 1129 600 1129 q 688 1100 662 1129 q 715 1027 715 1070 q 688 954 715 983 q 620 926 661 926 q 586 932 604 926 q 552 949 568 937 q 526 980 536 961 q 516 1029 516 1000 "},"[":{"x_min":50,"x_max":379.203125,"ha":390,"o":"m 379 38 l 379 -100 l 50 -100 q 52 65 51 -12 q 53 220 52 143 q 54 375 54 297 q 54 541 54 454 q 54 709 54 629 q 53 870 54 790 q 52 1030 52 950 q 50 1198 51 1111 l 379 1198 l 379 1059 l 218 1059 q 217 934 218 1000 q 215 800 216 868 q 215 667 215 733 q 215 541 215 601 q 215 288 215 422 q 218 38 216 154 l 379 38 "},"%":{"x_min":22.21875,"x_max":894.515625,"ha":918,"o":"m 129 0 l 665 1136 l 793 1136 l 256 0 l 129 0 m 219 1152 q 363 1078 315 1152 q 411 868 411 1004 q 361 654 411 729 q 215 579 312 579 q 70 653 118 579 q 22 861 22 727 q 74 1078 22 1004 q 219 1152 126 1152 m 216 738 q 279 777 258 738 q 301 872 301 816 q 279 963 301 927 q 218 998 258 998 q 155 963 177 998 q 133 870 133 927 q 154 777 133 816 q 216 738 176 738 m 702 558 q 846 484 798 558 q 894 273 894 409 q 845 59 894 134 q 698 -15 795 -15 q 553 59 601 -15 q 505 266 505 133 q 557 484 505 409 q 702 558 609 558 m 700 144 q 763 183 741 144 q 784 277 784 222 q 763 368 784 333 q 701 404 741 404 q 638 368 661 404 q 616 276 616 333 q 638 183 616 222 q 700 144 659 144 "},"P":{"x_min":37.5,"x_max":768.109375,"ha":775,"o":"m 275 638 q 322 629 300 632 q 362 627 345 627 q 413 634 388 627 q 455 655 437 640 q 484 696 473 670 q 495 762 495 722 q 484 831 495 804 q 452 873 472 858 q 407 894 433 888 q 354 900 381 900 q 275 891 313 900 l 275 638 m 37 0 q 43 263 41 131 q 44 512 44 394 q 42 832 44 680 q 37 1136 40 983 q 174 1148 105 1143 q 309 1152 243 1152 q 488 1137 405 1152 q 634 1081 572 1122 q 732 967 695 1040 q 768 780 768 894 q 737 600 768 675 q 652 479 707 526 q 520 412 597 433 q 351 391 444 391 q 310 393 327 391 q 272 397 293 394 q 273 198 272 297 q 281 0 275 100 l 37 0 "},"Ḥ":{"x_min":36.109375,"x_max":702.828125,"ha":735,"o":"m 702 1136 q 696 970 698 1048 q 693 817 694 893 q 691 664 691 741 q 690 500 690 587 q 691 276 690 397 q 693 0 691 155 l 462 0 q 466 174 465 83 q 469 381 468 265 l 263 381 q 264 206 263 300 q 266 0 265 112 l 36 0 q 38 125 37 61 q 41 262 40 188 q 43 423 43 336 q 43 618 43 511 q 43 781 43 712 q 42 907 43 850 q 41 1017 41 963 q 41 1136 41 1070 l 276 1136 q 268 922 270 1020 q 263 725 265 825 l 469 725 q 469 841 469 788 q 468 941 469 893 q 468 1035 468 988 q 468 1136 468 1082 l 702 1136 m 368 -72 q 445 -105 418 -72 q 472 -179 472 -138 q 445 -252 472 -219 q 368 -284 418 -284 q 290 -252 318 -284 q 263 -179 263 -219 q 290 -105 263 -138 q 368 -72 318 -72 "},"_":{"x_min":38.890625,"x_max":933.40625,"ha":972,"o":"m 927 -77 q 932 -125 930 -101 q 933 -173 933 -148 q 932 -218 933 -195 q 927 -266 930 -241 l 43 -266 q 39 -220 40 -244 q 38 -172 38 -195 q 39 -125 38 -148 q 43 -77 40 -101 l 927 -77 "},"ḥ":{"x_min":33.34375,"x_max":604.21875,"ha":638,"o":"m 251 1168 q 244 1032 247 1090 q 240 927 241 975 q 238 838 238 879 q 237 755 237 797 q 318 821 270 797 q 413 845 365 845 q 472 836 444 845 q 525 812 501 827 q 566 775 548 797 q 591 729 583 754 q 600 672 597 709 q 604 593 604 636 l 604 0 l 400 0 l 400 416 q 379 482 400 458 q 326 506 359 506 q 264 484 291 506 q 237 430 237 462 l 237 0 l 33 0 q 36 395 36 184 q 36 847 36 605 q 36 972 36 922 q 36 1058 36 1023 q 35 1118 36 1093 q 34 1168 34 1143 l 251 1168 m 323 -72 q 400 -105 373 -72 q 427 -179 427 -138 q 400 -252 427 -219 q 323 -284 373 -284 q 246 -252 273 -284 q 219 -179 219 -219 q 246 -105 219 -138 q 323 -72 273 -72 "},"Ŕ":{"x_min":37.5,"x_max":818.125,"ha":818,"o":"m 37 0 q 43 263 41 131 q 44 512 44 394 q 42 832 44 680 q 37 1136 40 983 q 174 1148 105 1143 q 313 1152 243 1152 q 504 1138 415 1152 q 658 1084 593 1123 q 761 975 723 1044 q 800 795 800 905 q 743 581 800 659 q 591 465 687 504 l 818 0 l 570 0 l 386 423 q 268 419 329 419 q 269 209 268 312 q 277 0 270 106 l 37 0 m 268 630 q 347 626 311 626 q 481 661 441 626 q 520 768 520 697 q 509 837 520 811 q 477 879 497 863 q 429 900 456 894 q 372 905 402 905 q 322 903 350 905 q 268 897 295 901 l 268 630 m 402 1444 l 605 1444 l 427 1179 l 301 1179 l 402 1444 "},"ñ":{"x_min":34.71875,"x_max":602.828125,"ha":635,"o":"m 236 830 l 236 755 q 317 821 269 797 q 415 845 365 845 q 523 812 476 845 q 586 733 570 779 q 597 675 593 712 q 602 593 602 638 l 602 0 l 398 0 l 398 402 q 375 486 398 465 q 322 508 352 508 q 259 482 281 508 q 236 416 236 456 l 236 0 l 34 0 q 35 96 34 45 q 36 197 36 147 q 36 298 36 248 q 36 393 36 348 q 36 472 36 419 q 35 587 36 525 q 34 715 34 650 q 34 830 34 780 l 236 830 m 63 1097 q 131 1127 100 1118 q 191 1136 162 1136 q 263 1123 230 1136 q 326 1096 295 1111 q 386 1069 356 1082 q 450 1057 416 1057 q 514 1071 479 1057 q 590 1122 550 1086 l 590 972 q 514 929 550 941 q 448 918 479 918 q 379 930 411 918 q 316 958 347 943 q 254 986 284 973 q 190 998 223 998 q 130 986 161 998 q 63 944 100 975 l 63 1097 "},"‚":{"x_min":-25,"x_max":298.640625,"ha":317,"o":"m 4 156 q 61 249 19 215 q 158 283 102 283 q 260 242 222 283 q 298 134 298 201 q 279 40 298 90 q 228 -58 261 -8 q 151 -155 195 -108 q 54 -241 106 -202 l -25 -163 q 56 -66 29 -115 q 83 26 83 -18 q 4 156 83 97 "},"Æ":{"x_min":-18.0625,"x_max":968.140625,"ha":990,"o":"m 968 -4 q 868 -2 929 -2 q 737 0 807 -1 q 597 0 668 0 q 470 1 526 1 q 472 93 472 33 q 473 227 473 152 l 269 227 l 218 0 l -18 0 l 279 1136 l 961 1136 l 961 915 l 695 915 l 695 740 l 922 740 l 922 533 l 695 533 l 695 368 l 962 368 q 965 302 963 336 q 967 227 966 269 q 968 129 968 186 q 968 -4 968 73 m 325 476 l 473 476 q 472 711 473 594 q 472 923 472 827 l 427 923 l 325 476 "},"ğ":{"x_min":13.890625,"x_max":713.953125,"ha":747,"o":"m 516 97 q 420 37 463 55 q 325 19 376 19 q 198 47 255 19 q 100 127 141 76 q 36 248 59 177 q 13 404 13 319 q 39 575 13 495 q 110 716 65 655 q 215 811 155 776 q 343 845 275 845 q 516 761 444 845 l 516 830 l 713 830 l 713 383 q 710 173 713 259 q 700 37 707 87 q 588 -188 679 -109 q 348 -266 497 -266 q 229 -252 286 -266 q 126 -212 173 -238 l 126 -41 q 329 -93 227 -93 q 468 -54 420 -93 q 516 56 516 -15 l 516 97 m 279 501 q 309 409 279 444 q 390 375 340 375 q 439 385 416 375 q 479 413 462 395 q 506 456 497 431 q 516 508 516 480 q 507 558 516 534 q 481 599 498 581 q 443 626 465 616 q 395 636 420 636 q 312 598 345 636 q 279 501 279 561 m 613 1134 q 596 1048 613 1086 q 551 986 579 1011 q 486 947 523 961 q 411 934 450 934 q 334 947 370 934 q 270 986 298 961 q 225 1048 243 1011 q 208 1134 208 1086 l 304 1134 q 336 1050 306 1082 q 411 1018 366 1018 q 485 1050 455 1018 q 518 1134 515 1082 l 613 1134 "},"ǈ":{"x_min":36.109375,"x_max":809.78125,"ha":793,"o":"m 277 1136 q 271 822 273 945 q 268 614 269 698 q 266 473 266 530 q 266 358 266 416 l 484 366 q 488 276 487 320 q 490 187 490 231 q 488 95 490 141 q 484 0 487 48 l 36 0 q 42 398 40 194 q 44 797 44 602 q 44 972 44 887 q 43 1136 44 1057 l 277 1136 m 757 -4 q 754 -99 757 -56 q 738 -175 751 -141 q 580 -266 704 -266 q 552 -265 569 -266 q 518 -263 536 -265 q 485 -260 501 -262 q 459 -255 469 -258 q 452 -215 454 -236 q 451 -177 451 -194 q 454 -119 451 -148 q 462 -68 456 -90 q 486 -72 470 -70 q 512 -73 502 -73 q 557 -54 547 -73 q 568 20 568 -36 l 568 808 l 757 808 l 757 -4 m 666 1152 q 727 1139 700 1152 q 772 1105 754 1126 q 800 1059 790 1084 q 809 1009 809 1033 q 797 950 809 977 q 766 903 786 923 q 720 871 745 883 q 665 859 694 859 q 601 871 629 859 q 554 902 573 883 q 527 945 536 920 q 518 997 518 970 q 528 1051 518 1023 q 557 1102 538 1079 q 604 1138 576 1125 q 666 1152 632 1152 "},"Ū":{"x_min":27.78125,"x_max":800.0625,"ha":829,"o":"m 786 1137 q 794 786 788 934 q 800 534 800 638 q 795 399 800 466 q 777 270 791 331 q 738 157 763 209 q 670 66 712 105 q 565 6 627 27 q 416 -15 502 -15 q 264 7 327 -15 q 158 69 201 30 q 89 161 115 108 q 50 276 63 215 q 31 402 36 337 q 27 533 27 468 q 29 643 27 584 q 33 773 30 701 q 39 934 36 845 q 47 1136 43 1023 l 291 1136 q 284 924 287 1011 q 279 779 281 837 q 277 686 277 720 q 275 634 276 652 q 275 609 275 616 q 275 597 275 601 q 305 394 275 462 q 415 326 336 326 q 524 400 495 326 q 552 623 552 473 q 552 639 552 630 q 552 668 552 648 q 550 720 551 687 q 547 807 550 752 q 543 942 545 862 q 536 1136 540 1022 l 786 1137 m 655 1382 l 655 1251 l 197 1251 l 197 1382 l 655 1382 "},"ª":{"x_min":13.890625,"x_max":480.59375,"ha":514,"o":"m 476 687 l 330 687 l 330 729 q 201 677 266 677 q 128 697 162 677 q 68 750 94 716 q 28 829 43 784 q 13 927 13 875 q 29 1031 13 982 q 72 1116 45 1080 q 136 1174 100 1152 q 213 1195 173 1195 q 276 1182 245 1195 q 330 1144 306 1168 l 330 1186 l 480 1186 l 476 687 m 159 973 q 181 908 159 932 q 243 884 202 884 q 307 910 283 884 q 331 980 331 936 q 310 1046 331 1022 q 250 1070 288 1070 q 184 1044 209 1070 q 159 973 159 1018 "},"Œ":{"x_min":18.0625,"x_max":1102.859375,"ha":1125,"o":"m 1102 -4 q 1002 -2 1063 -2 q 870 0 940 -1 q 729 0 800 0 q 602 1 658 1 q 603 34 602 15 q 604 77 604 54 q 518 8 566 31 q 408 -15 470 -15 q 233 24 306 -15 q 111 139 159 63 q 40 325 63 215 q 18 577 18 436 q 113 1007 18 862 q 408 1152 209 1152 q 515 1134 468 1152 q 602 1079 562 1115 l 602 1134 q 720 1135 657 1134 q 848 1136 783 1136 q 977 1138 913 1137 q 1097 1141 1040 1140 q 1098 1110 1097 1123 q 1098 1073 1098 1097 q 1097 997 1098 1038 q 1093 915 1095 955 l 827 915 l 827 740 l 1057 740 l 1057 533 l 827 533 l 827 368 l 1097 368 q 1100 302 1098 336 q 1102 227 1101 269 q 1102 129 1102 186 q 1102 -4 1102 73 m 422 343 q 500 363 466 343 q 556 418 534 383 q 590 503 579 454 q 601 612 601 552 q 590 722 601 672 q 556 811 579 773 q 500 869 534 848 q 422 890 466 890 q 345 868 377 890 q 289 809 312 847 q 255 721 266 772 q 244 612 244 670 q 255 503 244 552 q 289 418 266 454 q 345 363 312 383 q 422 343 377 343 "},"ﬀ":{"x_min":19.453125,"x_max":827.84375,"ha":829,"o":"m 83 444 l 19 444 l 19 736 l 81 736 l 81 836 q 90 982 81 927 q 118 1072 98 1036 q 184 1143 141 1118 q 279 1168 226 1168 q 333 1166 318 1168 q 362 1159 348 1163 q 370 1008 370 1113 q 361 854 370 891 q 327 859 344 859 q 281 833 293 859 q 269 765 269 807 l 269 736 l 381 736 l 381 444 l 272 444 l 272 0 l 83 0 l 83 444 m 508 444 l 444 444 l 444 736 l 506 736 l 506 836 q 515 982 506 927 q 543 1072 523 1036 q 618 1143 569 1118 q 732 1168 666 1168 q 779 1166 752 1168 q 819 1159 807 1163 q 825 1102 823 1138 q 827 1008 827 1066 q 818 854 827 891 q 791 858 811 857 q 752 859 770 859 q 722 856 734 859 q 704 842 711 852 q 696 813 698 832 q 694 765 694 794 l 694 736 l 807 736 l 807 444 l 697 444 l 697 0 l 508 0 l 508 444 "},"Ą":{"x_min":-5.5625,"x_max":747.28125,"ha":742,"o":"m 738 -254 q 591 -284 651 -284 q 504 -258 536 -284 q 472 -187 472 -231 q 498 -97 472 -147 q 573 0 525 -48 l 512 0 l 477 227 l 263 227 l 230 0 l -5 0 l 200 1136 l 543 1136 l 747 0 l 691 0 q 623 -82 650 -38 q 597 -154 597 -126 q 627 -183 597 -183 q 675 -177 647 -183 q 729 -161 702 -172 l 738 -254 m 301 476 l 440 476 l 370 934 l 301 476 "},"T":{"x_min":15.28125,"x_max":566.71875,"ha":582,"o":"m 566 879 l 406 879 q 402 628 404 755 q 401 354 401 501 q 401 202 401 259 q 401 107 401 144 q 402 47 401 70 q 402 0 402 25 l 169 0 q 172 127 170 61 q 174 270 173 193 q 175 436 175 347 q 176 634 176 526 q 176 772 176 713 q 175 879 176 830 l 15 879 l 15 1136 l 566 1136 l 566 879 "},"š":{"x_min":13.890625,"x_max":525.046875,"ha":532,"o":"m 113 779 q 215 831 161 816 q 325 845 269 845 q 404 838 365 845 q 480 820 444 832 q 484 682 483 736 q 484 600 484 629 q 483 541 484 558 q 480 508 481 523 q 466 511 477 508 q 440 516 455 513 q 407 521 425 519 q 373 523 390 523 q 331 517 348 523 q 313 493 313 511 q 325 464 313 477 q 352 438 336 451 q 386 413 368 425 q 422 391 405 401 q 492 324 459 366 q 525 212 525 281 q 497 108 525 151 q 429 37 470 65 q 335 -2 387 9 q 233 -15 283 -15 q 188 -13 213 -15 q 138 -8 163 -12 q 87 2 112 -4 q 41 18 62 8 q 31 68 34 41 q 29 122 29 95 q 29 152 29 134 q 31 189 30 170 q 36 226 33 208 q 41 256 38 244 q 77 242 56 250 q 119 227 97 234 q 163 215 141 220 q 204 211 184 211 q 247 222 231 211 q 262 252 262 233 q 252 282 262 269 q 229 307 243 295 q 198 328 215 319 q 168 344 181 337 q 113 375 141 358 q 63 416 86 391 q 27 475 41 440 q 13 559 13 509 q 36 676 13 618 q 113 779 59 734 m 50 1080 l 91 1175 l 287 1079 l 483 1175 l 525 1080 l 287 922 l 50 1080 "},"Þ":{"x_min":38.890625,"x_max":769.5,"ha":781,"o":"m 258 426 q 306 417 283 419 q 347 415 330 415 q 397 421 373 415 q 440 443 422 427 q 468 484 458 458 q 479 551 479 511 q 467 619 479 593 q 436 661 455 645 q 391 682 416 676 q 337 687 365 687 q 298 685 318 687 q 258 680 279 683 l 258 426 m 273 1136 q 268 1084 270 1112 q 265 1028 266 1055 q 264 979 265 1001 q 263 945 263 957 q 450 934 359 945 q 612 883 541 923 q 726 766 683 843 q 769 555 769 688 q 727 368 769 440 q 616 255 686 295 q 454 201 545 215 q 263 187 362 187 q 263 138 263 155 q 264 111 263 122 q 265 95 265 101 q 267 78 266 88 q 269 50 268 68 q 273 0 270 31 l 38 0 q 39 246 38 151 q 41 402 40 341 q 43 504 43 463 q 44 587 44 544 q 44 671 44 629 q 43 774 44 713 q 41 920 43 834 q 38 1136 40 1007 l 273 1136 "},"j":{"x_min":-80.5625,"x_max":277.796875,"ha":261,"o":"m 225 -4 q 222 -99 225 -56 q 206 -175 219 -141 q 48 -266 172 -266 q 20 -265 37 -266 q -13 -263 4 -265 q -46 -260 -30 -262 q -72 -255 -62 -258 q -79 -215 -77 -236 q -80 -177 -80 -194 q -77 -119 -80 -148 q -69 -68 -75 -90 q -45 -72 -61 -70 q -19 -73 -29 -73 q 25 -54 15 -73 q 36 20 36 -36 l 36 808 l 225 808 l 225 -4 m 134 1152 q 195 1139 168 1152 q 240 1105 222 1126 q 268 1059 258 1084 q 277 1009 277 1033 q 265 950 277 977 q 234 903 254 923 q 188 871 213 883 q 133 859 162 859 q 69 871 97 859 q 22 902 41 883 q -4 945 4 920 q -13 997 -13 970 q -3 1051 -13 1023 q 25 1102 6 1079 q 72 1138 44 1125 q 134 1152 100 1152 "},"1":{"x_min":29.171875,"x_max":520.875,"ha":542,"o":"m 412 1150 q 406 976 408 1061 q 402 797 404 891 q 400 592 401 702 q 400 343 400 481 l 516 343 q 520 170 520 256 q 516 0 520 84 l 66 0 q 62 85 63 43 q 61 170 61 127 q 62 257 61 215 q 66 343 63 300 l 181 343 q 181 465 181 401 q 181 593 181 529 q 180 718 180 657 q 180 832 180 779 l 33 813 q 29 934 29 873 q 29 972 29 950 q 29 1018 29 994 q 31 1065 30 1043 q 33 1102 31 1087 l 412 1150 "},"›":{"x_min":25,"x_max":615.328125,"ha":629,"o":"m 25 751 l 191 847 l 615 415 l 191 -18 l 25 79 l 354 415 l 25 751 "},"<":{"x_min":22.21875,"x_max":550.046875,"ha":590,"o":"m 22 547 l 550 851 l 550 673 l 183 476 l 550 279 l 550 101 l 22 405 l 22 547 "},"t":{"x_min":20.828125,"x_max":401.421875,"ha":421,"o":"m 104 991 l 294 991 l 294 830 l 401 830 l 401 461 l 291 461 l 291 266 q 301 190 291 209 q 345 172 311 172 q 372 173 355 172 q 397 177 388 175 q 400 138 400 168 q 400 77 400 108 q 400 29 400 51 q 398 0 400 8 q 361 -4 381 -2 q 322 -8 341 -6 q 288 -10 304 -9 q 262 -11 272 -11 q 180 8 212 -11 q 130 60 148 27 q 105 134 112 93 q 98 218 98 175 q 99 267 98 234 q 100 336 100 300 q 102 406 101 372 q 104 461 104 440 l 20 461 l 20 830 l 104 830 l 104 991 "},"¬":{"x_min":27.78125,"x_max":833.40625,"ha":879,"o":"m 833 658 l 833 255 l 663 255 l 663 490 l 27 490 l 27 658 l 833 658 "},"ù":{"x_min":33.34375,"x_max":608.375,"ha":638,"o":"m 400 0 l 400 73 q 319 9 366 33 q 223 -15 272 -15 q 164 -6 193 -15 q 112 18 136 2 q 71 54 88 33 q 45 101 54 76 q 36 157 40 120 q 33 236 33 194 l 33 830 l 237 830 l 237 413 q 256 347 237 372 q 309 323 276 323 q 343 330 326 323 q 374 348 361 337 q 395 375 387 359 q 404 406 404 390 l 404 830 l 608 830 q 605 734 607 784 q 602 632 604 683 q 600 531 601 581 q 600 437 600 481 q 600 358 600 411 q 600 243 600 305 q 601 115 601 180 q 601 0 601 50 l 400 0 m 408 902 l 281 902 l 104 1168 l 306 1168 l 408 902 "},"ĉ":{"x_min":13.890625,"x_max":587.546875,"ha":597,"o":"m 418 845 q 566 822 500 845 q 567 771 566 798 q 568 716 568 744 q 567 658 568 687 q 566 604 566 629 q 454 643 520 643 q 384 629 412 643 q 339 595 356 616 q 315 550 322 575 q 308 504 308 526 q 319 446 308 473 q 350 398 330 419 q 395 366 369 377 q 450 354 420 354 q 508 365 477 354 q 566 395 538 376 q 567 300 566 350 q 568 201 568 251 q 567 102 568 152 q 566 1 566 51 q 412 -15 488 -15 q 244 14 318 -15 q 119 100 170 44 q 40 235 68 155 q 13 413 13 315 q 38 586 13 506 q 114 723 63 666 q 240 813 165 780 q 418 845 316 845 m 350 1175 l 587 1018 l 545 923 l 350 1018 l 154 923 l 112 1018 l 350 1175 "},"ï":{"x_min":-75,"x_max":358.359375,"ha":276,"o":"m -75 1027 q -46 1105 -75 1082 q 13 1129 -18 1129 q 84 1100 58 1129 q 109 1027 109 1070 q 82 954 109 983 q 15 926 55 926 q -15 932 0 926 q -44 949 -30 937 q -66 980 -58 961 q -75 1027 -75 1000 m 173 1029 q 201 1105 173 1082 q 261 1129 229 1129 q 331 1100 305 1129 q 358 1027 358 1070 q 331 954 358 983 q 263 926 304 926 q 233 932 248 926 q 204 949 218 937 q 181 980 190 961 q 173 1029 173 1000 m 36 808 l 240 808 l 240 0 l 36 0 l 36 808 "},"ī":{"x_min":-11.109375,"x_max":287.515625,"ha":276,"o":"m 287 1105 l 287 975 l -11 975 l -11 1105 l 287 1105 m 36 808 l 240 808 l 240 0 l 36 0 l 36 808 "},"Ò":{"x_min":18.0625,"x_max":826.453125,"ha":845,"o":"m 422 1152 q 727 1005 629 1152 q 826 577 826 858 q 729 138 826 293 q 422 -15 633 -15 q 241 24 318 -15 q 115 139 165 63 q 41 325 65 215 q 18 577 18 436 q 116 1007 18 862 q 422 1152 215 1152 m 422 343 q 500 363 466 343 q 556 418 534 383 q 590 503 579 454 q 601 612 601 552 q 590 722 601 672 q 556 811 579 773 q 500 869 534 848 q 422 890 466 890 q 345 868 377 890 q 289 809 312 847 q 255 721 266 772 q 244 612 244 670 q 255 503 244 552 q 289 418 266 454 q 345 363 312 383 q 422 343 377 343 m 509 1179 l 383 1179 l 205 1444 l 408 1444 l 509 1179 "},"Ď":{"x_min":33.34375,"x_max":854.234375,"ha":868,"o":"m 33 1132 q 184 1148 112 1143 q 308 1152 256 1152 q 533 1119 430 1152 q 713 1000 636 1086 q 819 804 784 919 q 854 558 854 690 q 820 323 854 429 q 718 143 787 218 q 545 26 650 68 q 300 -15 441 -15 q 196 -12 268 -15 q 38 0 125 -9 q 40 124 40 63 q 42 243 41 184 q 43 362 43 302 q 43 486 43 422 q 40 834 43 668 q 33 1132 38 1001 m 302 922 q 277 920 288 922 q 254 918 265 919 q 252 788 252 852 q 252 658 252 723 q 253 590 252 626 q 254 516 254 554 q 256 439 255 477 q 258 368 258 401 q 283 364 270 365 q 305 363 295 363 q 400 386 356 363 q 477 446 444 408 q 527 536 509 484 q 545 645 545 587 q 534 738 545 688 q 493 827 522 787 q 418 895 465 868 q 302 922 372 922 m 122 1357 l 163 1451 l 359 1355 l 555 1451 l 597 1357 l 359 1198 l 122 1357 "},"&":{"x_min":6.9375,"x_max":1041.75,"ha":1040,"o":"m 694 918 q 643 761 694 832 q 486 622 593 690 q 552 561 516 594 q 633 491 588 527 q 766 686 695 570 q 836 641 797 669 q 914 581 876 612 q 986 518 952 550 q 1036 463 1019 486 q 966 375 1005 422 q 887 283 927 327 q 961 223 923 254 q 1041 161 1000 193 l 873 -44 l 702 112 q 520 15 611 45 q 330 -15 430 -15 q 195 6 255 -15 q 94 68 136 27 q 29 165 52 108 q 6 295 6 223 q 17 388 6 345 q 50 470 27 430 q 111 547 73 509 q 205 625 150 584 q 129 752 151 698 q 108 857 108 807 q 133 971 108 918 q 202 1065 158 1025 q 305 1129 245 1105 q 434 1152 365 1152 q 537 1136 490 1152 q 619 1088 584 1119 q 674 1013 654 1057 q 694 918 694 970 m 313 872 q 328 810 313 843 q 379 733 343 777 q 471 809 444 772 q 498 890 498 845 q 475 952 498 930 q 411 973 451 973 q 340 945 368 973 q 313 872 313 916 m 352 287 q 473 331 408 287 q 381 423 423 380 q 304 505 338 466 q 245 393 245 448 q 275 316 245 345 q 352 287 305 287 "},"˝":{"x_min":30.5625,"x_max":509.765625,"ha":540,"o":"m 120 1168 l 273 1168 l 143 902 l 30 902 l 120 1168 m 356 1168 l 509 1168 l 379 902 l 266 902 l 356 1168 "},"I":{"x_min":29.171875,"x_max":462.53125,"ha":493,"o":"m 137 393 l 137 618 q 136 769 137 707 q 136 884 136 832 l 33 884 q 30 947 31 916 q 29 1009 29 977 q 30 1073 29 1041 q 33 1136 31 1105 l 461 1136 q 462 1073 462 1104 q 462 1009 462 1041 q 462 947 462 977 q 461 884 462 916 l 359 884 q 356 701 356 791 q 355 500 355 611 l 355 393 l 461 393 q 462 294 462 343 q 462 195 462 245 q 462 97 462 147 q 461 0 462 48 l 33 0 q 30 97 31 48 q 29 195 29 147 q 30 294 29 245 q 33 393 31 343 l 137 393 "},"ə":{"x_min":16.671875,"x_max":712.5625,"ha":725,"o":"m 77 109 q 27 233 37 165 q 16 393 16 301 l 405 393 q 345 489 387 451 q 230 527 304 527 q 182 524 208 527 q 131 514 156 520 q 84 500 106 508 q 45 486 62 493 q 42 571 43 526 q 41 658 41 616 q 45 795 41 738 q 288 848 154 848 q 415 834 351 848 q 538 782 479 820 q 625 699 591 745 q 679 603 659 652 q 705 506 698 554 q 712 420 712 458 q 699 304 712 365 q 658 189 686 244 q 587 88 630 134 q 486 16 544 43 q 336 -15 415 -15 q 186 18 252 -15 q 77 109 119 51 m 326 134 q 381 158 355 134 q 416 244 408 181 l 234 244 q 267 161 240 188 q 326 134 294 134 "},"G":{"x_min":13.890625,"x_max":784.78125,"ha":811,"o":"m 784 632 l 784 1 q 652 -11 709 -8 q 556 -15 594 -15 q 327 25 429 -15 q 156 140 226 65 q 50 324 87 216 q 13 565 13 431 q 48 800 13 693 q 152 986 83 908 q 324 1109 220 1065 q 563 1152 427 1152 q 664 1145 622 1152 q 747 1125 707 1137 q 747 1076 747 1102 q 748 1019 748 1050 q 747 954 748 988 q 747 891 747 919 q 591 927 679 927 q 463 902 515 927 q 381 836 412 876 q 336 746 350 795 q 323 651 323 697 q 339 548 323 598 q 387 459 355 498 q 467 397 419 420 q 580 373 515 373 q 593 373 587 373 q 607 375 600 373 l 607 632 l 784 632 "},"`":{"x_min":38.890625,"x_max":343.078125,"ha":371,"o":"m 343 902 l 216 902 l 38 1168 l 241 1168 l 343 902 "},"·":{"x_min":16.671875,"x_max":311.140625,"ha":326,"o":"m 165 630 q 227 616 200 630 q 272 581 254 602 q 301 534 291 559 q 311 484 311 508 q 299 426 311 454 q 267 377 287 398 q 220 344 247 356 q 163 331 193 331 q 98 343 126 331 q 52 375 70 355 q 25 420 34 395 q 16 472 16 445 q 26 528 16 500 q 54 579 36 556 q 101 616 73 602 q 165 630 129 630 "},"ŏ":{"x_min":16.671875,"x_max":648.65625,"ha":665,"o":"m 333 845 q 575 734 502 845 q 648 415 648 623 q 575 95 648 205 q 333 -15 502 -15 q 89 95 162 -15 q 16 415 16 205 q 89 734 16 623 q 333 845 162 845 m 333 311 q 382 322 361 311 q 418 351 404 333 q 438 392 431 369 q 445 440 445 415 q 438 488 445 465 q 418 530 431 512 q 382 559 404 548 q 333 570 361 570 q 247 530 276 570 q 219 440 219 490 q 226 392 219 415 q 247 351 233 369 q 283 322 262 333 q 333 311 304 311 m 536 1134 q 518 1048 536 1086 q 473 986 501 1011 q 409 947 445 961 q 333 934 372 934 q 256 947 293 934 q 193 986 220 961 q 147 1048 165 1011 q 130 1134 130 1086 l 226 1134 q 259 1050 229 1082 q 333 1018 288 1018 q 407 1050 377 1018 q 440 1134 437 1082 l 536 1134 "},"¿":{"x_min":20.828125,"x_max":611.15625,"ha":638,"o":"m 483 486 q 469 397 483 434 q 435 331 455 361 q 392 279 415 302 q 349 231 369 255 q 315 180 329 208 q 302 115 302 152 q 316 53 302 76 q 351 18 330 30 q 394 2 372 5 q 433 -1 416 -1 q 538 29 495 -1 q 607 101 580 61 q 610 34 609 70 q 611 -43 611 -2 q 610 -111 611 -80 q 607 -177 609 -141 q 499 -243 568 -219 q 345 -266 430 -266 q 240 -256 297 -266 q 134 -214 183 -245 q 53 -127 86 -183 q 20 20 20 -70 q 38 136 20 88 q 84 218 56 183 q 143 281 111 254 q 202 338 175 309 q 249 402 230 368 q 269 486 268 437 l 483 486 m 366 618 q 304 632 331 618 q 259 667 277 645 q 230 714 240 688 q 220 763 220 740 q 232 822 220 794 q 264 870 244 850 q 311 904 284 891 q 368 916 338 916 q 433 904 405 916 q 479 872 461 891 q 506 827 497 852 q 515 776 515 802 q 505 720 515 748 q 477 668 495 691 q 430 632 458 645 q 366 618 402 618 "},"ý":{"x_min":-8.328125,"x_max":636.15625,"ha":628,"o":"m 636 830 l 350 -251 l 140 -251 l 205 23 l -8 830 l 211 830 l 287 426 q 299 377 294 394 q 315 361 304 361 q 345 426 333 361 l 425 830 l 636 830 m 329 1168 l 531 1168 l 354 902 l 227 902 l 329 1168 "},"º":{"x_min":16.671875,"x_max":427.8125,"ha":444,"o":"m 222 1195 q 374 1129 320 1195 q 427 937 427 1063 q 376 749 427 819 q 222 679 325 679 q 69 748 122 679 q 16 937 16 818 q 69 1129 16 1063 q 222 1195 122 1195 m 222 844 q 259 854 243 844 q 285 881 275 865 q 300 917 295 897 q 305 958 305 937 q 300 998 305 977 q 285 1034 295 1018 q 259 1060 275 1050 q 222 1070 243 1070 q 185 1060 201 1070 q 159 1034 169 1050 q 143 998 148 1018 q 138 958 138 977 q 143 917 138 937 q 159 881 148 897 q 185 854 169 865 q 222 844 201 844 "},"ź":{"x_min":12.5,"x_max":590.328125,"ha":611,"o":"m 23 0 q 14 61 16 27 q 12 129 12 94 q 15 209 12 172 q 26 284 19 247 l 319 551 l 51 551 q 44 614 47 579 q 41 690 41 650 q 44 765 41 729 q 51 830 47 801 l 576 830 q 581 779 579 805 q 583 720 583 752 q 581 668 583 698 q 576 590 580 637 l 243 295 l 580 295 q 587 225 584 263 q 590 147 590 187 q 587 67 590 105 q 580 0 584 29 l 23 0 m 348 1168 l 551 1168 l 373 902 l 247 902 l 348 1168 "},"ű":{"x_min":33.34375,"x_max":626.4375,"ha":638,"o":"m 400 0 l 400 73 q 319 9 366 33 q 223 -15 272 -15 q 164 -6 193 -15 q 112 18 136 2 q 71 54 88 33 q 45 101 54 76 q 36 157 40 120 q 33 236 33 194 l 33 830 l 237 830 l 237 413 q 256 347 237 372 q 309 323 276 323 q 343 330 326 323 q 374 348 361 337 q 395 375 387 359 q 404 406 404 390 l 404 830 l 608 830 q 605 734 607 784 q 602 632 604 683 q 600 531 601 581 q 600 437 600 481 q 600 358 600 411 q 600 243 600 305 q 601 115 601 180 q 601 0 601 50 l 400 0 m 237 1168 l 390 1168 l 259 902 l 147 902 l 237 1168 m 473 1168 l 626 1168 l 495 902 l 383 902 l 473 1168 "},"Ḍ":{"x_min":33.34375,"x_max":854.234375,"ha":868,"o":"m 33 1132 q 184 1148 112 1143 q 308 1152 256 1152 q 533 1119 430 1152 q 713 1000 636 1086 q 819 804 784 919 q 854 558 854 690 q 820 323 854 429 q 718 143 787 218 q 545 26 650 68 q 300 -15 441 -15 q 196 -12 268 -15 q 38 0 125 -9 q 40 124 40 63 q 42 243 41 184 q 43 362 43 302 q 43 486 43 422 q 40 834 43 668 q 33 1132 38 1001 m 302 922 q 277 920 288 922 q 254 918 265 919 q 252 788 252 852 q 252 658 252 723 q 253 590 252 626 q 254 516 254 554 q 256 439 255 477 q 258 368 258 401 q 283 364 270 365 q 305 363 295 363 q 400 386 356 363 q 477 446 444 408 q 527 536 509 484 q 545 645 545 587 q 534 738 545 688 q 493 827 522 787 q 418 895 465 868 q 302 922 372 922 m 323 -72 q 400 -105 373 -72 q 427 -179 427 -138 q 400 -252 427 -219 q 323 -284 373 -284 q 246 -252 273 -284 q 219 -179 219 -219 q 246 -105 219 -138 q 323 -72 273 -72 "},"₃":{"x_min":22.21875,"x_max":402.8125,"ha":428,"o":"m 98 308 q 97 336 97 323 q 97 365 97 350 q 97 391 97 377 q 100 416 98 404 q 118 414 109 415 q 136 413 127 413 q 205 435 184 413 q 226 483 226 456 q 205 531 226 509 q 148 554 184 554 q 89 538 119 554 q 43 498 59 523 q 41 538 41 519 q 41 583 41 558 q 41 602 41 595 q 41 616 41 609 q 42 629 41 622 q 43 647 43 636 q 73 674 55 663 q 112 691 91 684 q 153 699 133 697 q 190 701 173 701 q 263 691 227 701 q 327 660 300 680 q 370 609 354 640 q 387 538 387 579 q 377 478 387 506 q 350 427 366 450 q 314 388 334 404 q 275 365 294 372 q 318 351 295 362 q 360 320 341 340 q 391 268 379 300 q 402 193 402 237 q 382 99 402 137 q 330 36 362 61 q 259 1 298 12 q 180 -9 219 -9 q 96 1 140 -9 q 25 37 52 12 q 22 80 22 59 q 22 125 22 101 q 22 175 22 150 q 25 219 22 200 q 72 179 40 195 q 137 163 105 163 q 197 181 172 163 q 222 240 222 200 q 218 265 222 252 q 204 287 215 277 q 175 303 194 297 q 126 309 156 309 q 113 309 120 309 q 98 308 105 309 "},"Ǽ":{"x_min":-18.0625,"x_max":968.140625,"ha":990,"o":"m 968 -4 q 868 -2 929 -2 q 737 0 807 -1 q 597 0 668 0 q 470 1 526 1 q 472 93 472 33 q 473 227 473 152 l 269 227 l 218 0 l -18 0 l 279 1136 l 961 1136 l 961 915 l 695 915 l 695 740 l 922 740 l 922 533 l 695 533 l 695 368 l 962 368 q 965 302 963 336 q 967 227 966 269 q 968 129 968 186 q 968 -4 968 73 m 325 476 l 473 476 q 472 711 473 594 q 472 923 472 827 l 427 923 l 325 476 m 607 1444 l 809 1444 l 632 1179 l 505 1179 l 607 1444 "},"ń":{"x_min":34.71875,"x_max":602.828125,"ha":635,"o":"m 236 830 l 236 755 q 317 821 269 797 q 415 845 365 845 q 523 812 476 845 q 586 733 570 779 q 597 675 593 712 q 602 593 602 638 l 602 0 l 398 0 l 398 402 q 375 486 398 465 q 322 508 352 508 q 259 482 281 508 q 236 416 236 456 l 236 0 l 34 0 q 35 96 34 45 q 36 197 36 147 q 36 298 36 248 q 36 393 36 348 q 36 472 36 419 q 35 587 36 525 q 34 715 34 650 q 34 830 34 780 l 236 830 m 330 1168 l 533 1168 l 355 902 l 229 902 l 330 1168 "},"Ș":{"x_min":15.28125,"x_max":632,"ha":639,"o":"m 23 854 q 57 1000 23 943 q 143 1092 91 1058 q 259 1139 195 1126 q 380 1152 322 1152 q 422 1151 397 1152 q 477 1147 448 1150 q 535 1139 505 1144 q 591 1126 565 1134 q 595 1059 594 1090 q 597 987 597 1027 q 595 910 597 947 q 591 840 594 873 q 563 844 580 841 q 527 848 545 847 q 489 851 508 850 q 454 852 470 852 q 356 832 387 852 q 326 775 326 811 q 336 735 326 754 q 361 700 345 716 q 397 668 377 683 q 438 638 418 652 q 506 586 472 615 q 568 518 540 558 q 613 427 595 479 q 632 306 632 375 q 601 156 632 218 q 522 57 570 95 q 416 2 475 19 q 298 -15 356 -15 q 234 -11 272 -15 q 156 -2 195 -8 q 83 13 118 4 q 27 34 48 22 q 18 86 22 59 q 15 144 15 112 q 17 198 15 166 q 22 263 19 230 q 28 327 25 297 q 34 379 31 358 q 79 360 50 370 q 142 340 108 350 q 211 323 176 330 q 272 316 245 316 q 338 335 316 316 q 361 386 361 354 q 336 447 361 420 q 273 501 311 475 q 192 557 236 527 q 111 627 148 587 q 48 722 73 668 q 23 854 23 777 m 398 -76 l 315 -284 l 181 -284 l 215 -76 l 398 -76 "},";":{"x_min":2.78125,"x_max":326.421875,"ha":363,"o":"m 31 155 q 88 247 47 213 q 186 281 130 281 q 288 240 250 281 q 326 133 326 200 q 307 39 326 88 q 256 -59 288 -9 q 179 -156 223 -109 q 81 -243 134 -204 l 2 -165 q 84 -68 56 -116 q 111 25 111 -19 q 31 155 111 95 m 180 845 q 242 832 215 845 q 288 796 269 818 q 316 749 306 775 q 326 700 326 723 q 314 641 326 669 q 282 593 302 613 q 235 559 262 572 q 179 547 208 547 q 113 559 141 547 q 68 591 86 570 q 40 636 50 611 q 31 687 31 661 q 41 743 31 715 q 70 795 51 772 q 116 832 88 818 q 180 845 144 845 "},"Ġ":{"x_min":13.890625,"x_max":784.78125,"ha":811,"o":"m 784 632 l 784 1 q 652 -11 709 -8 q 556 -15 594 -15 q 327 25 429 -15 q 156 140 226 65 q 50 324 87 216 q 13 565 13 431 q 48 800 13 693 q 152 986 83 908 q 324 1109 220 1065 q 563 1152 427 1152 q 664 1145 622 1152 q 747 1125 707 1137 q 747 1076 747 1102 q 748 1019 748 1050 q 747 954 748 988 q 747 891 747 919 q 591 927 679 927 q 463 902 515 927 q 381 836 412 876 q 336 746 350 795 q 323 651 323 697 q 339 548 323 598 q 387 459 355 498 q 467 397 419 420 q 580 373 515 373 q 593 373 587 373 q 607 375 600 373 l 607 632 l 784 632 m 380 1304 q 418 1395 380 1365 q 502 1425 456 1425 q 586 1392 554 1425 q 619 1308 619 1359 q 582 1218 619 1251 q 497 1186 545 1186 q 454 1193 475 1186 q 416 1216 433 1201 q 390 1252 400 1230 q 380 1304 380 1275 "},"6":{"x_min":25,"x_max":798.671875,"ha":806,"o":"m 632 1136 q 454 928 527 1027 q 337 725 381 829 q 406 741 366 736 q 475 745 447 745 q 595 722 541 745 q 684 670 650 700 q 773 544 748 616 q 798 402 798 472 q 763 222 798 300 q 670 91 727 144 q 540 11 612 38 q 394 -15 468 -15 q 258 9 325 -15 q 139 83 191 33 q 56 210 87 133 q 25 393 25 287 q 46 577 25 477 q 108 775 68 676 q 206 968 148 875 q 336 1136 263 1062 l 632 1136 m 412 541 q 325 504 356 541 q 293 406 293 468 q 320 314 293 354 q 409 275 348 275 q 463 286 441 275 q 500 318 486 298 q 522 361 515 337 q 529 409 529 386 q 522 458 529 434 q 500 500 515 481 q 464 530 486 519 q 412 541 443 541 "},"n":{"x_min":34.71875,"x_max":602.828125,"ha":635,"o":"m 236 830 l 236 755 q 317 821 269 797 q 415 845 365 845 q 523 812 476 845 q 586 733 570 779 q 597 675 593 712 q 602 593 602 638 l 602 0 l 398 0 l 398 402 q 375 486 398 465 q 322 508 352 508 q 259 482 281 508 q 236 416 236 456 l 236 0 l 34 0 q 35 96 34 45 q 36 197 36 147 q 36 298 36 248 q 36 393 36 348 q 36 472 36 419 q 35 587 36 525 q 34 715 34 650 q 34 830 34 780 l 236 830 "},"ụ":{"x_min":33.34375,"x_max":608.375,"ha":638,"o":"m 400 0 l 400 73 q 319 9 366 33 q 223 -15 272 -15 q 164 -6 193 -15 q 112 18 136 2 q 71 54 88 33 q 45 101 54 76 q 36 157 40 120 q 33 236 33 194 l 33 830 l 237 830 l 237 413 q 256 347 237 372 q 309 323 276 323 q 343 330 326 323 q 374 348 361 337 q 395 375 387 359 q 404 406 404 390 l 404 830 l 608 830 q 605 734 607 784 q 602 632 604 683 q 600 531 601 581 q 600 437 600 481 q 600 358 600 411 q 600 243 600 305 q 601 115 601 180 q 601 0 601 50 l 400 0 m 327 -72 q 404 -105 377 -72 q 431 -179 431 -138 q 404 -252 431 -219 q 327 -284 377 -284 q 250 -252 277 -284 q 223 -179 223 -219 q 250 -105 223 -138 q 327 -72 277 -72 "},"ģ":{"x_min":13.890625,"x_max":713.953125,"ha":747,"o":"m 515 1037 q 511 986 515 1011 q 495 944 506 962 q 463 915 484 926 q 408 904 441 904 q 325 941 352 904 q 298 1038 298 979 q 310 1105 298 1070 q 343 1172 322 1140 q 394 1231 365 1204 q 458 1276 423 1258 l 504 1234 q 456 1182 473 1211 q 438 1125 438 1154 q 459 1068 438 1093 q 515 1037 480 1044 m 516 97 q 420 37 463 55 q 325 19 376 19 q 198 47 255 19 q 100 127 141 76 q 36 248 59 177 q 13 404 13 319 q 39 575 13 495 q 110 716 65 655 q 215 811 155 776 q 343 845 275 845 q 516 761 444 845 l 516 830 l 713 830 l 713 383 q 710 173 713 259 q 700 37 707 87 q 588 -188 679 -109 q 348 -266 497 -266 q 229 -252 286 -266 q 126 -212 173 -238 l 126 -41 q 329 -93 227 -93 q 468 -54 420 -93 q 516 56 516 -15 l 516 97 m 279 501 q 309 409 279 444 q 390 375 340 375 q 439 385 416 375 q 479 413 462 395 q 506 456 497 431 q 516 508 516 480 q 507 558 516 534 q 481 599 498 581 q 443 626 465 616 q 395 636 420 636 q 312 598 345 636 q 279 501 279 561 "},"Ǉ":{"x_min":34.71875,"x_max":1008.40625,"ha":1045,"o":"m 276 1136 q 270 822 272 945 q 266 614 268 698 q 265 473 265 530 q 265 358 265 416 l 455 366 q 459 276 458 320 q 461 187 461 231 q 459 95 461 141 q 455 1 458 50 l 34 1 q 40 399 38 195 q 43 797 43 602 q 43 972 43 887 q 41 1136 43 1057 l 276 1136 m 1008 594 q 1007 430 1008 495 q 1005 323 1007 365 q 1001 258 1004 281 q 995 216 998 234 q 906 48 977 112 q 704 -15 834 -15 q 622 -10 670 -15 q 529 6 575 -5 q 525 103 526 54 q 523 201 523 152 q 525 301 523 251 q 529 401 526 351 q 591 379 563 386 q 650 372 619 372 q 720 386 693 372 q 763 431 747 401 q 784 511 779 462 q 790 626 790 559 l 790 898 l 597 898 l 597 1136 l 1008 1136 l 1008 594 "},"¤":{"x_min":22.21875,"x_max":795.890625,"ha":818,"o":"m 416 91 q 268 126 333 91 l 152 11 l 23 138 l 143 258 q 112 406 112 327 q 141 547 112 484 l 22 665 l 151 794 l 268 675 q 413 705 333 705 q 551 677 491 705 l 668 794 l 795 665 l 679 548 q 708 405 708 486 q 677 254 708 320 l 795 137 l 668 9 l 554 122 q 416 91 493 91 m 413 229 q 482 243 452 229 q 533 280 512 256 q 564 335 554 304 q 575 402 575 366 q 534 525 575 475 q 413 575 493 575 q 290 525 334 575 q 245 402 245 476 q 256 335 245 366 q 290 280 268 304 q 343 243 312 256 q 413 229 373 229 "},"Ĝ":{"x_min":13.890625,"x_max":784.78125,"ha":811,"o":"m 784 632 l 784 1 q 652 -11 709 -8 q 556 -15 594 -15 q 327 25 429 -15 q 156 140 226 65 q 50 324 87 216 q 13 565 13 431 q 48 800 13 693 q 152 986 83 908 q 324 1109 220 1065 q 563 1152 427 1152 q 664 1145 622 1152 q 747 1125 707 1137 q 747 1076 747 1102 q 748 1019 748 1050 q 747 954 748 988 q 747 891 747 919 q 591 927 679 927 q 463 902 515 927 q 381 836 412 876 q 336 746 350 795 q 323 651 323 697 q 339 548 323 598 q 387 459 355 498 q 467 397 419 420 q 580 373 515 373 q 593 373 587 373 q 607 375 600 373 l 607 632 l 784 632 m 500 1451 l 737 1294 l 695 1200 l 500 1294 l 304 1200 l 262 1294 l 500 1451 "},"p":{"x_min":31.953125,"x_max":732,"ha":746,"o":"m 38 829 l 229 829 l 229 761 q 334 822 279 800 q 443 845 388 845 q 558 814 505 845 q 649 727 611 783 q 709 595 687 672 q 732 427 732 519 q 708 252 732 333 q 643 111 684 170 q 545 18 601 51 q 423 -15 488 -15 q 317 8 368 -15 q 229 68 266 31 l 229 -251 l 31 -251 l 38 829 m 229 501 q 260 409 229 444 q 340 375 291 375 q 429 412 393 375 q 466 508 466 450 q 457 558 466 534 q 431 599 448 581 q 393 626 415 616 q 347 636 372 636 q 262 598 295 636 q 229 501 229 561 "},"‡":{"x_min":26.390625,"x_max":620.890625,"ha":647,"o":"m 256 668 l 26 647 l 26 830 l 259 808 l 237 1136 l 409 1136 l 386 808 l 620 830 l 620 647 l 388 668 l 409 470 l 388 270 l 620 293 l 620 109 l 386 131 l 409 -195 l 237 -195 l 259 131 l 26 109 l 26 293 l 256 270 l 237 470 l 256 668 "},"ň":{"x_min":34.71875,"x_max":602.828125,"ha":635,"o":"m 236 830 l 236 755 q 317 821 269 797 q 415 845 365 845 q 523 812 476 845 q 586 733 570 779 q 597 675 593 712 q 602 593 602 638 l 602 0 l 398 0 l 398 402 q 375 486 398 465 q 322 508 352 508 q 259 482 281 508 q 236 416 236 456 l 236 0 l 34 0 q 35 96 34 45 q 36 197 36 147 q 36 298 36 248 q 36 393 36 348 q 36 472 36 419 q 35 587 36 525 q 34 715 34 650 q 34 830 34 780 l 236 830 m 79 1080 l 120 1175 l 316 1079 l 512 1175 l 554 1080 l 316 922 l 79 1080 "},"⁴":{"x_min":13.890625,"x_max":436.140625,"ha":454,"o":"m 386 1232 l 386 872 l 436 872 l 436 687 l 386 687 l 386 550 l 231 550 l 231 687 l 13 687 l 13 872 l 186 1232 l 386 1232 m 126 872 l 231 872 l 231 1105 l 126 872 "},"ę":{"x_min":12.5,"x_max":708.390625,"ha":725,"o":"m 548 -254 q 401 -284 461 -284 q 313 -258 345 -284 q 281 -187 281 -231 q 304 -104 281 -150 q 372 -11 327 -58 q 277 8 325 -5 q 186 51 230 22 q 99 132 133 86 q 45 228 65 179 q 19 325 26 277 q 12 409 12 372 q 25 525 12 465 q 66 641 38 586 q 137 741 94 695 q 238 813 180 787 q 388 845 309 845 q 538 812 472 845 q 647 720 605 779 q 697 597 687 665 q 708 437 708 529 l 319 437 q 379 340 337 377 q 494 302 420 302 q 542 306 516 302 q 593 316 568 309 q 640 329 618 322 q 679 344 662 337 q 682 259 682 304 q 683 169 683 213 q 679 37 683 95 q 488 -12 594 -4 q 429 -88 452 -48 q 406 -154 406 -127 q 437 -183 406 -183 q 484 -177 456 -183 q 538 -161 512 -172 l 548 -254 m 398 695 q 343 671 369 695 q 308 586 316 647 l 490 586 q 457 668 484 641 q 398 695 430 695 "},"S":{"x_min":15.28125,"x_max":632,"ha":639,"o":"m 23 854 q 57 1000 23 943 q 143 1092 91 1058 q 259 1139 195 1126 q 380 1152 322 1152 q 422 1151 397 1152 q 477 1147 448 1150 q 535 1139 505 1144 q 591 1126 565 1134 q 595 1059 594 1090 q 597 987 597 1027 q 595 910 597 947 q 591 840 594 873 q 563 844 580 841 q 527 848 545 847 q 489 851 508 850 q 454 852 470 852 q 356 832 387 852 q 326 775 326 811 q 336 735 326 754 q 361 700 345 716 q 397 668 377 683 q 438 638 418 652 q 506 586 472 615 q 568 518 540 558 q 613 427 595 479 q 632 306 632 375 q 601 156 632 218 q 522 57 570 95 q 416 2 475 19 q 298 -15 356 -15 q 234 -11 272 -15 q 156 -2 195 -8 q 83 13 118 4 q 27 34 48 22 q 18 86 22 59 q 15 144 15 112 q 17 198 15 166 q 22 263 19 230 q 28 327 25 297 q 34 379 31 358 q 79 360 50 370 q 142 340 108 350 q 211 323 176 330 q 272 316 245 316 q 338 335 316 316 q 361 386 361 354 q 336 447 361 420 q 273 501 311 475 q 192 557 236 527 q 111 627 148 587 q 48 722 73 668 q 23 854 23 777 "},"/":{"x_min":18.0625,"x_max":607,"ha":622,"o":"m 607 1136 l 179 -61 l 18 -61 l 445 1136 l 607 1136 "},"į":{"x_min":-8.328125,"x_max":286.140625,"ha":276,"o":"m 36 808 l 240 808 l 240 0 l 212 0 q 143 -82 170 -38 q 116 -154 116 -126 q 147 -183 116 -183 q 194 -177 166 -183 q 248 -161 222 -172 l 258 -254 q 111 -284 170 -284 q 23 -258 55 -284 q -8 -187 -8 -231 q 18 -97 -8 -147 q 94 0 45 -48 l 36 0 l 36 808 m 143 1152 q 203 1139 176 1152 q 248 1105 230 1126 q 276 1059 266 1084 q 286 1009 286 1033 q 274 950 286 977 q 242 903 262 923 q 196 871 222 883 q 141 859 170 859 q 77 871 105 859 q 31 902 50 883 q 3 945 12 920 q -5 997 -5 970 q 4 1051 -5 1023 q 34 1102 15 1079 q 80 1138 52 1125 q 143 1152 108 1152 "},"Ọ":{"x_min":18.0625,"x_max":826.453125,"ha":845,"o":"m 422 1152 q 727 1005 629 1152 q 826 577 826 858 q 729 138 826 293 q 422 -15 633 -15 q 241 24 318 -15 q 115 139 165 63 q 41 325 65 215 q 18 577 18 436 q 116 1007 18 862 q 422 1152 215 1152 m 422 343 q 500 363 466 343 q 556 418 534 383 q 590 503 579 454 q 601 612 601 552 q 590 722 601 672 q 556 811 579 773 q 500 869 534 848 q 422 890 466 890 q 345 868 377 890 q 289 809 312 847 q 255 721 266 772 q 244 612 244 670 q 255 503 244 552 q 289 418 266 454 q 345 363 312 383 q 422 343 377 343 m 423 -72 q 500 -105 473 -72 q 527 -179 527 -138 q 500 -252 527 -219 q 423 -284 473 -284 q 346 -252 373 -284 q 319 -179 319 -219 q 346 -105 319 -138 q 423 -72 373 -72 "},"Ŧ":{"x_min":23.609375,"x_max":575.046875,"ha":599,"o":"m 575 879 l 411 879 l 411 679 l 561 679 l 561 551 l 411 551 l 411 0 l 177 0 q 179 113 179 54 q 181 240 180 173 q 184 384 183 306 q 184 551 184 461 l 37 551 l 37 679 l 183 679 l 183 879 l 23 879 l 23 1136 l 575 1136 l 575 879 "},"Ṅ":{"x_min":37.5,"x_max":790.34375,"ha":829,"o":"m 591 1136 l 790 1136 q 786 568 786 852 q 790 0 786 283 l 522 0 l 227 679 l 227 0 l 37 0 q 41 284 40 143 q 43 568 43 425 q 41 852 43 711 q 37 1136 40 993 l 318 1136 l 591 458 l 591 1136 m 297 1304 q 335 1395 297 1365 q 419 1425 373 1425 q 503 1392 470 1425 q 536 1308 536 1359 q 499 1218 536 1251 q 413 1186 462 1186 q 370 1193 391 1186 q 333 1216 350 1201 q 306 1252 316 1230 q 297 1304 297 1275 "},"y":{"x_min":-8.328125,"x_max":636.15625,"ha":628,"o":"m 636 830 l 350 -251 l 140 -251 l 205 23 l -8 830 l 211 830 l 287 426 q 299 377 294 394 q 315 361 304 361 q 345 426 333 361 l 425 830 l 636 830 "},"≈":{"x_min":44.453125,"x_max":655.609375,"ha":700,"o":"m 44 715 q 127 747 86 738 q 211 755 169 755 q 280 747 245 755 q 350 728 315 738 q 419 709 384 718 q 488 701 454 701 q 572 709 530 701 q 655 741 613 718 l 655 566 q 572 534 613 543 q 488 526 530 526 q 419 534 454 526 q 350 553 384 543 q 280 572 315 563 q 211 580 245 580 q 127 572 169 580 q 44 540 86 563 l 44 715 m 44 387 q 127 419 86 411 q 211 427 169 427 q 280 419 245 427 q 350 400 315 411 q 419 381 384 390 q 488 373 454 373 q 572 381 530 373 q 655 413 613 390 l 655 238 q 572 206 613 215 q 488 198 530 198 q 419 206 454 198 q 350 225 384 215 q 280 244 315 236 q 211 252 245 252 q 127 244 169 252 q 44 212 86 236 l 44 387 "},"ǿ":{"x_min":-15.28125,"x_max":711.171875,"ha":690,"o":"m 348 845 q 570 759 493 845 l 625 830 l 711 830 l 611 700 q 663 415 663 595 q 591 95 663 205 q 348 -15 518 -15 q 125 69 201 -15 l 70 0 l -15 0 l 84 129 q 31 415 31 233 q 104 734 31 623 q 348 845 177 845 m 362 1168 l 565 1168 l 387 902 l 261 902 l 362 1168 m 234 440 q 240 395 234 416 q 259 355 247 373 l 409 551 q 348 570 383 570 q 263 530 291 570 q 234 440 234 490 m 348 311 q 397 322 376 311 q 433 351 419 333 q 454 392 447 369 q 461 440 461 415 q 451 494 461 469 l 313 315 q 348 311 330 311 "},"g":{"x_min":13.890625,"x_max":713.953125,"ha":747,"o":"m 516 97 q 420 37 463 55 q 325 19 376 19 q 198 47 255 19 q 100 127 141 76 q 36 248 59 177 q 13 404 13 319 q 39 575 13 495 q 110 716 65 655 q 215 811 155 776 q 343 845 275 845 q 516 761 444 845 l 516 830 l 713 830 l 713 383 q 710 173 713 259 q 700 37 707 87 q 588 -188 679 -109 q 348 -266 497 -266 q 229 -252 286 -266 q 126 -212 173 -238 l 126 -41 q 329 -93 227 -93 q 468 -54 420 -93 q 516 56 516 -15 l 516 97 m 279 501 q 309 409 279 444 q 390 375 340 375 q 439 385 416 375 q 479 413 462 395 q 506 456 497 431 q 516 508 516 480 q 507 558 516 534 q 481 599 498 581 q 443 626 465 616 q 395 636 420 636 q 312 598 345 636 q 279 501 279 561 "},"ĸ":{"x_min":27.78125,"x_max":691.71875,"ha":668,"o":"m 676 830 l 454 437 l 691 0 l 454 0 l 261 347 l 251 347 q 251 267 251 306 q 252 186 251 227 q 254 98 252 144 q 256 0 255 52 l 27 0 q 36 228 34 94 q 37 509 37 362 q 37 647 37 594 q 37 733 37 700 q 36 787 37 766 q 34 830 36 808 l 252 830 l 252 483 l 262 483 l 454 830 l 676 830 "},"²":{"x_min":25,"x_max":400.03125,"ha":428,"o":"m 400 1072 q 384 990 400 1025 q 345 929 369 955 q 294 881 322 902 q 242 838 266 859 q 200 796 218 818 q 181 747 183 775 l 388 755 q 393 703 391 730 q 394 650 394 676 q 394 599 394 623 q 391 550 394 575 l 25 550 l 25 701 q 39 784 25 750 q 75 844 54 818 q 121 891 95 870 q 168 929 147 911 q 203 968 188 948 q 218 1015 218 988 q 193 1064 218 1050 q 147 1079 169 1079 q 91 1062 119 1079 q 48 1020 63 1045 q 46 1065 47 1040 q 45 1115 45 1090 q 46 1157 45 1138 q 48 1198 47 1176 q 79 1225 61 1215 q 119 1241 98 1236 q 159 1249 140 1247 q 193 1251 179 1251 q 259 1243 223 1251 q 327 1216 295 1236 q 379 1161 358 1195 q 400 1072 400 1126 "},"–":{"x_min":34.71875,"x_max":608.375,"ha":645,"o":"m 605 586 q 606 529 605 556 q 608 473 608 501 q 606 418 608 445 q 605 363 605 391 l 37 363 q 34 419 34 391 q 34 475 34 447 q 34 530 34 502 q 37 586 34 558 l 605 586 "},"ë":{"x_min":12.5,"x_max":708.390625,"ha":725,"o":"m 319 437 q 379 340 337 377 q 494 302 420 302 q 542 306 516 302 q 593 316 568 309 q 640 329 618 322 q 679 344 662 337 q 682 259 682 304 q 683 169 683 213 q 679 37 683 95 q 436 -15 570 -15 q 309 -1 373 -15 q 186 51 245 12 q 99 132 133 86 q 45 228 65 179 q 19 325 26 277 q 12 409 12 372 q 25 525 12 465 q 66 641 38 586 q 137 741 94 695 q 238 813 180 787 q 388 845 309 845 q 538 812 472 845 q 647 720 605 779 q 697 597 687 665 q 708 437 708 529 l 319 437 m 398 695 q 343 671 369 695 q 308 586 316 647 l 490 586 q 457 668 484 641 q 398 695 430 695 m 158 1027 q 190 1105 158 1082 q 261 1129 223 1129 q 331 1100 305 1129 q 356 1027 356 1070 q 329 954 356 983 q 262 926 302 926 q 227 932 245 926 q 193 949 209 937 q 168 980 177 961 q 158 1027 158 1000 m 420 1029 q 429 1074 420 1055 q 453 1105 438 1093 q 486 1123 468 1118 q 522 1129 504 1129 q 593 1100 566 1129 q 619 1027 619 1070 q 592 954 619 983 q 525 926 565 926 q 490 932 508 926 q 456 949 472 937 q 430 980 440 961 q 420 1029 420 1000 "},"ƒ":{"x_min":-40.28125,"x_max":415.3125,"ha":438,"o":"m 284 38 q 236 -186 284 -106 q 70 -266 188 -266 q 27 -264 54 -266 q -29 -259 1 -262 q -37 -208 -34 -230 q -40 -163 -40 -186 q -37 -115 -40 -140 q -27 -55 -34 -91 q -14 -58 -23 -56 q 4 -60 -5 -59 q 25 -61 15 -61 q 40 -62 34 -62 q 79 -52 62 -62 q 95 -8 95 -43 l 95 444 l 31 444 l 31 736 l 95 736 l 95 836 q 101 974 95 920 q 129 1068 106 1027 q 197 1138 152 1109 q 304 1168 241 1168 q 347 1166 320 1168 q 405 1159 375 1163 q 413 1101 411 1138 q 415 1019 415 1063 q 413 931 415 975 q 404 854 411 887 q 390 857 400 855 q 370 859 380 858 q 350 859 359 859 q 336 859 340 859 q 295 841 305 859 q 284 765 284 822 l 284 736 l 393 736 l 393 444 l 284 444 l 284 38 "},"Ǆ":{"x_min":33.34375,"x_max":1586.234375,"ha":1600,"o":"m 33 1132 q 184 1148 112 1143 q 308 1152 256 1152 q 533 1119 430 1152 q 713 1000 636 1086 q 819 804 784 919 q 854 558 854 690 q 820 323 854 429 q 718 143 787 218 q 545 26 650 68 q 300 -15 441 -15 q 196 -12 268 -15 q 38 0 125 -9 q 40 124 40 63 q 42 243 41 184 q 43 362 43 302 q 43 486 43 422 q 40 834 43 668 q 33 1132 38 1001 m 302 922 q 277 920 288 922 q 254 918 265 919 q 252 788 252 852 q 252 658 252 723 q 253 590 252 626 q 254 516 254 554 q 256 439 255 477 q 258 368 258 401 q 283 364 270 365 q 305 363 295 363 q 400 386 356 363 q 477 446 444 408 q 527 536 509 484 q 545 645 545 587 q 534 738 545 688 q 493 827 522 787 q 418 895 465 868 q 302 922 372 922 m 915 0 q 904 129 904 59 q 908 209 904 172 q 919 284 912 247 l 1307 887 l 945 887 q 939 938 941 911 q 937 995 937 966 q 940 1070 937 1033 q 948 1136 943 1107 l 1568 1136 q 1573 1084 1570 1111 q 1575 1027 1575 1058 q 1573 974 1575 1004 q 1568 895 1572 944 l 1180 295 l 1576 295 q 1584 225 1582 263 q 1586 147 1586 187 q 1584 67 1586 105 q 1576 0 1582 29 l 915 0 m 1033 1357 l 1075 1451 l 1270 1355 l 1466 1451 l 1508 1357 l 1270 1198 l 1033 1357 "},"J":{"x_min":4.171875,"x_max":488.921875,"ha":525,"o":"m 488 594 q 488 430 488 495 q 486 323 487 365 q 481 258 484 281 q 476 216 479 234 q 386 48 458 112 q 184 -15 315 -15 q 103 -10 151 -15 q 9 6 55 -5 q 5 103 6 54 q 4 201 4 152 q 5 301 4 251 q 9 401 6 351 q 72 379 44 386 q 130 372 100 372 q 200 386 173 372 q 243 431 227 401 q 265 511 259 462 q 270 626 270 559 l 270 898 l 77 898 l 77 1136 l 488 1136 l 488 594 "},"Ã":{"x_min":-5.5625,"x_max":747.28125,"ha":742,"o":"m -5 0 l 200 1136 l 543 1136 l 747 0 l 512 0 l 477 227 l 263 227 l 230 0 l -5 0 m 301 476 l 440 476 l 370 934 l 301 476 m 118 1373 q 185 1403 154 1394 q 245 1412 216 1412 q 317 1400 284 1412 q 380 1373 350 1387 q 441 1345 411 1358 q 504 1333 470 1333 q 568 1348 533 1333 q 644 1398 604 1362 l 644 1248 q 568 1206 604 1218 q 502 1194 533 1194 q 433 1207 465 1194 q 370 1234 401 1219 q 308 1262 338 1250 q 244 1275 277 1275 q 184 1263 215 1275 q 118 1220 154 1251 l 118 1373 "},"ŷ":{"x_min":-8.328125,"x_max":636.15625,"ha":628,"o":"m 636 830 l 350 -251 l 140 -251 l 205 23 l -8 830 l 211 830 l 287 426 q 299 377 294 394 q 315 361 304 361 q 345 426 333 361 l 425 830 l 636 830 m 315 1175 l 552 1018 l 511 923 l 315 1018 l 119 923 l 77 1018 l 315 1175 "},"ŕ":{"x_min":33.34375,"x_max":454.203125,"ha":436,"o":"m 211 830 l 220 725 q 261 773 237 751 q 310 811 284 795 q 361 836 336 827 q 409 845 387 845 q 414 763 412 809 q 416 668 416 716 q 414 558 416 612 q 409 458 412 504 q 375 466 397 463 q 337 469 352 469 q 261 445 286 469 q 237 384 237 420 l 237 0 l 33 0 q 35 427 34 225 q 36 830 36 629 l 211 830 m 251 1168 l 454 1168 l 276 902 l 150 902 l 251 1168 "},"©":{"x_min":27.78125,"x_max":1015.359375,"ha":1043,"o":"m 302 579 q 319 688 302 638 q 368 775 336 738 q 446 831 400 811 q 554 851 493 851 q 611 847 583 851 q 669 832 640 843 l 663 693 q 620 704 641 701 q 576 707 598 707 q 525 702 548 707 q 482 684 501 697 q 453 648 463 670 q 443 591 443 626 q 480 497 443 526 q 568 469 518 469 q 668 488 613 469 l 668 318 q 614 309 640 312 q 563 306 588 306 q 372 379 441 306 q 302 579 302 452 m 536 183 q 697 215 630 183 q 808 301 765 247 q 871 427 851 355 q 891 577 891 498 q 870 727 891 658 q 805 848 850 797 q 693 929 761 900 q 531 959 625 959 q 370 932 441 959 q 251 854 300 904 q 177 736 202 805 q 152 583 152 666 q 176 429 152 501 q 247 302 200 356 q 368 215 295 247 q 536 183 440 183 m 525 65 q 311 106 404 65 q 156 217 219 147 q 60 381 93 287 q 27 580 27 475 q 61 779 27 688 q 160 934 95 869 q 318 1034 225 998 q 530 1070 411 1070 q 738 1034 648 1070 q 891 934 829 998 q 984 779 952 869 q 1015 584 1015 690 q 983 381 1015 476 q 889 217 951 287 q 736 106 827 147 q 525 65 644 65 "},"˘":{"x_min":27.78125,"x_max":433.375,"ha":461,"o":"m 433 1134 q 416 1048 433 1086 q 370 986 398 1011 q 306 947 343 961 q 230 934 269 934 q 154 947 190 934 q 90 986 118 961 q 45 1048 62 1011 q 27 1134 27 1086 l 123 1134 q 156 1050 126 1082 q 230 1018 186 1018 q 304 1050 275 1018 q 337 1134 334 1082 l 433 1134 "},"≥":{"x_min":51.390625,"x_max":607,"ha":643,"o":"m 607 304 l 607 170 l 51 170 l 51 304 l 607 304 m 607 431 l 51 431 l 51 565 l 477 565 l 51 784 l 51 948 l 607 644 l 607 431 "},"Ă":{"x_min":-5.5625,"x_max":747.28125,"ha":742,"o":"m -5 0 l 200 1136 l 543 1136 l 747 0 l 512 0 l 477 227 l 263 227 l 230 0 l -5 0 m 301 476 l 440 476 l 370 934 l 301 476 m 573 1411 q 556 1325 573 1362 q 511 1262 538 1287 q 446 1224 483 1237 q 370 1211 409 1211 q 294 1224 330 1211 q 230 1262 258 1237 q 185 1325 202 1287 q 168 1411 168 1362 l 263 1411 q 296 1326 266 1358 q 370 1294 326 1294 q 445 1326 415 1294 q 477 1411 475 1358 l 573 1411 "},"D":{"x_min":33.34375,"x_max":854.234375,"ha":868,"o":"m 33 1132 q 184 1148 112 1143 q 308 1152 256 1152 q 533 1119 430 1152 q 713 1000 636 1086 q 819 804 784 919 q 854 558 854 690 q 820 323 854 429 q 718 143 787 218 q 545 26 650 68 q 300 -15 441 -15 q 196 -12 268 -15 q 38 0 125 -9 q 40 124 40 63 q 42 243 41 184 q 43 362 43 302 q 43 486 43 422 q 40 834 43 668 q 33 1132 38 1001 m 302 922 q 277 920 288 922 q 254 918 265 919 q 252 788 252 852 q 252 658 252 723 q 253 590 252 626 q 254 516 254 554 q 256 439 255 477 q 258 368 258 401 q 283 364 270 365 q 305 363 295 363 q 400 386 356 363 q 477 446 444 408 q 527 536 509 484 q 545 645 545 587 q 534 738 545 688 q 493 827 522 787 q 418 895 465 868 q 302 922 372 922 "},"ł":{"x_min":-4.171875,"x_max":406.984375,"ha":403,"o":"m 312 1168 q 304 919 306 1044 q 300 661 301 794 l 406 697 l 406 541 l 298 504 q 298 331 298 404 q 298 209 298 259 q 298 126 298 159 q 298 70 298 93 q 299 32 298 48 q 300 0 300 16 l 91 0 q 95 195 94 87 q 98 437 97 302 l -4 402 l -4 558 l 98 593 q 98 736 98 673 q 98 847 98 798 q 97 937 98 897 q 97 1014 97 977 q 97 1088 97 1051 q 97 1168 97 1125 l 312 1168 "},"ÿ":{"x_min":-8.328125,"x_max":636.15625,"ha":628,"o":"m 636 830 l 350 -251 l 140 -251 l 205 23 l -8 830 l 211 830 l 287 426 q 299 377 294 394 q 315 361 304 361 q 345 426 333 361 l 425 830 l 636 830 m 84 1027 q 117 1105 84 1082 q 187 1129 150 1129 q 257 1100 231 1129 q 283 1027 283 1070 q 256 954 283 983 q 188 926 229 926 q 154 932 172 926 q 120 949 136 937 q 94 980 104 961 q 84 1027 84 1000 m 347 1029 q 356 1074 347 1055 q 379 1105 365 1093 q 412 1123 394 1118 q 448 1129 430 1129 q 519 1100 493 1129 q 545 1027 545 1070 q 518 954 545 983 q 451 926 491 926 q 416 932 434 926 q 382 949 398 937 q 356 980 366 961 q 347 1029 347 1000 "},"ĺ":{"x_min":30.5625,"x_max":358.359375,"ha":275,"o":"m 155 1451 l 358 1451 l 208 1213 l 81 1213 l 155 1451 m 251 1168 q 240 776 244 975 q 237 354 237 577 q 237 202 237 259 q 237 107 237 144 q 238 47 237 70 q 238 0 238 25 l 30 0 q 36 286 34 122 q 37 666 37 450 q 37 827 37 761 q 36 947 37 893 q 36 1052 36 1001 q 36 1168 36 1102 l 251 1168 "},"Ł":{"x_min":5.5625,"x_max":493.09375,"ha":511,"o":"m 279 1136 q 273 954 275 1062 q 272 732 272 847 l 416 780 l 416 625 l 269 575 l 269 358 l 487 366 q 491 276 490 320 q 493 187 493 231 q 491 95 493 141 q 487 0 490 48 l 38 0 q 43 247 41 120 q 45 500 44 373 l 5 486 l 5 641 l 47 655 q 47 825 47 752 q 47 954 47 898 q 46 1052 47 1009 q 45 1136 45 1095 l 279 1136 "},"$":{"x_min":29.171875,"x_max":490.3125,"ha":515,"o":"m 119 908 q 177 943 144 927 l 152 1136 l 348 1136 l 326 968 q 389 961 358 966 q 450 945 420 955 q 452 864 451 905 q 452 783 452 823 q 452 724 452 754 q 450 663 452 694 q 413 671 443 665 q 352 677 383 677 q 315 672 330 677 q 300 650 300 666 q 313 616 300 630 q 349 588 327 601 q 395 559 370 575 q 441 522 419 544 q 476 471 462 501 q 490 398 490 441 q 476 325 490 356 q 439 268 462 293 q 385 228 416 244 q 320 204 354 212 l 348 0 l 152 0 l 177 194 q 113 204 145 197 q 54 223 80 211 q 43 316 43 268 q 43 345 43 329 q 45 377 44 361 q 49 410 47 394 q 54 437 51 426 q 124 411 81 426 q 201 397 166 397 q 252 434 252 397 q 236 475 252 459 q 194 503 219 490 q 140 531 169 516 q 87 568 112 545 q 45 625 62 591 q 29 711 29 658 q 50 816 29 763 q 119 908 70 868 "},"w":{"x_min":0,"x_max":969.515625,"ha":968,"o":"m 969 830 l 811 0 l 554 0 l 484 419 l 416 0 l 161 0 l 0 830 l 208 830 l 265 388 q 275 345 269 359 q 295 330 281 330 q 312 344 306 330 q 322 388 318 358 l 390 830 l 579 830 l 651 388 q 661 345 655 359 q 680 330 668 330 q 707 388 701 330 l 761 830 l 969 830 "},"\\":{"x_min":15.28125,"x_max":604.21875,"ha":622,"o":"m 176 1136 l 604 -61 l 443 -61 l 15 1136 l 176 1136 "},"Ì":{"x_min":29.171875,"x_max":462.53125,"ha":493,"o":"m 137 393 l 137 618 q 136 769 137 707 q 136 884 136 832 l 33 884 q 30 947 31 916 q 29 1009 29 977 q 30 1073 29 1041 q 33 1136 31 1105 l 461 1136 q 462 1073 462 1104 q 462 1009 462 1041 q 462 947 462 977 q 461 884 462 916 l 359 884 q 356 701 356 791 q 355 500 355 611 l 355 393 l 461 393 q 462 294 462 343 q 462 195 462 245 q 462 97 462 147 q 461 0 462 48 l 33 0 q 30 97 31 48 q 29 195 29 147 q 30 294 29 245 q 33 393 31 343 l 137 393 m 336 1179 l 209 1179 l 31 1444 l 234 1444 l 336 1179 "},"Ç":{"x_min":13.890625,"x_max":694.5,"ha":717,"o":"m 537 1152 q 624 1146 587 1152 q 693 1129 661 1140 q 693 1079 693 1105 q 694 1022 694 1052 q 693 957 694 991 q 693 894 693 923 q 566 927 640 927 q 450 902 497 927 q 375 836 404 876 q 335 747 347 795 q 323 657 323 700 q 341 547 323 598 q 392 457 359 495 q 468 397 425 419 q 563 375 512 375 q 624 381 587 375 q 693 408 661 388 q 693 306 693 359 q 694 204 694 254 q 693 101 694 151 q 693 1 693 51 q 534 -15 615 -15 q 316 25 412 -15 q 152 140 219 65 q 49 324 84 216 q 13 565 13 431 q 47 800 13 693 q 146 986 80 908 q 310 1109 212 1065 q 537 1152 408 1152 m 594 -75 l 511 -284 l 377 -284 l 411 -76 l 594 -75 "},"Ŝ":{"x_min":15.28125,"x_max":632,"ha":639,"o":"m 23 854 q 57 1000 23 943 q 143 1092 91 1058 q 259 1139 195 1126 q 380 1152 322 1152 q 422 1151 397 1152 q 477 1147 448 1150 q 535 1139 505 1144 q 591 1126 565 1134 q 595 1059 594 1090 q 597 987 597 1027 q 595 910 597 947 q 591 840 594 873 q 563 844 580 841 q 527 848 545 847 q 489 851 508 850 q 454 852 470 852 q 356 832 387 852 q 326 775 326 811 q 336 735 326 754 q 361 700 345 716 q 397 668 377 683 q 438 638 418 652 q 506 586 472 615 q 568 518 540 558 q 613 427 595 479 q 632 306 632 375 q 601 156 632 218 q 522 57 570 95 q 416 2 475 19 q 298 -15 356 -15 q 234 -11 272 -15 q 156 -2 195 -8 q 83 13 118 4 q 27 34 48 22 q 18 86 22 59 q 15 144 15 112 q 17 198 15 166 q 22 263 19 230 q 28 327 25 297 q 34 379 31 358 q 79 360 50 370 q 142 340 108 350 q 211 323 176 330 q 272 316 245 316 q 338 335 316 316 q 361 386 361 354 q 336 447 361 420 q 273 501 311 475 q 192 557 236 527 q 111 627 148 587 q 48 722 73 668 q 23 854 23 777 m 380 1451 l 618 1294 l 576 1200 l 380 1294 l 184 1200 l 143 1294 l 380 1451 "},"C":{"x_min":13.890625,"x_max":694.5,"ha":717,"o":"m 537 1152 q 624 1146 587 1152 q 693 1129 661 1140 q 693 1079 693 1105 q 694 1022 694 1052 q 693 957 694 991 q 693 894 693 923 q 566 927 640 927 q 450 902 497 927 q 375 836 404 876 q 335 747 347 795 q 323 657 323 700 q 341 547 323 598 q 392 457 359 495 q 468 397 425 419 q 563 375 512 375 q 624 381 587 375 q 693 408 661 388 q 693 306 693 359 q 694 204 694 254 q 693 101 694 151 q 693 1 693 51 q 534 -15 615 -15 q 316 25 412 -15 q 152 140 219 65 q 49 324 84 216 q 13 565 13 431 q 47 800 13 693 q 146 986 80 908 q 310 1109 212 1065 q 537 1152 408 1152 "},"Ē":{"x_min":38.890625,"x_max":552.828125,"ha":576,"o":"m 552 -4 q 450 -2 513 -2 q 313 0 386 -1 q 167 0 240 0 q 38 0 94 0 q 40 77 40 29 q 41 188 41 126 q 41 324 41 251 q 41 475 41 397 q 40 686 41 580 q 40 882 40 791 q 39 1040 40 973 q 38 1134 38 1107 q 158 1134 93 1134 q 291 1135 223 1134 q 425 1137 359 1136 q 547 1140 490 1138 q 547 1109 547 1122 q 548 1072 548 1095 q 547 1032 548 1055 q 546 985 547 1009 q 545 936 545 961 q 543 891 544 912 l 263 891 l 263 730 l 506 730 l 506 523 l 263 523 l 263 368 l 547 368 q 550 302 548 336 q 552 227 551 269 q 552 129 552 186 q 552 -4 552 73 m 551 1382 l 551 1251 l 93 1251 l 93 1382 l 551 1382 "},"!":{"x_min":18.0625,"x_max":331.96875,"ha":356,"o":"m 331 1144 l 263 420 l 95 420 l 95 1168 l 331 1144 m 166 283 q 228 269 201 283 q 274 234 255 255 q 302 186 293 212 q 312 137 312 161 q 300 79 312 106 q 268 30 288 51 q 221 -2 248 9 q 165 -15 194 -15 q 100 -3 127 -15 q 54 28 72 8 q 27 73 36 48 q 18 125 18 98 q 27 181 18 152 q 56 232 37 209 q 102 269 75 255 q 166 283 130 283 "},"ç":{"x_min":13.890625,"x_max":568.09375,"ha":597,"o":"m 418 845 q 566 822 500 845 q 567 771 566 798 q 568 716 568 744 q 567 658 568 687 q 566 604 566 629 q 454 643 520 643 q 384 629 412 643 q 339 595 356 616 q 315 550 322 575 q 308 504 308 526 q 319 446 308 473 q 350 398 330 419 q 395 366 369 377 q 450 354 420 354 q 508 365 477 354 q 566 395 538 376 q 567 300 566 350 q 568 201 568 251 q 567 102 568 152 q 566 1 566 51 q 412 -15 488 -15 q 244 14 318 -15 q 119 100 170 44 q 40 235 68 155 q 13 413 13 315 q 38 586 13 506 q 114 723 63 666 q 240 813 165 780 q 418 845 316 845 m 488 -75 l 405 -284 l 272 -284 l 305 -76 l 488 -75 "},"ǋ":{"x_min":37.5,"x_max":1129.25,"ha":1113,"o":"m 591 1136 l 790 1136 q 786 568 786 852 q 790 0 786 283 l 522 0 l 227 679 l 227 0 l 37 0 q 41 284 40 143 q 43 568 43 425 q 41 852 43 711 q 37 1136 40 993 l 318 1136 l 591 458 l 591 1136 m 1076 -4 q 1073 -99 1076 -56 q 1058 -175 1070 -141 q 900 -266 1023 -266 q 872 -265 888 -266 q 838 -263 855 -265 q 804 -260 820 -262 q 779 -255 788 -258 q 772 -215 773 -236 q 770 -177 770 -194 q 773 -119 770 -148 q 782 -68 776 -90 q 806 -72 790 -70 q 832 -73 822 -73 q 877 -54 866 -73 q 887 20 887 -36 l 887 808 l 1076 808 l 1076 -4 m 986 1152 q 1046 1139 1019 1152 q 1091 1105 1073 1126 q 1119 1059 1109 1084 q 1129 1009 1129 1033 q 1117 950 1129 977 q 1085 903 1105 923 q 1039 871 1065 883 q 984 859 1013 859 q 920 871 948 859 q 874 902 893 883 q 846 945 855 920 q 837 997 837 970 q 847 1051 837 1023 q 877 1102 858 1079 q 923 1138 895 1125 q 986 1152 951 1152 "},"Ĵ":{"x_min":4.171875,"x_max":516.703125,"ha":525,"o":"m 488 594 q 488 430 488 495 q 486 323 487 365 q 481 258 484 281 q 476 216 479 234 q 386 48 458 112 q 184 -15 315 -15 q 103 -10 151 -15 q 9 6 55 -5 q 5 103 6 54 q 4 201 4 152 q 5 301 4 251 q 9 401 6 351 q 72 379 44 386 q 130 372 100 372 q 200 386 173 372 q 243 431 227 401 q 265 511 259 462 q 270 626 270 559 l 270 898 l 77 898 l 77 1136 l 488 1136 l 488 594 m 279 1451 l 516 1294 l 475 1200 l 279 1294 l 83 1200 l 41 1294 l 279 1451 "},"È":{"x_min":38.890625,"x_max":552.828125,"ha":576,"o":"m 552 -4 q 450 -2 513 -2 q 313 0 386 -1 q 167 0 240 0 q 38 0 94 0 q 40 77 40 29 q 41 188 41 126 q 41 324 41 251 q 41 475 41 397 q 40 686 41 580 q 40 882 40 791 q 39 1040 40 973 q 38 1134 38 1107 q 158 1134 93 1134 q 291 1135 223 1134 q 425 1137 359 1136 q 547 1140 490 1138 q 547 1109 547 1122 q 548 1072 548 1095 q 547 1032 548 1055 q 546 985 547 1009 q 545 936 545 961 q 543 891 544 912 l 263 891 l 263 730 l 506 730 l 506 523 l 263 523 l 263 368 l 547 368 q 550 302 548 336 q 552 227 551 269 q 552 129 552 186 q 552 -4 552 73 m 398 1179 l 272 1179 l 94 1444 l 297 1444 l 398 1179 "},"ﬁ":{"x_min":19.453125,"x_max":716.71875,"ha":707,"o":"m 466 808 l 670 808 l 670 0 l 466 0 l 466 808 m 573 1152 q 634 1139 607 1152 q 679 1105 661 1126 q 707 1059 697 1084 q 716 1009 716 1033 q 704 950 716 977 q 672 903 693 923 q 627 871 652 883 q 572 859 601 859 q 508 871 536 859 q 461 902 480 883 q 434 945 443 920 q 425 997 425 970 q 435 1051 425 1023 q 464 1102 445 1079 q 511 1138 483 1125 q 573 1152 538 1152 m 83 444 l 19 444 l 19 736 l 81 736 l 81 836 q 90 982 81 927 q 118 1072 98 1036 q 184 1143 141 1118 q 279 1168 226 1168 q 333 1166 318 1168 q 362 1159 348 1163 q 370 1008 370 1113 q 361 854 370 891 q 327 859 344 859 q 281 833 293 859 q 269 765 269 807 l 269 736 l 381 736 l 381 444 l 272 444 l 272 0 l 83 0 l 83 444 "},"X":{"x_min":-20.828125,"x_max":757,"ha":736,"o":"m 508 1136 l 754 1136 l 531 600 l 757 1 l 513 1 l 368 452 l 223 1 l -20 1 l 204 600 l -18 1136 l 227 1136 l 368 737 l 508 1136 "},"ô":{"x_min":16.671875,"x_max":648.65625,"ha":665,"o":"m 333 845 q 575 734 502 845 q 648 415 648 623 q 575 95 648 205 q 333 -15 502 -15 q 89 95 162 -15 q 16 415 16 205 q 89 734 16 623 q 333 845 162 845 m 333 311 q 382 322 361 311 q 418 351 404 333 q 438 392 431 369 q 445 440 445 415 q 438 488 445 465 q 418 530 431 512 q 382 559 404 548 q 333 570 361 570 q 247 530 276 570 q 219 440 219 490 q 226 392 219 415 q 247 351 233 369 q 283 322 262 333 q 333 311 304 311 m 333 1175 l 570 1018 l 529 923 l 333 1018 l 137 923 l 95 1018 l 333 1175 "},"Ė":{"x_min":38.890625,"x_max":552.828125,"ha":576,"o":"m 552 -4 q 450 -2 513 -2 q 313 0 386 -1 q 167 0 240 0 q 38 0 94 0 q 40 77 40 29 q 41 188 41 126 q 41 324 41 251 q 41 475 41 397 q 40 686 41 580 q 40 882 40 791 q 39 1040 40 973 q 38 1134 38 1107 q 158 1134 93 1134 q 291 1135 223 1134 q 425 1137 359 1136 q 547 1140 490 1138 q 547 1109 547 1122 q 548 1072 548 1095 q 547 1032 548 1055 q 546 985 547 1009 q 545 936 545 961 q 543 891 544 912 l 263 891 l 263 730 l 506 730 l 506 523 l 263 523 l 263 368 l 547 368 q 550 302 548 336 q 552 227 551 269 q 552 129 552 186 q 552 -4 552 73 m 191 1304 q 229 1395 191 1365 q 313 1425 268 1425 q 397 1392 365 1425 q 430 1308 430 1359 q 393 1218 430 1251 q 308 1186 356 1186 q 265 1193 286 1186 q 227 1216 244 1201 q 201 1252 211 1230 q 191 1304 191 1275 "},"Ā":{"x_min":-5.5625,"x_max":747.28125,"ha":742,"o":"m -5 0 l 200 1136 l 543 1136 l 747 0 l 512 0 l 477 227 l 263 227 l 230 0 l -5 0 m 301 476 l 440 476 l 370 934 l 301 476 m 611 1382 l 611 1251 l 152 1251 l 152 1382 l 611 1382 "},"ċ":{"x_min":13.890625,"x_max":568.09375,"ha":597,"o":"m 418 845 q 566 822 500 845 q 567 771 566 798 q 568 716 568 744 q 567 658 568 687 q 566 604 566 629 q 454 643 520 643 q 384 629 412 643 q 339 595 356 616 q 315 550 322 575 q 308 504 308 526 q 319 446 308 473 q 350 398 330 419 q 395 366 369 377 q 450 354 420 354 q 508 365 477 354 q 566 395 538 376 q 567 300 566 350 q 568 201 568 251 q 567 102 568 152 q 566 1 566 51 q 412 -15 488 -15 q 244 14 318 -15 q 119 100 170 44 q 40 235 68 155 q 13 413 13 315 q 38 586 13 506 q 114 723 63 666 q 240 813 165 780 q 418 845 316 845 m 230 1027 q 268 1118 230 1088 q 352 1148 306 1148 q 436 1116 404 1148 q 469 1032 469 1083 q 432 942 469 975 q 347 909 395 909 q 304 917 325 909 q 266 939 283 925 q 240 976 250 954 q 230 1027 230 998 "},"đ":{"x_min":13.890625,"x_max":798.671875,"ha":746,"o":"m 712 1086 l 798 1086 l 798 930 l 712 930 l 712 0 l 516 0 l 516 68 q 411 6 466 27 q 302 -15 355 -15 q 187 15 240 -15 q 96 100 134 45 q 36 231 58 155 q 13 398 13 308 q 37 575 13 493 q 102 717 61 657 q 199 811 143 777 q 320 845 255 845 q 429 821 377 845 q 516 761 480 797 l 516 930 l 331 930 l 331 1086 l 516 1086 l 516 1168 l 713 1168 l 712 1086 m 279 501 q 310 409 279 444 q 390 375 341 375 q 479 412 443 375 q 516 508 516 450 q 507 558 516 534 q 481 599 498 581 q 443 626 465 616 q 395 636 420 636 q 312 598 345 636 q 279 501 279 561 "},"Ẃ":{"x_min":-1.390625,"x_max":1125.09375,"ha":1128,"o":"m 894 1136 l 1125 1136 l 955 0 l 682 0 l 561 608 l 440 0 l 173 0 l -1 1136 l 229 1136 l 316 359 l 475 1126 l 652 1134 l 809 359 l 894 1136 m 575 1444 l 777 1444 l 600 1179 l 473 1179 l 575 1444 "},"Ŀ":{"x_min":36.109375,"x_max":619.5,"ha":614,"o":"m 277 1136 q 271 822 273 945 q 268 614 269 698 q 266 473 266 530 q 266 358 266 416 l 484 366 q 488 276 487 320 q 490 187 490 231 q 488 95 490 141 q 484 0 487 48 l 36 0 q 42 398 40 194 q 44 797 44 602 q 44 972 44 887 q 43 1136 44 1057 l 277 1136 m 473 783 q 535 769 508 783 q 581 734 562 755 q 609 686 600 712 q 619 637 619 661 q 607 579 619 607 q 575 530 595 551 q 528 497 555 509 q 472 484 501 484 q 406 496 434 484 q 361 528 379 508 q 334 573 343 548 q 325 625 325 598 q 334 681 325 652 q 363 732 344 709 q 409 769 381 755 q 473 783 437 783 "},"ț":{"x_min":20.828125,"x_max":401.421875,"ha":421,"o":"m 104 991 l 294 991 l 294 830 l 401 830 l 401 461 l 291 461 l 291 266 q 301 190 291 209 q 345 172 311 172 q 372 173 355 172 q 397 177 388 175 q 400 138 400 168 q 400 77 400 108 q 400 29 400 51 q 398 0 400 8 q 361 -4 381 -2 q 322 -8 341 -6 q 288 -10 304 -9 q 262 -11 272 -11 q 180 8 212 -11 q 130 60 148 27 q 105 134 112 93 q 98 218 98 175 q 99 267 98 234 q 100 336 100 300 q 102 406 101 372 q 104 461 104 440 l 20 461 l 20 830 l 104 830 l 104 991 m 350 -76 l 266 -284 l 133 -284 l 166 -76 l 350 -76 "},"ŋ":{"x_min":34.71875,"x_max":602.828125,"ha":636,"o":"m 236 830 l 236 755 q 317 821 269 797 q 413 845 365 845 q 472 836 444 845 q 525 812 501 827 q 565 775 548 797 q 590 729 581 754 q 600 672 597 709 q 602 593 602 636 l 602 -23 q 595 -118 602 -73 q 566 -195 587 -162 q 509 -248 545 -229 q 416 -268 473 -268 q 365 -265 398 -268 q 300 -256 331 -263 q 290 -175 290 -222 q 301 -79 290 -126 q 325 -83 309 -81 q 351 -84 341 -84 q 391 -67 383 -84 q 398 0 398 -50 l 398 425 q 378 484 398 461 q 325 506 358 506 q 264 485 293 506 q 236 430 236 463 l 236 0 l 34 0 q 35 96 34 45 q 36 197 36 147 q 36 298 36 248 q 36 393 36 348 q 36 472 36 419 q 35 587 36 525 q 34 715 34 650 q 34 830 34 780 l 236 830 "},"}":{"x_min":13.890625,"x_max":400.03125,"ha":394,"o":"m 13 1213 l 81 1213 q 154 1200 119 1213 q 214 1161 188 1187 q 256 1096 240 1136 q 272 1004 272 1057 l 272 754 q 308 655 272 691 q 400 619 344 619 l 400 494 q 308 455 344 494 q 272 345 272 416 l 272 95 q 256 3 272 43 q 214 -61 240 -36 q 154 -100 188 -87 q 81 -113 119 -113 l 13 -113 l 13 33 l 45 33 q 107 58 88 33 q 126 133 126 83 l 126 393 q 156 512 126 476 q 229 554 186 548 l 229 559 q 156 602 186 562 q 126 707 126 643 l 126 966 q 107 1041 126 1016 q 45 1066 88 1066 l 13 1066 l 13 1213 "},"â":{"x_min":13.890625,"x_max":713.953125,"ha":746,"o":"m 707 0 l 516 0 l 516 68 q 411 6 466 27 q 302 -15 355 -15 q 187 15 240 -15 q 96 100 134 45 q 36 231 58 155 q 13 398 13 308 q 37 575 13 493 q 102 717 61 657 q 199 811 143 777 q 320 845 255 845 q 429 821 377 845 q 516 761 480 797 l 516 830 l 713 830 l 707 0 m 279 501 q 310 409 279 444 q 390 375 341 375 q 479 412 443 375 q 516 508 516 450 q 507 558 516 534 q 481 599 498 581 q 443 626 465 616 q 395 636 420 636 q 312 598 345 636 q 279 501 279 561 m 411 1175 l 648 1018 l 607 923 l 411 1018 l 215 923 l 173 1018 l 411 1175 "},"ø":{"x_min":-15.28125,"x_max":711.171875,"ha":690,"o":"m 348 845 q 570 759 493 845 l 625 830 l 711 830 l 611 700 q 663 415 663 595 q 591 95 663 205 q 348 -15 518 -15 q 125 69 201 -15 l 70 0 l -15 0 l 84 129 q 31 415 31 233 q 104 734 31 623 q 348 845 177 845 m 234 440 q 240 395 234 416 q 259 355 247 373 l 409 551 q 348 570 383 570 q 263 530 291 570 q 234 440 234 490 m 348 311 q 397 322 376 311 q 433 351 419 333 q 454 392 447 369 q 461 440 461 415 q 451 494 461 469 l 313 315 q 348 311 330 311 "},"‰":{"x_min":23.609375,"x_max":1326.5,"ha":1349,"o":"m 130 0 l 666 1136 l 794 1136 l 258 0 l 130 0 m 220 1152 q 364 1078 316 1152 q 412 868 412 1004 q 363 654 412 729 q 216 579 313 579 q 71 653 119 579 q 23 861 23 727 q 75 1078 23 1004 q 220 1152 127 1152 m 218 738 q 281 777 259 738 q 302 872 302 816 q 281 963 302 927 q 219 998 259 998 q 156 963 179 998 q 134 870 134 927 q 156 777 134 816 q 218 738 177 738 m 704 558 q 847 484 800 558 q 895 273 895 409 q 846 59 895 134 q 700 -15 797 -15 q 554 59 602 -15 q 506 266 506 133 q 559 484 506 409 q 704 558 611 558 m 701 144 q 764 183 743 144 q 786 277 786 222 q 764 368 786 333 q 702 404 743 404 q 640 368 662 404 q 618 276 618 333 q 639 183 618 222 q 701 144 661 144 m 1134 558 q 1278 484 1230 558 q 1326 273 1326 409 q 1277 59 1326 134 q 1130 -15 1227 -15 q 985 59 1033 -15 q 937 266 937 133 q 989 484 937 409 q 1134 558 1041 558 m 1132 144 q 1195 183 1173 144 q 1216 277 1216 222 q 1195 368 1216 333 q 1133 404 1173 404 q 1070 368 1093 404 q 1048 276 1048 333 q 1070 183 1048 222 q 1132 144 1091 144 "},"Ä":{"x_min":-5.5625,"x_max":747.28125,"ha":742,"o":"m -5 0 l 200 1136 l 543 1136 l 747 0 l 512 0 l 477 227 l 263 227 l 230 0 l -5 0 m 301 476 l 440 476 l 370 934 l 301 476 m 140 1304 q 172 1382 140 1358 q 243 1405 205 1405 q 313 1376 287 1405 q 338 1304 338 1347 q 311 1231 338 1259 q 244 1202 284 1202 q 209 1208 227 1202 q 175 1225 191 1213 q 150 1257 159 1237 q 140 1304 140 1276 m 402 1305 q 411 1350 402 1332 q 435 1382 420 1369 q 468 1400 450 1394 q 504 1405 486 1405 q 575 1376 548 1405 q 601 1304 601 1347 q 574 1231 601 1259 q 506 1202 547 1202 q 472 1208 490 1202 q 438 1225 454 1213 q 412 1257 422 1237 q 402 1305 402 1276 "},"Ṣ":{"x_min":15.28125,"x_max":632,"ha":639,"o":"m 23 854 q 57 1000 23 943 q 143 1092 91 1058 q 259 1139 195 1126 q 380 1152 322 1152 q 422 1151 397 1152 q 477 1147 448 1150 q 535 1139 505 1144 q 591 1126 565 1134 q 595 1059 594 1090 q 597 987 597 1027 q 595 910 597 947 q 591 840 594 873 q 563 844 580 841 q 527 848 545 847 q 489 851 508 850 q 454 852 470 852 q 356 832 387 852 q 326 775 326 811 q 336 735 326 754 q 361 700 345 716 q 397 668 377 683 q 438 638 418 652 q 506 586 472 615 q 568 518 540 558 q 613 427 595 479 q 632 306 632 375 q 601 156 632 218 q 522 57 570 95 q 416 2 475 19 q 298 -15 356 -15 q 234 -11 272 -15 q 156 -2 195 -8 q 83 13 118 4 q 27 34 48 22 q 18 86 22 59 q 15 144 15 112 q 17 198 15 166 q 22 263 19 230 q 28 327 25 297 q 34 379 31 358 q 79 360 50 370 q 142 340 108 350 q 211 323 176 330 q 272 316 245 316 q 338 335 316 316 q 361 386 361 354 q 336 447 361 420 q 273 501 311 475 q 192 557 236 527 q 111 627 148 587 q 48 722 73 668 q 23 854 23 777 m 300 -72 q 377 -105 350 -72 q 404 -179 404 -138 q 377 -252 404 -219 q 300 -284 350 -284 q 222 -252 250 -284 q 195 -179 195 -219 q 222 -105 195 -138 q 300 -72 250 -72 "},"ř":{"x_min":0,"x_max":475.03125,"ha":436,"o":"m 211 830 l 220 725 q 261 773 237 751 q 310 811 284 795 q 361 836 336 827 q 409 845 387 845 q 414 763 412 809 q 416 668 416 716 q 414 558 416 612 q 409 458 412 504 q 375 466 397 463 q 337 469 352 469 q 261 445 286 469 q 237 384 237 420 l 237 0 l 33 0 q 35 427 34 225 q 36 830 36 629 l 211 830 m 0 1080 l 41 1175 l 237 1079 l 433 1175 l 475 1080 l 237 922 l 0 1080 "},"—":{"x_min":34.71875,"x_max":859.796875,"ha":897,"o":"m 858 586 q 859 529 858 556 q 859 473 859 501 q 859 418 859 445 q 858 363 858 391 l 37 363 q 34 419 34 391 q 34 475 34 447 q 34 530 34 502 q 37 586 34 558 l 858 586 "},"N":{"x_min":37.5,"x_max":790.34375,"ha":829,"o":"m 591 1136 l 790 1136 q 786 568 786 852 q 790 0 786 283 l 522 0 l 227 679 l 227 0 l 37 0 q 41 284 40 143 q 43 568 43 425 q 41 852 43 711 q 37 1136 40 993 l 318 1136 l 591 458 l 591 1136 "},"⁄":{"x_min":-11.109375,"x_max":544.484375,"ha":535,"o":"m 544 1134 q 440 845 495 998 q 329 535 384 691 q 219 227 273 379 q 118 -58 165 75 l -11 -5 q 51 165 16 69 q 124 369 86 262 q 202 588 162 476 q 278 809 241 701 q 347 1013 315 916 q 405 1187 380 1111 l 544 1134 "},"2":{"x_min":25,"x_max":648.65625,"ha":674,"o":"m 648 854 q 621 722 648 777 q 552 625 594 668 q 462 549 511 583 q 372 483 413 515 q 300 416 330 451 q 268 336 270 380 l 630 350 q 636 261 633 306 q 640 172 640 216 q 636 0 640 84 l 25 0 l 25 261 q 48 393 25 337 q 108 489 72 448 q 185 561 144 530 q 262 622 226 593 q 322 684 298 652 q 345 759 345 716 q 334 807 345 787 q 306 840 323 827 q 268 859 288 852 q 229 865 247 865 q 136 837 180 865 q 65 768 91 809 q 61 843 62 801 q 59 925 59 884 q 61 996 59 965 q 65 1063 62 1027 q 115 1109 84 1091 q 181 1136 147 1126 q 247 1149 215 1145 q 304 1152 280 1152 q 416 1139 355 1152 q 527 1092 476 1126 q 613 1000 579 1058 q 648 854 648 943 "},"ü":{"x_min":33.34375,"x_max":608.375,"ha":638,"o":"m 400 0 l 400 73 q 319 9 366 33 q 223 -15 272 -15 q 164 -6 193 -15 q 112 18 136 2 q 71 54 88 33 q 45 101 54 76 q 36 157 40 120 q 33 236 33 194 l 33 830 l 237 830 l 237 413 q 256 347 237 372 q 309 323 276 323 q 343 330 326 323 q 374 348 361 337 q 395 375 387 359 q 404 406 404 390 l 404 830 l 608 830 q 605 734 607 784 q 602 632 604 683 q 600 531 601 581 q 600 437 600 481 q 600 358 600 411 q 600 243 600 305 q 601 115 601 180 q 601 0 601 50 l 400 0 m 90 1027 q 122 1105 90 1082 q 193 1129 155 1129 q 263 1100 237 1129 q 288 1027 288 1070 q 261 954 288 983 q 194 926 234 926 q 159 932 177 926 q 125 949 141 937 q 100 980 109 961 q 90 1027 90 1000 m 352 1029 q 361 1074 352 1055 q 385 1105 370 1093 q 418 1123 400 1118 q 454 1129 436 1129 q 525 1100 498 1129 q 551 1027 551 1070 q 524 954 551 983 q 456 926 497 926 q 422 932 440 926 q 388 949 404 937 q 362 980 372 961 q 352 1029 352 1000 "},"˜":{"x_min":27.78125,"x_max":554.21875,"ha":582,"o":"m 27 1097 q 95 1127 63 1118 q 155 1136 126 1136 q 227 1123 194 1136 q 290 1096 259 1111 q 350 1069 320 1082 q 413 1057 380 1057 q 478 1071 443 1057 q 554 1122 513 1086 l 554 972 q 478 929 513 941 q 412 918 443 918 q 343 930 375 918 q 279 958 311 943 q 218 986 248 973 q 154 998 187 998 q 94 986 125 998 q 27 944 63 975 l 27 1097 "},"Ó":{"x_min":18.0625,"x_max":826.453125,"ha":845,"o":"m 422 1152 q 727 1005 629 1152 q 826 577 826 858 q 729 138 826 293 q 422 -15 633 -15 q 241 24 318 -15 q 115 139 165 63 q 41 325 65 215 q 18 577 18 436 q 116 1007 18 862 q 422 1152 215 1152 m 422 343 q 500 363 466 343 q 556 418 534 383 q 590 503 579 454 q 601 612 601 552 q 590 722 601 672 q 556 811 579 773 q 500 869 534 848 q 422 890 466 890 q 345 868 377 890 q 289 809 312 847 q 255 721 266 772 q 244 612 244 670 q 255 503 244 552 q 289 418 266 454 q 345 363 312 383 q 422 343 377 343 m 436 1444 l 638 1444 l 461 1179 l 334 1179 l 436 1444 "},"ˇ":{"x_min":27.78125,"x_max":502.8125,"ha":531,"o":"m 27 1080 l 69 1175 l 265 1079 l 461 1175 l 502 1080 l 265 922 l 27 1080 "},"Ÿ":{"x_min":-12.5,"x_max":759.78125,"ha":746,"o":"m 530 1136 l 759 1136 l 488 416 l 488 354 q 488 202 488 259 q 488 107 488 144 q 489 47 488 70 q 490 0 490 25 l 250 0 q 254 188 252 90 q 256 416 255 287 l -12 1136 l 218 1136 l 373 662 l 530 1136 m 141 1304 q 174 1382 141 1358 q 244 1405 206 1405 q 314 1376 288 1405 q 340 1304 340 1347 q 313 1231 340 1259 q 245 1202 286 1202 q 211 1208 229 1202 q 177 1225 193 1213 q 151 1257 161 1237 q 141 1304 141 1276 m 404 1305 q 413 1350 404 1332 q 436 1382 422 1369 q 469 1400 451 1394 q 505 1405 487 1405 q 576 1376 550 1405 q 602 1304 602 1347 q 575 1231 602 1259 q 508 1202 548 1202 q 473 1208 491 1202 q 439 1225 455 1213 q 413 1257 423 1237 q 404 1305 404 1276 "},"ų":{"x_min":33.34375,"x_max":647.28125,"ha":638,"o":"m 647 -254 q 500 -284 559 -284 q 412 -258 444 -284 q 380 -187 380 -231 q 407 -97 380 -147 q 483 0 434 -48 l 400 0 l 400 73 q 319 9 366 33 q 223 -15 272 -15 q 164 -6 193 -15 q 112 18 136 2 q 71 54 88 33 q 45 101 54 76 q 36 157 40 120 q 33 236 33 194 l 33 830 l 237 830 l 237 413 q 256 347 237 372 q 309 323 276 323 q 343 330 326 323 q 374 348 361 337 q 395 375 387 359 q 404 406 404 390 l 404 830 l 608 830 q 605 734 607 784 q 602 632 604 683 q 600 531 601 581 q 600 437 600 481 q 600 358 600 411 q 600 243 600 305 q 601 115 601 180 q 601 0 601 50 q 532 -82 559 -38 q 505 -154 505 -126 q 536 -183 505 -183 q 583 -177 555 -183 q 637 -161 611 -172 l 647 -254 "},"€":{"x_min":25,"x_max":776.453125,"ha":801,"o":"m 347 615 q 345 590 345 602 q 345 565 345 577 q 345 540 345 552 q 347 515 345 527 l 704 515 l 704 363 l 375 363 q 451 252 400 297 q 595 208 502 208 q 743 231 659 208 l 776 22 q 555 -15 657 -15 q 294 77 398 -15 q 154 363 190 169 l 25 363 l 25 515 l 137 515 q 136 540 136 527 q 136 565 136 552 q 136 590 136 577 q 137 615 136 602 l 25 615 l 25 765 l 150 765 q 288 1058 183 963 q 555 1152 394 1152 q 776 1115 657 1152 l 743 905 q 665 923 702 918 q 595 929 627 929 q 509 916 547 929 q 445 882 472 904 q 400 830 418 861 q 370 765 381 800 l 704 765 l 704 615 l 347 615 "},"Ŭ":{"x_min":27.78125,"x_max":800.0625,"ha":829,"o":"m 786 1137 q 794 786 788 934 q 800 534 800 638 q 795 399 800 466 q 777 270 791 331 q 738 157 763 209 q 670 66 712 105 q 565 6 627 27 q 416 -15 502 -15 q 264 7 327 -15 q 158 69 201 30 q 89 161 115 108 q 50 276 63 215 q 31 402 36 337 q 27 533 27 468 q 29 643 27 584 q 33 773 30 701 q 39 934 36 845 q 47 1136 43 1023 l 291 1136 q 284 924 287 1011 q 279 779 281 837 q 277 686 277 720 q 275 634 276 652 q 275 609 275 616 q 275 597 275 601 q 305 394 275 462 q 415 326 336 326 q 524 400 495 326 q 552 623 552 473 q 552 639 552 630 q 552 668 552 648 q 550 720 551 687 q 547 807 550 752 q 543 942 545 862 q 536 1136 540 1022 l 786 1137 m 618 1411 q 600 1325 618 1362 q 555 1262 583 1287 q 491 1224 527 1237 q 415 1211 454 1211 q 338 1224 375 1211 q 275 1262 302 1237 q 229 1325 247 1287 q 212 1411 212 1362 l 308 1411 q 341 1326 311 1358 q 415 1294 370 1294 q 489 1326 459 1294 q 522 1411 519 1358 l 618 1411 "},"ĝ":{"x_min":13.890625,"x_max":713.953125,"ha":747,"o":"m 516 97 q 420 37 463 55 q 325 19 376 19 q 198 47 255 19 q 100 127 141 76 q 36 248 59 177 q 13 404 13 319 q 39 575 13 495 q 110 716 65 655 q 215 811 155 776 q 343 845 275 845 q 516 761 444 845 l 516 830 l 713 830 l 713 383 q 710 173 713 259 q 700 37 707 87 q 588 -188 679 -109 q 348 -266 497 -266 q 229 -252 286 -266 q 126 -212 173 -238 l 126 -41 q 329 -93 227 -93 q 468 -54 420 -93 q 516 56 516 -15 l 516 97 m 279 501 q 309 409 279 444 q 390 375 340 375 q 439 385 416 375 q 479 413 462 395 q 506 456 497 431 q 516 508 516 480 q 507 558 516 534 q 481 599 498 581 q 443 626 465 616 q 395 636 420 636 q 312 598 345 636 q 279 501 279 561 m 411 1175 l 648 1018 l 607 923 l 411 1018 l 215 923 l 173 1018 l 411 1175 "},"ß":{"x_min":19.453125,"x_max":783.390625,"ha":782,"o":"m 666 916 q 650 821 666 857 q 613 759 633 786 q 576 709 593 733 q 559 648 559 684 q 576 591 559 613 q 618 549 593 568 q 671 510 643 530 q 725 460 700 490 q 766 388 750 430 q 783 280 783 345 q 765 161 783 215 q 714 67 747 106 q 635 6 682 27 q 531 -15 588 -15 q 486 -12 511 -15 q 438 -5 462 -9 q 393 4 415 -1 q 355 18 370 11 q 336 201 336 91 q 341 310 336 256 q 354 406 345 363 q 420 374 387 386 q 479 362 452 362 q 522 376 506 362 q 537 412 537 390 q 513 460 537 441 q 462 500 490 479 q 411 548 434 520 q 387 623 387 576 q 404 695 387 662 q 441 757 420 727 q 477 818 461 787 q 494 884 494 848 q 467 953 494 929 q 391 977 440 977 q 299 925 326 977 q 272 747 272 872 l 272 -111 l 83 -111 l 83 444 l 19 444 l 19 736 l 81 736 l 81 813 q 161 1076 81 984 q 391 1168 241 1168 q 594 1100 522 1168 q 666 916 666 1033 "},"s":{"x_min":13.890625,"x_max":525.046875,"ha":532,"o":"m 113 779 q 215 831 161 816 q 325 845 269 845 q 404 838 365 845 q 480 820 444 832 q 484 682 483 736 q 484 600 484 629 q 483 541 484 558 q 480 508 481 523 q 466 511 477 508 q 440 516 455 513 q 407 521 425 519 q 373 523 390 523 q 331 517 348 523 q 313 493 313 511 q 325 464 313 477 q 352 438 336 451 q 386 413 368 425 q 422 391 405 401 q 492 324 459 366 q 525 212 525 281 q 497 108 525 151 q 429 37 470 65 q 335 -2 387 9 q 233 -15 283 -15 q 188 -13 213 -15 q 138 -8 163 -12 q 87 2 112 -4 q 41 18 62 8 q 31 68 34 41 q 29 122 29 95 q 29 152 29 134 q 31 189 30 170 q 36 226 33 208 q 41 256 38 244 q 77 242 56 250 q 119 227 97 234 q 163 215 141 220 q 204 211 184 211 q 247 222 231 211 q 262 252 262 233 q 252 282 262 269 q 229 307 243 295 q 198 328 215 319 q 168 344 181 337 q 113 375 141 358 q 63 416 86 391 q 27 475 41 440 q 13 559 13 509 q 36 676 13 618 q 113 779 59 734 "},"Ű":{"x_min":27.78125,"x_max":800.0625,"ha":829,"o":"m 786 1137 q 794 786 788 934 q 800 534 800 638 q 795 399 800 466 q 777 270 791 331 q 738 157 763 209 q 670 66 712 105 q 565 6 627 27 q 416 -15 502 -15 q 264 7 327 -15 q 158 69 201 30 q 89 161 115 108 q 50 276 63 215 q 31 402 36 337 q 27 533 27 468 q 29 643 27 584 q 33 773 30 701 q 39 934 36 845 q 47 1136 43 1023 l 291 1136 q 284 924 287 1011 q 279 779 281 837 q 277 686 277 720 q 275 634 276 652 q 275 609 275 616 q 275 597 275 601 q 305 394 275 462 q 415 326 336 326 q 524 400 495 326 q 552 623 552 473 q 552 639 552 630 q 552 668 552 648 q 550 720 551 687 q 547 807 550 752 q 543 942 545 862 q 536 1136 540 1022 l 786 1137 m 331 1444 l 484 1444 l 354 1179 l 241 1179 l 331 1444 m 568 1444 l 720 1444 l 590 1179 l 477 1179 l 568 1444 "},"?":{"x_min":29.171875,"x_max":619.5,"ha":642,"o":"m 156 415 q 170 503 156 466 q 204 569 184 540 q 247 622 225 598 q 291 669 270 645 q 324 720 311 693 q 337 786 337 748 q 323 847 337 825 q 288 883 309 870 q 245 899 268 895 q 206 902 223 902 q 102 871 144 902 q 33 800 59 840 q 29 867 30 830 q 29 944 29 904 q 29 1012 29 982 q 33 1079 30 1043 q 140 1144 72 1120 q 294 1168 209 1168 q 400 1157 343 1168 q 505 1116 456 1147 q 586 1028 554 1084 q 619 880 619 972 q 601 765 619 812 q 556 682 583 718 q 497 619 529 647 q 437 562 465 591 q 391 498 409 533 q 370 415 372 463 l 156 415 m 273 283 q 335 269 308 283 q 381 234 362 255 q 409 186 400 212 q 419 137 419 161 q 407 79 419 106 q 375 30 395 51 q 328 -2 355 9 q 272 -15 301 -15 q 206 -3 234 -15 q 161 28 179 8 q 134 73 143 48 q 125 125 125 98 q 134 181 125 152 q 163 232 144 209 q 209 269 181 255 q 273 283 237 283 "},"Ņ":{"x_min":37.5,"x_max":790.34375,"ha":829,"o":"m 591 1136 l 790 1136 q 786 568 786 852 q 790 0 786 283 l 522 0 l 227 679 l 227 0 l 37 0 q 41 284 40 143 q 43 568 43 425 q 41 852 43 711 q 37 1136 40 993 l 318 1136 l 591 458 l 591 1136 m 479 -76 l 395 -284 l 262 -284 l 295 -76 l 479 -76 "},"c":{"x_min":13.890625,"x_max":568.09375,"ha":597,"o":"m 418 845 q 566 822 500 845 q 567 771 566 798 q 568 716 568 744 q 567 658 568 687 q 566 604 566 629 q 454 643 520 643 q 384 629 412 643 q 339 595 356 616 q 315 550 322 575 q 308 504 308 526 q 319 446 308 473 q 350 398 330 419 q 395 366 369 377 q 450 354 420 354 q 508 365 477 354 q 566 395 538 376 q 567 300 566 350 q 568 201 568 251 q 567 102 568 152 q 566 1 566 51 q 412 -15 488 -15 q 244 14 318 -15 q 119 100 170 44 q 40 235 68 155 q 13 413 13 315 q 38 586 13 506 q 114 723 63 666 q 240 813 165 780 q 418 845 316 845 "},"¶":{"x_min":20.828125,"x_max":673.671875,"ha":732,"o":"m 368 -101 l 368 480 q 207 509 273 480 q 100 586 141 538 q 39 696 58 634 q 20 822 20 758 q 39 937 20 880 q 100 1038 58 994 q 207 1109 141 1082 q 368 1136 273 1136 l 673 1136 l 673 -101 l 562 -101 l 562 1037 l 479 1037 l 479 -101 l 368 -101 "},"Ī":{"x_min":29.171875,"x_max":488.921875,"ha":493,"o":"m 137 393 l 137 618 q 136 769 137 707 q 136 884 136 832 l 33 884 q 30 947 31 916 q 29 1009 29 977 q 30 1073 29 1041 q 33 1136 31 1105 l 461 1136 q 462 1073 462 1104 q 462 1009 462 1041 q 462 947 462 977 q 461 884 462 916 l 359 884 q 356 701 356 791 q 355 500 355 611 l 355 393 l 461 393 q 462 294 462 343 q 462 195 462 245 q 462 97 462 147 q 461 0 462 48 l 33 0 q 30 97 31 48 q 29 195 29 147 q 30 294 29 245 q 33 393 31 343 l 137 393 m 488 1382 l 488 1251 l 30 1251 l 30 1382 l 488 1382 "},"•":{"x_min":51.390625,"x_max":488.921875,"ha":540,"o":"m 51 555 q 71 654 51 611 q 123 726 91 697 q 195 770 155 755 q 276 786 236 786 q 362 766 323 786 q 429 713 401 745 q 473 639 458 682 q 488 554 488 597 q 472 469 488 508 q 426 402 455 430 q 359 359 397 375 q 277 344 320 344 q 203 354 243 344 q 129 390 163 365 q 73 455 95 415 q 51 555 51 495 "},"(":{"x_min":20.828125,"x_max":338.921875,"ha":336,"o":"m 338 1195 q 222 887 261 1052 q 184 554 184 722 q 223 213 184 386 q 338 -111 262 40 l 183 -158 q 63 172 105 -6 q 20 534 20 351 q 63 900 20 718 q 183 1243 105 1083 l 338 1195 "},"Ụ":{"x_min":27.78125,"x_max":800.0625,"ha":829,"o":"m 786 1137 q 794 786 788 934 q 800 534 800 638 q 795 399 800 466 q 777 270 791 331 q 738 157 763 209 q 670 66 712 105 q 565 6 627 27 q 416 -15 502 -15 q 264 7 327 -15 q 158 69 201 30 q 89 161 115 108 q 50 276 63 215 q 31 402 36 337 q 27 533 27 468 q 29 643 27 584 q 33 773 30 701 q 39 934 36 845 q 47 1136 43 1023 l 291 1136 q 284 924 287 1011 q 279 779 281 837 q 277 686 277 720 q 275 634 276 652 q 275 609 275 616 q 275 597 275 601 q 305 394 275 462 q 415 326 336 326 q 524 400 495 326 q 552 623 552 473 q 552 639 552 630 q 552 668 552 648 q 550 720 551 687 q 547 807 550 752 q 543 942 545 862 q 536 1136 540 1022 l 786 1137 m 416 -72 q 493 -105 466 -72 q 520 -179 520 -138 q 493 -252 520 -219 q 416 -284 466 -284 q 339 -252 366 -284 q 312 -179 312 -219 q 339 -105 312 -138 q 416 -72 366 -72 "},"­":{"x_min":34.71875,"x_max":608.375,"ha":645,"o":"m 605 586 q 606 529 605 556 q 608 473 608 501 q 606 418 608 445 q 605 363 605 391 l 37 363 q 34 419 34 391 q 34 475 34 447 q 34 530 34 502 q 37 586 34 558 l 605 586 "},"Ħ":{"x_min":-5.5625,"x_max":755.609375,"ha":749,"o":"m 707 1136 q 702 1012 702 1070 l 755 1012 l 755 898 l 700 898 q 696 706 697 801 q 695 500 695 611 q 696 276 695 397 q 698 0 697 155 l 468 0 q 472 174 470 83 q 475 381 473 265 l 269 381 q 270 206 269 300 q 272 0 270 112 l 41 0 q 44 125 43 61 q 47 262 45 188 q 48 423 48 336 q 48 618 48 511 q 47 775 48 709 q 47 898 47 841 l -5 898 l -5 1012 l 47 1012 l 47 1136 l 280 1136 q 277 1073 277 1104 q 276 1012 277 1041 l 473 1012 l 473 1136 l 707 1136 m 475 725 q 474 817 475 775 q 473 898 473 859 l 272 898 q 270 811 270 854 q 269 725 269 769 l 475 725 "},"Ẓ":{"x_min":5.5625,"x_max":687.5625,"ha":703,"o":"m 16 0 q 5 129 5 59 q 9 209 5 172 q 20 284 13 247 l 408 887 l 47 887 q 40 938 43 911 q 38 995 38 966 q 41 1070 38 1033 q 50 1136 44 1107 l 669 1136 q 674 1084 672 1111 q 676 1027 676 1058 q 675 974 676 1004 q 669 895 673 944 l 281 295 l 677 295 q 685 225 683 263 q 687 147 687 187 q 685 67 687 105 q 677 0 683 29 l 16 0 m 336 -72 q 413 -105 386 -72 q 440 -179 440 -138 q 413 -252 440 -219 q 336 -284 386 -284 q 259 -252 286 -284 q 231 -179 231 -219 q 259 -105 231 -138 q 336 -72 286 -72 "},":":{"x_min":34.71875,"x_max":329.1875,"ha":364,"o":"m 183 283 q 245 269 218 283 q 291 234 272 255 q 319 186 309 212 q 329 137 329 161 q 317 79 329 106 q 285 30 305 51 q 238 -2 265 9 q 181 -15 211 -15 q 116 -3 144 -15 q 70 28 88 8 q 43 73 52 48 q 34 125 34 98 q 44 181 34 152 q 72 232 54 209 q 119 269 91 255 q 183 283 147 283 m 183 845 q 245 832 218 845 q 291 796 272 818 q 319 749 309 775 q 329 700 329 723 q 317 641 329 669 q 285 593 305 613 q 238 559 265 572 q 181 547 211 547 q 116 559 144 547 q 70 591 88 570 q 43 636 52 611 q 34 687 34 661 q 44 743 34 715 q 72 795 54 772 q 119 832 91 818 q 183 845 147 845 "},"Û":{"x_min":27.78125,"x_max":800.0625,"ha":829,"o":"m 786 1137 q 794 786 788 934 q 800 534 800 638 q 795 399 800 466 q 777 270 791 331 q 738 157 763 209 q 670 66 712 105 q 565 6 627 27 q 416 -15 502 -15 q 264 7 327 -15 q 158 69 201 30 q 89 161 115 108 q 50 276 63 215 q 31 402 36 337 q 27 533 27 468 q 29 643 27 584 q 33 773 30 701 q 39 934 36 845 q 47 1136 43 1023 l 291 1136 q 284 924 287 1011 q 279 779 281 837 q 277 686 277 720 q 275 634 276 652 q 275 609 275 616 q 275 597 275 601 q 305 394 275 462 q 415 326 336 326 q 524 400 495 326 q 552 623 552 473 q 552 639 552 630 q 552 668 552 648 q 550 720 551 687 q 547 807 550 752 q 543 942 545 862 q 536 1136 540 1022 l 786 1137 m 415 1451 l 652 1294 l 611 1200 l 415 1294 l 219 1200 l 177 1294 l 415 1451 "},"ǲ":{"x_min":33.34375,"x_max":1487.625,"ha":1508,"o":"m 33 1132 q 184 1148 112 1143 q 308 1152 256 1152 q 533 1119 430 1152 q 713 1000 636 1086 q 819 804 784 919 q 854 558 854 690 q 820 323 854 429 q 718 143 787 218 q 545 26 650 68 q 300 -15 441 -15 q 196 -12 268 -15 q 38 0 125 -9 q 40 124 40 63 q 42 243 41 184 q 43 362 43 302 q 43 486 43 422 q 40 834 43 668 q 33 1132 38 1001 m 302 922 q 277 920 288 922 q 254 918 265 919 q 252 788 252 852 q 252 658 252 723 q 253 590 252 626 q 254 516 254 554 q 256 439 255 477 q 258 368 258 401 q 283 364 270 365 q 305 363 295 363 q 400 386 356 363 q 477 446 444 408 q 527 536 509 484 q 545 645 545 587 q 534 738 545 688 q 493 827 522 787 q 418 895 465 868 q 302 922 372 922 m 920 0 q 911 61 913 27 q 909 129 909 94 q 913 209 909 172 q 923 284 916 247 l 1216 551 l 948 551 q 941 614 944 579 q 938 690 938 650 q 941 765 938 729 q 948 830 944 801 l 1473 830 q 1478 779 1476 805 q 1480 720 1480 752 q 1479 668 1480 698 q 1473 590 1477 637 l 1140 295 l 1477 295 q 1484 225 1482 263 q 1487 147 1487 187 q 1484 67 1487 105 q 1477 0 1482 29 l 920 0 "},"ś":{"x_min":13.890625,"x_max":525.046875,"ha":532,"o":"m 113 779 q 215 831 161 816 q 325 845 269 845 q 404 838 365 845 q 480 820 444 832 q 484 682 483 736 q 484 600 484 629 q 483 541 484 558 q 480 508 481 523 q 466 511 477 508 q 440 516 455 513 q 407 521 425 519 q 373 523 390 523 q 331 517 348 523 q 313 493 313 511 q 325 464 313 477 q 352 438 336 451 q 386 413 368 425 q 422 391 405 401 q 492 324 459 366 q 525 212 525 281 q 497 108 525 151 q 429 37 470 65 q 335 -2 387 9 q 233 -15 283 -15 q 188 -13 213 -15 q 138 -8 163 -12 q 87 2 112 -4 q 41 18 62 8 q 31 68 34 41 q 29 122 29 95 q 29 152 29 134 q 31 189 30 170 q 36 226 33 208 q 41 256 38 244 q 77 242 56 250 q 119 227 97 234 q 163 215 141 220 q 204 211 184 211 q 247 222 231 211 q 262 252 262 233 q 252 282 262 269 q 229 307 243 295 q 198 328 215 319 q 168 344 181 337 q 113 375 141 358 q 63 416 86 391 q 27 475 41 440 q 13 559 13 509 q 36 676 13 618 q 113 779 59 734 m 301 1168 l 504 1168 l 326 902 l 200 902 l 301 1168 "},"V":{"x_min":-6.9375,"x_max":787.5625,"ha":781,"o":"m 551 1136 l 787 1136 l 562 0 l 218 0 l -6 1136 l 230 1136 l 390 272 l 551 1136 "},"Ŗ":{"x_min":37.5,"x_max":818.125,"ha":818,"o":"m 37 0 q 43 263 41 131 q 44 512 44 394 q 42 832 44 680 q 37 1136 40 983 q 174 1148 105 1143 q 313 1152 243 1152 q 504 1138 415 1152 q 658 1084 593 1123 q 761 975 723 1044 q 800 795 800 905 q 743 581 800 659 q 591 465 687 504 l 818 0 l 570 0 l 386 423 q 268 419 329 419 q 269 209 268 312 q 277 0 270 106 l 37 0 m 268 630 q 347 626 311 626 q 481 661 441 626 q 520 768 520 697 q 509 837 520 811 q 477 879 497 863 q 429 900 456 894 q 372 905 402 905 q 322 903 350 905 q 268 897 295 901 l 268 630 m 509 -76 l 426 -284 l 293 -284 l 326 -76 l 509 -76 "}," ":{"x_min":0,"x_max":0,"ha":172},"Ỹ":{"x_min":-12.5,"x_max":759.78125,"ha":746,"o":"m 530 1136 l 759 1136 l 488 416 l 488 354 q 488 202 488 259 q 488 107 488 144 q 489 47 488 70 q 490 0 490 25 l 250 0 q 254 188 252 90 q 256 416 255 287 l -12 1136 l 218 1136 l 373 662 l 530 1136 m 119 1373 q 186 1403 155 1394 q 247 1412 218 1412 q 318 1400 286 1412 q 381 1373 351 1387 q 442 1345 412 1358 q 505 1333 472 1333 q 570 1348 534 1333 q 645 1398 605 1362 l 645 1248 q 570 1206 605 1218 q 504 1194 534 1194 q 434 1207 466 1194 q 371 1234 402 1219 q 309 1262 340 1250 q 245 1275 279 1275 q 186 1263 216 1275 q 119 1220 155 1251 l 119 1373 "},"ʼ":{"x_min":125.015625,"x_max":294.46875,"ha":400,"o":"m 150 1168 l 294 1168 l 234 888 l 125 888 l 150 1168 "},"@":{"x_min":26.390625,"x_max":1266.765625,"ha":1289,"o":"m 748 175 q 563 58 687 58 q 394 139 455 58 q 333 365 333 220 q 351 506 333 443 q 402 614 369 569 q 482 684 436 659 q 586 709 529 709 q 668 695 629 709 q 734 658 707 682 l 734 713 l 905 713 l 905 281 q 951 211 905 211 q 1003 231 977 211 q 1048 290 1029 252 q 1080 378 1068 327 q 1093 488 1093 429 q 1062 656 1093 581 q 975 783 1032 730 q 838 864 918 836 q 661 893 758 893 q 470 859 556 893 q 323 762 384 826 q 229 604 262 698 q 195 388 195 511 q 307 47 195 165 q 626 -70 419 -70 q 686 -68 654 -70 q 751 -61 718 -66 l 779 -223 q 632 -240 716 -240 q 382 -195 494 -240 q 191 -69 270 -151 q 69 128 112 12 q 26 386 26 244 q 72 657 26 534 q 204 866 119 779 q 408 1000 288 952 q 672 1048 527 1048 q 914 1009 805 1048 q 1102 896 1023 969 q 1223 722 1180 823 q 1266 498 1266 620 q 1240 316 1266 401 q 1167 169 1213 231 q 1057 70 1120 106 q 922 34 994 34 q 805 71 848 34 q 755 175 762 108 l 748 175 m 545 450 q 570 377 545 405 q 633 348 594 348 q 705 379 676 348 q 734 455 734 411 q 707 527 734 498 q 638 556 679 556 q 572 527 598 556 q 545 450 545 497 "},"¾":{"x_min":23.609375,"x_max":1002.859375,"ha":1028,"o":"m 787 1134 l 305 -58 l 219 -5 l 691 1187 l 787 1134 m 100 858 q 98 886 98 873 q 98 915 98 900 q 99 941 98 927 q 101 966 100 954 q 120 964 111 965 q 137 963 129 963 q 206 985 186 963 q 227 1033 227 1007 q 206 1082 227 1059 q 150 1104 186 1104 q 90 1088 120 1104 q 44 1048 61 1073 q 43 1088 43 1069 q 43 1133 43 1108 q 43 1152 43 1145 q 43 1166 43 1159 q 43 1179 43 1172 q 44 1197 44 1186 q 75 1224 56 1213 q 113 1241 93 1234 q 154 1249 134 1247 q 191 1251 175 1251 q 265 1241 229 1251 q 328 1210 301 1230 q 372 1159 355 1190 q 388 1088 388 1129 q 378 1028 388 1057 q 352 977 368 1000 q 316 938 336 954 q 276 915 295 922 q 320 901 297 912 q 361 870 343 890 q 392 818 380 850 q 404 743 404 787 q 384 649 404 687 q 331 586 363 611 q 260 551 300 562 q 181 540 220 540 q 97 551 141 540 q 26 587 54 562 q 23 630 23 609 q 23 675 23 651 q 23 725 23 700 q 26 769 23 750 q 74 729 41 745 q 138 713 106 713 q 198 732 173 713 q 223 790 223 750 q 220 815 223 802 q 206 837 216 827 q 177 853 195 847 q 127 859 158 859 q 114 859 122 859 q 100 858 106 859 m 952 682 l 952 322 l 1002 322 l 1002 137 l 952 137 l 952 0 l 798 0 l 798 137 l 580 137 l 580 322 l 752 682 l 952 682 m 693 322 l 798 322 l 798 555 l 693 322 "},"ŉ":{"x_min":-22.21875,"x_max":602.828125,"ha":635,"o":"m 236 830 l 236 755 q 317 821 269 797 q 415 845 365 845 q 523 812 476 845 q 586 733 570 779 q 597 675 593 712 q 602 593 602 638 l 602 0 l 398 0 l 398 402 q 375 486 398 465 q 322 508 352 508 q 259 482 281 508 q 236 416 236 456 l 236 0 l 34 0 q 35 96 34 45 q 36 197 36 147 q 36 298 36 248 q 36 393 36 348 q 36 472 36 419 q 35 587 36 525 q 34 715 34 650 q 34 830 34 780 l 236 830 m 2 1168 l 147 1168 l 87 888 l -22 888 l 2 1168 "},"i":{"x_min":-5.5625,"x_max":286.140625,"ha":276,"o":"m 36 808 l 240 808 l 240 0 l 36 0 l 36 808 m 143 1152 q 203 1139 176 1152 q 248 1105 230 1126 q 276 1059 266 1084 q 286 1009 286 1033 q 274 950 286 977 q 242 903 262 923 q 196 871 222 883 q 141 859 170 859 q 77 871 105 859 q 31 902 50 883 q 3 945 12 920 q -5 997 -5 970 q 4 1051 -5 1023 q 34 1102 15 1079 q 80 1138 52 1125 q 143 1152 108 1152 "},"≤":{"x_min":36.109375,"x_max":591.71875,"ha":643,"o":"m 36 644 l 591 948 l 591 784 l 165 565 l 591 565 l 591 431 l 36 431 l 36 644 m 591 304 l 591 170 l 36 170 l 36 304 l 591 304 "},"⅓":{"x_min":30.5625,"x_max":1009.796875,"ha":1032,"o":"m 775 1134 l 293 -58 l 206 -5 l 679 1187 l 775 1134 m 262 1243 q 259 1138 259 1188 q 256 1030 258 1087 q 255 907 255 973 q 255 755 255 840 l 330 755 q 334 704 333 730 q 336 652 336 679 q 334 603 336 629 q 330 550 333 577 l 36 550 q 34 595 34 573 q 33 641 33 618 q 33 697 33 669 q 36 755 33 726 l 105 755 q 104 907 105 827 q 104 1052 104 986 l 34 1041 q 31 1077 31 1059 q 30 1113 30 1095 q 31 1165 30 1133 q 34 1215 31 1197 l 262 1243 m 705 308 q 704 336 704 323 q 704 365 704 350 q 704 391 704 377 q 707 416 705 404 q 725 414 716 415 q 743 413 734 413 q 812 435 791 413 q 833 483 833 456 q 812 531 833 509 q 755 554 791 554 q 696 538 726 554 q 650 498 666 523 q 648 538 648 519 q 648 583 648 558 q 648 602 648 595 q 648 616 648 609 q 649 629 648 622 q 650 647 650 636 q 680 674 662 663 q 719 691 698 684 q 760 699 740 697 q 797 701 780 701 q 870 691 834 701 q 934 660 907 680 q 977 609 961 640 q 994 538 994 579 q 984 478 994 506 q 957 427 973 450 q 921 388 941 404 q 882 365 901 372 q 925 351 902 362 q 967 320 948 340 q 997 268 986 300 q 1009 193 1009 237 q 989 99 1009 137 q 937 36 969 61 q 866 1 905 12 q 787 -9 826 -9 q 703 1 747 -9 q 632 37 659 12 q 629 80 629 59 q 629 125 629 101 q 629 175 629 150 q 632 219 629 200 q 679 179 647 195 q 744 163 712 163 q 804 181 779 163 q 829 240 829 200 q 825 265 829 252 q 811 287 822 277 q 782 303 801 297 q 733 309 763 309 q 720 309 727 309 q 705 308 712 309 "},"ẽ":{"x_min":12.5,"x_max":708.390625,"ha":725,"o":"m 319 437 q 379 340 337 377 q 494 302 420 302 q 542 306 516 302 q 593 316 568 309 q 640 329 618 322 q 679 344 662 337 q 682 259 682 304 q 683 169 683 213 q 679 37 683 95 q 436 -15 570 -15 q 309 -1 373 -15 q 186 51 245 12 q 99 132 133 86 q 45 228 65 179 q 19 325 26 277 q 12 409 12 372 q 25 525 12 465 q 66 641 38 586 q 137 741 94 695 q 238 813 180 787 q 388 845 309 845 q 538 812 472 845 q 647 720 605 779 q 697 597 687 665 q 708 437 708 529 l 319 437 m 398 695 q 343 671 369 695 q 308 586 316 647 l 490 586 q 457 668 484 641 q 398 695 430 695 m 136 1097 q 203 1127 172 1118 q 263 1136 234 1136 q 335 1123 302 1136 q 398 1096 368 1111 q 459 1069 429 1082 q 522 1057 488 1057 q 586 1071 551 1057 q 662 1122 622 1086 l 662 972 q 586 929 622 941 q 520 918 551 918 q 451 930 483 918 q 388 958 419 943 q 326 986 356 973 q 262 998 295 998 q 202 986 233 998 q 136 944 172 975 l 136 1097 "},"Ģ":{"x_min":13.890625,"x_max":784.78125,"ha":811,"o":"m 784 632 l 784 1 q 652 -11 709 -8 q 556 -15 594 -15 q 327 25 429 -15 q 156 140 226 65 q 50 324 87 216 q 13 565 13 431 q 48 800 13 693 q 152 986 83 908 q 324 1109 220 1065 q 563 1152 427 1152 q 664 1145 622 1152 q 747 1125 707 1137 q 747 1076 747 1102 q 748 1019 748 1050 q 747 954 748 988 q 747 891 747 919 q 591 927 679 927 q 463 902 515 927 q 381 836 412 876 q 336 746 350 795 q 323 651 323 697 q 339 548 323 598 q 387 459 355 498 q 467 397 419 420 q 580 373 515 373 q 593 373 587 373 q 607 375 600 373 l 607 632 l 784 632 m 634 -76 l 551 -284 l 418 -284 l 451 -76 l 634 -76 "},"m":{"x_min":34.71875,"x_max":937.578125,"ha":970,"o":"m 236 830 l 236 757 q 310 823 263 801 q 409 845 356 845 q 501 824 459 845 q 565 755 543 802 q 641 822 590 800 q 751 845 691 845 q 889 788 841 845 q 937 594 937 730 l 937 0 l 733 0 l 733 426 q 711 500 733 477 q 662 523 690 523 q 611 500 634 523 q 587 437 587 477 l 587 0 l 383 0 l 383 409 q 359 488 383 463 q 306 513 334 513 q 257 489 279 513 q 236 425 236 465 l 236 0 l 34 0 q 34 93 34 41 q 35 197 34 144 q 36 297 36 250 q 36 381 36 345 q 36 471 36 416 q 35 588 36 526 q 34 714 34 651 q 34 830 34 777 l 236 830 "},"ĕ":{"x_min":12.5,"x_max":708.390625,"ha":725,"o":"m 319 437 q 379 340 337 377 q 494 302 420 302 q 542 306 516 302 q 593 316 568 309 q 640 329 618 322 q 679 344 662 337 q 682 259 682 304 q 683 169 683 213 q 679 37 683 95 q 436 -15 570 -15 q 309 -1 373 -15 q 186 51 245 12 q 99 132 133 86 q 45 228 65 179 q 19 325 26 277 q 12 409 12 372 q 25 525 12 465 q 66 641 38 586 q 137 741 94 695 q 238 813 180 787 q 388 845 309 845 q 538 812 472 845 q 647 720 605 779 q 697 597 687 665 q 708 437 708 529 l 319 437 m 398 695 q 343 671 369 695 q 308 586 316 647 l 490 586 q 457 668 484 641 q 398 695 430 695 m 591 1134 q 574 1048 591 1086 q 529 986 556 1011 q 464 947 501 961 q 388 934 427 934 q 312 947 348 934 q 248 986 276 961 q 203 1048 220 1011 q 186 1134 186 1086 l 281 1134 q 314 1050 284 1082 q 388 1018 344 1018 q 463 1050 433 1018 q 495 1134 493 1082 l 591 1134 "},"ﬃ":{"x_min":19.453125,"x_max":1141.765625,"ha":1132,"o":"m 891 808 l 1095 808 l 1095 0 l 891 0 l 891 808 m 998 1152 q 1059 1139 1032 1152 q 1104 1105 1086 1126 q 1132 1059 1122 1084 q 1141 1009 1141 1033 q 1129 950 1141 977 q 1098 903 1118 923 q 1052 871 1077 883 q 997 859 1026 859 q 933 871 961 859 q 886 902 905 883 q 859 945 868 920 q 850 997 850 970 q 860 1051 850 1023 q 889 1102 870 1079 q 936 1138 908 1125 q 998 1152 963 1152 m 83 444 l 19 444 l 19 736 l 81 736 l 81 836 q 90 982 81 927 q 118 1072 98 1036 q 184 1143 141 1118 q 279 1168 226 1168 q 333 1166 318 1168 q 362 1159 348 1163 q 370 1008 370 1113 q 361 854 370 891 q 327 859 344 859 q 281 833 293 859 q 269 765 269 807 l 269 736 l 381 736 l 381 444 l 272 444 l 272 0 l 83 0 l 83 444 m 508 444 l 444 444 l 444 736 l 506 736 l 506 836 q 515 982 506 927 q 543 1072 523 1036 q 609 1143 566 1118 q 704 1168 651 1168 q 758 1166 743 1168 q 787 1159 773 1163 q 795 1008 795 1113 q 786 854 795 891 q 752 859 769 859 q 706 833 718 859 q 694 765 694 807 l 694 736 l 807 736 l 807 444 l 697 444 l 697 0 l 508 0 l 508 444 "},"ż":{"x_min":12.5,"x_max":590.328125,"ha":611,"o":"m 23 0 q 14 61 16 27 q 12 129 12 94 q 15 209 12 172 q 26 284 19 247 l 319 551 l 51 551 q 44 614 47 579 q 41 690 41 650 q 44 765 41 729 q 51 830 47 801 l 576 830 q 581 779 579 805 q 583 720 583 752 q 581 668 583 698 q 576 590 580 637 l 243 295 l 580 295 q 587 225 584 263 q 590 147 590 187 q 587 67 590 105 q 580 0 584 29 l 23 0 m 215 1027 q 253 1118 215 1088 q 337 1148 291 1148 q 421 1116 388 1148 q 454 1032 454 1083 q 417 942 454 975 q 331 909 380 909 q 288 917 309 909 q 251 939 268 925 q 225 976 234 954 q 215 1027 215 998 "},"Ị":{"x_min":29.171875,"x_max":462.53125,"ha":493,"o":"m 137 393 l 137 618 q 136 769 137 707 q 136 884 136 832 l 33 884 q 30 947 31 916 q 29 1009 29 977 q 30 1073 29 1041 q 33 1136 31 1105 l 461 1136 q 462 1073 462 1104 q 462 1009 462 1041 q 462 947 462 977 q 461 884 462 916 l 359 884 q 356 701 356 791 q 355 500 355 611 l 355 393 l 461 393 q 462 294 462 343 q 462 195 462 245 q 462 97 462 147 q 461 0 462 48 l 33 0 q 30 97 31 48 q 29 195 29 147 q 30 294 29 245 q 33 393 31 343 l 137 393 m 248 -72 q 325 -105 298 -72 q 352 -179 352 -138 q 325 -252 352 -219 q 248 -284 298 -284 q 171 -252 198 -284 q 144 -179 144 -219 q 171 -105 144 -138 q 248 -72 198 -72 "},"ǌ":{"x_min":34.71875,"x_max":941.734375,"ha":925,"o":"m 236 830 l 236 755 q 317 821 269 797 q 415 845 365 845 q 523 812 476 845 q 586 733 570 779 q 597 675 593 712 q 602 593 602 638 l 602 0 l 398 0 l 398 402 q 375 486 398 465 q 322 508 352 508 q 259 482 281 508 q 236 416 236 456 l 236 0 l 34 0 q 35 96 34 45 q 36 197 36 147 q 36 298 36 248 q 36 393 36 348 q 36 472 36 419 q 35 587 36 525 q 34 715 34 650 q 34 830 34 780 l 236 830 m 888 -4 q 886 -99 888 -56 q 870 -175 883 -141 q 712 -266 836 -266 q 684 -265 701 -266 q 650 -263 668 -265 q 617 -260 633 -262 q 591 -255 601 -258 q 584 -215 586 -236 q 583 -177 583 -194 q 586 -119 583 -148 q 594 -68 588 -90 q 618 -72 602 -70 q 644 -73 634 -73 q 689 -54 679 -73 q 700 20 700 -36 l 700 808 l 888 808 l 888 -4 m 798 1152 q 859 1139 832 1152 q 904 1105 886 1126 q 932 1059 922 1084 q 941 1009 941 1033 q 929 950 941 977 q 897 903 918 923 q 852 871 877 883 q 797 859 826 859 q 733 871 761 859 q 686 902 705 883 q 659 945 668 920 q 650 997 650 970 q 660 1051 650 1023 q 689 1102 670 1079 q 736 1138 708 1125 q 798 1152 763 1152 "},"ő":{"x_min":16.671875,"x_max":648.65625,"ha":665,"o":"m 333 845 q 575 734 502 845 q 648 415 648 623 q 575 95 648 205 q 333 -15 502 -15 q 89 95 162 -15 q 16 415 16 205 q 89 734 16 623 q 333 845 162 845 m 333 311 q 382 322 361 311 q 418 351 404 333 q 438 392 431 369 q 445 440 445 415 q 438 488 445 465 q 418 530 431 512 q 382 559 404 548 q 333 570 361 570 q 247 530 276 570 q 219 440 219 490 q 226 392 219 415 q 247 351 233 369 q 283 322 262 333 q 333 311 304 311 m 250 1168 l 402 1168 l 272 902 l 159 902 l 250 1168 m 486 1168 l 638 1168 l 508 902 l 395 902 l 486 1168 "},"ž":{"x_min":12.5,"x_max":590.328125,"ha":611,"o":"m 23 0 q 14 61 16 27 q 12 129 12 94 q 15 209 12 172 q 26 284 19 247 l 319 551 l 51 551 q 44 614 47 579 q 41 690 41 650 q 44 765 41 729 q 51 830 47 801 l 576 830 q 581 779 579 805 q 583 720 583 752 q 581 668 583 698 q 576 590 580 637 l 243 295 l 580 295 q 587 225 584 263 q 590 147 590 187 q 587 67 590 105 q 580 0 584 29 l 23 0 m 97 1080 l 138 1175 l 334 1079 l 530 1175 l 572 1080 l 334 922 l 97 1080 "},"Ŏ":{"x_min":18.0625,"x_max":826.453125,"ha":845,"o":"m 422 1152 q 727 1005 629 1152 q 826 577 826 858 q 729 138 826 293 q 422 -15 633 -15 q 241 24 318 -15 q 115 139 165 63 q 41 325 65 215 q 18 577 18 436 q 116 1007 18 862 q 422 1152 215 1152 m 422 343 q 500 363 466 343 q 556 418 534 383 q 590 503 579 454 q 601 612 601 552 q 590 722 601 672 q 556 811 579 773 q 500 869 534 848 q 422 890 466 890 q 345 868 377 890 q 289 809 312 847 q 255 721 266 772 q 244 612 244 670 q 255 503 244 552 q 289 418 266 454 q 345 363 312 383 q 422 343 377 343 m 625 1411 q 607 1325 625 1362 q 562 1262 590 1287 q 497 1224 534 1237 q 422 1211 461 1211 q 345 1224 381 1211 q 281 1262 309 1237 q 236 1325 254 1287 q 219 1411 219 1362 l 315 1411 q 347 1326 318 1358 q 422 1294 377 1294 q 496 1326 466 1294 q 529 1411 526 1358 l 625 1411 "},"á":{"x_min":13.890625,"x_max":713.953125,"ha":746,"o":"m 707 0 l 516 0 l 516 68 q 411 6 466 27 q 302 -15 355 -15 q 187 15 240 -15 q 96 100 134 45 q 36 231 58 155 q 13 398 13 308 q 37 575 13 493 q 102 717 61 657 q 199 811 143 777 q 320 845 255 845 q 429 821 377 845 q 516 761 480 797 l 516 830 l 713 830 l 707 0 m 279 501 q 310 409 279 444 q 390 375 341 375 q 479 412 443 375 q 516 508 516 450 q 507 558 516 534 q 481 599 498 581 q 443 626 465 616 q 395 636 420 636 q 312 598 345 636 q 279 501 279 561 m 425 1168 l 627 1168 l 450 902 l 323 902 l 425 1168 "},"×":{"x_min":23.609375,"x_max":626.4375,"ha":650,"o":"m 323 358 l 141 176 l 23 294 l 205 476 l 23 659 l 141 777 l 323 594 l 508 779 l 626 661 l 441 476 l 626 293 l 508 175 l 323 358 "},"İ":{"x_min":29.171875,"x_max":462.53125,"ha":493,"o":"m 137 393 l 137 618 q 136 769 137 707 q 136 884 136 832 l 33 884 q 30 947 31 916 q 29 1009 29 977 q 30 1073 29 1041 q 33 1136 31 1105 l 461 1136 q 462 1073 462 1104 q 462 1009 462 1041 q 462 947 462 977 q 461 884 462 916 l 359 884 q 356 701 356 791 q 355 500 355 611 l 355 393 l 461 393 q 462 294 462 343 q 462 195 462 245 q 462 97 462 147 q 461 0 462 48 l 33 0 q 30 97 31 48 q 29 195 29 147 q 30 294 29 245 q 33 393 31 343 l 137 393 m 129 1304 q 167 1395 129 1365 q 251 1425 205 1425 q 335 1392 302 1425 q 368 1308 368 1359 q 331 1218 368 1251 q 245 1186 294 1186 q 202 1193 223 1186 q 165 1216 181 1201 q 138 1252 148 1230 q 129 1304 129 1275 "},"ḍ":{"x_min":13.890625,"x_max":713.953125,"ha":746,"o":"m 707 0 l 516 0 l 516 68 q 411 6 466 27 q 302 -15 355 -15 q 187 15 240 -15 q 96 100 134 45 q 36 231 58 155 q 13 398 13 308 q 37 575 13 493 q 102 717 61 657 q 199 811 143 777 q 320 845 255 845 q 429 821 377 845 q 516 761 480 797 l 516 1168 l 713 1168 l 707 0 m 279 501 q 310 409 279 444 q 390 375 341 375 q 479 412 443 375 q 516 508 516 450 q 507 558 516 534 q 481 599 498 581 q 443 626 465 616 q 395 636 420 636 q 312 598 345 636 q 279 501 279 561 m 394 -72 q 471 -105 444 -72 q 498 -179 498 -138 q 471 -252 498 -219 q 394 -284 444 -284 q 317 -252 344 -284 q 290 -179 290 -219 q 317 -105 290 -138 q 394 -72 344 -72 "},"Ě":{"x_min":38.890625,"x_max":552.828125,"ha":576,"o":"m 552 -4 q 450 -2 513 -2 q 313 0 386 -1 q 167 0 240 0 q 38 0 94 0 q 40 77 40 29 q 41 188 41 126 q 41 324 41 251 q 41 475 41 397 q 40 686 41 580 q 40 882 40 791 q 39 1040 40 973 q 38 1134 38 1107 q 158 1134 93 1134 q 291 1135 223 1134 q 425 1137 359 1136 q 547 1140 490 1138 q 547 1109 547 1122 q 548 1072 548 1095 q 547 1032 548 1055 q 546 985 547 1009 q 545 936 545 961 q 543 891 544 912 l 263 891 l 263 730 l 506 730 l 506 523 l 263 523 l 263 368 l 547 368 q 550 302 548 336 q 552 227 551 269 q 552 129 552 186 q 552 -4 552 73 m 73 1357 l 115 1451 l 311 1355 l 506 1451 l 548 1357 l 311 1198 l 73 1357 "},"Ṛ":{"x_min":37.5,"x_max":818.125,"ha":818,"o":"m 37 0 q 43 263 41 131 q 44 512 44 394 q 42 832 44 680 q 37 1136 40 983 q 174 1148 105 1143 q 313 1152 243 1152 q 504 1138 415 1152 q 658 1084 593 1123 q 761 975 723 1044 q 800 795 800 905 q 743 581 800 659 q 591 465 687 504 l 818 0 l 570 0 l 386 423 q 268 419 329 419 q 269 209 268 312 q 277 0 270 106 l 37 0 m 268 630 q 347 626 311 626 q 481 661 441 626 q 520 768 520 697 q 509 837 520 811 q 477 879 497 863 q 429 900 456 894 q 372 905 402 905 q 322 903 350 905 q 268 897 295 901 l 268 630 m 411 -72 q 488 -105 461 -72 q 515 -179 515 -138 q 488 -252 515 -219 q 411 -284 461 -284 q 334 -252 361 -284 q 306 -179 306 -219 q 334 -105 306 -138 q 411 -72 361 -72 "},"Ǻ":{"x_min":-5.5625,"x_max":747.28125,"ha":742,"o":"m 370 1263 q 471 1225 437 1263 q 505 1136 505 1187 l 543 1136 l 747 0 l 512 0 l 477 227 l 263 227 l 230 0 l -5 0 l 200 1136 l 233 1136 q 268 1225 233 1187 q 370 1263 304 1263 m 301 476 l 440 476 l 370 934 l 301 476 m 352 1451 l 501 1451 l 426 1290 l 322 1290 l 352 1451 m 370 1065 q 421 1084 402 1065 q 440 1136 440 1104 q 421 1186 440 1168 q 370 1205 402 1205 q 318 1186 338 1205 q 298 1136 298 1168 q 318 1084 298 1104 q 370 1065 338 1065 "},"K":{"x_min":36.109375,"x_max":805.625,"ha":774,"o":"m 290 1136 q 284 988 286 1052 q 280 866 281 925 q 278 746 279 808 q 277 605 277 684 l 283 605 l 530 1137 l 788 1137 l 516 583 l 805 0 l 545 0 l 283 550 l 277 550 q 277 433 277 498 q 278 296 277 368 q 279 149 279 225 q 280 0 280 73 l 36 0 q 38 127 37 61 q 41 270 40 193 q 43 436 43 347 q 43 634 43 526 q 43 795 43 729 q 42 915 43 861 q 41 1020 41 969 q 41 1136 41 1070 l 290 1136 "},"7":{"x_min":13.890625,"x_max":668.109375,"ha":676,"o":"m 48 0 l 423 857 l 23 843 q 16 906 19 870 q 13 982 13 941 q 16 1061 13 1020 q 23 1136 19 1102 l 659 1136 q 666 1079 663 1111 q 668 1016 668 1047 q 666 956 668 993 q 659 870 665 919 q 608 753 636 820 q 550 609 580 686 q 491 450 520 531 q 436 287 462 368 q 390 133 411 206 q 356 0 369 59 l 48 0 "},"⁰":{"x_min":18.0625,"x_max":498.65625,"ha":517,"o":"m 261 1251 q 439 1159 380 1251 q 498 898 498 1066 q 437 634 498 726 q 256 541 376 541 q 77 634 136 541 q 18 891 18 726 q 81 1159 18 1068 q 261 1251 145 1251 m 258 788 q 324 829 302 788 q 345 927 345 869 q 324 1023 345 986 q 259 1059 302 1059 q 195 1022 218 1059 q 172 926 172 984 q 194 829 172 869 q 258 788 216 788 "},"¨":{"x_min":27.78125,"x_max":488.921875,"ha":517,"o":"m 27 1027 q 60 1105 27 1082 q 130 1129 93 1129 q 200 1100 175 1129 q 226 1027 226 1070 q 199 954 226 983 q 131 926 172 926 q 97 932 115 926 q 63 949 79 937 q 37 980 47 961 q 27 1027 27 1000 m 290 1029 q 299 1074 290 1055 q 322 1105 308 1093 q 355 1123 337 1118 q 391 1129 373 1129 q 462 1100 436 1129 q 488 1027 488 1070 q 461 954 488 983 q 394 926 434 926 q 359 932 377 926 q 325 949 341 937 q 300 980 309 961 q 290 1029 290 1000 "},"Y":{"x_min":-12.5,"x_max":759.78125,"ha":746,"o":"m 530 1136 l 759 1136 l 488 416 l 488 354 q 488 202 488 259 q 488 107 488 144 q 489 47 488 70 q 490 0 490 25 l 250 0 q 254 188 252 90 q 256 416 255 287 l -12 1136 l 218 1136 l 373 662 l 530 1136 "},"E":{"x_min":38.890625,"x_max":552.828125,"ha":576,"o":"m 552 -4 q 450 -2 513 -2 q 313 0 386 -1 q 167 0 240 0 q 38 0 94 0 q 40 77 40 29 q 41 188 41 126 q 41 324 41 251 q 41 475 41 397 q 40 686 41 580 q 40 882 40 791 q 39 1040 40 973 q 38 1134 38 1107 q 158 1134 93 1134 q 291 1135 223 1134 q 425 1137 359 1136 q 547 1140 490 1138 q 547 1109 547 1122 q 548 1072 548 1095 q 547 1032 548 1055 q 546 985 547 1009 q 545 936 545 961 q 543 891 544 912 l 263 891 l 263 730 l 506 730 l 506 523 l 263 523 l 263 368 l 547 368 q 550 302 548 336 q 552 227 551 269 q 552 129 552 186 q 552 -4 552 73 "},"Ô":{"x_min":18.0625,"x_max":826.453125,"ha":845,"o":"m 422 1152 q 727 1005 629 1152 q 826 577 826 858 q 729 138 826 293 q 422 -15 633 -15 q 241 24 318 -15 q 115 139 165 63 q 41 325 65 215 q 18 577 18 436 q 116 1007 18 862 q 422 1152 215 1152 m 422 343 q 500 363 466 343 q 556 418 534 383 q 590 503 579 454 q 601 612 601 552 q 590 722 601 672 q 556 811 579 773 q 500 869 534 848 q 422 890 466 890 q 345 868 377 890 q 289 809 312 847 q 255 721 266 772 q 244 612 244 670 q 255 503 244 552 q 289 418 266 454 q 345 363 312 383 q 422 343 377 343 m 422 1451 l 659 1294 l 618 1200 l 422 1294 l 226 1200 l 184 1294 l 422 1451 "},"Ț":{"x_min":15.28125,"x_max":566.71875,"ha":582,"o":"m 566 879 l 406 879 q 402 628 404 755 q 401 354 401 501 q 401 202 401 259 q 401 107 401 144 q 402 47 401 70 q 402 0 402 25 l 169 0 q 172 127 170 61 q 174 270 173 193 q 175 436 175 347 q 176 634 176 526 q 176 772 176 713 q 175 879 176 830 l 15 879 l 15 1136 l 566 1136 l 566 879 m 377 -76 l 294 -284 l 161 -284 l 194 -76 l 377 -76 "},"‹":{"x_min":13.890625,"x_max":604.21875,"ha":629,"o":"m 276 415 l 604 79 l 438 -18 l 13 415 l 438 847 l 604 751 l 276 415 "},"Ï":{"x_min":18.0625,"x_max":479.203125,"ha":493,"o":"m 137 393 l 137 618 q 136 769 137 707 q 136 884 136 832 l 33 884 q 30 947 31 916 q 29 1009 29 977 q 30 1073 29 1041 q 33 1136 31 1105 l 461 1136 q 462 1073 462 1104 q 462 1009 462 1041 q 462 947 462 977 q 461 884 462 916 l 359 884 q 356 701 356 791 q 355 500 355 611 l 355 393 l 461 393 q 462 294 462 343 q 462 195 462 245 q 462 97 462 147 q 461 0 462 48 l 33 0 q 30 97 31 48 q 29 195 29 147 q 30 294 29 245 q 33 393 31 343 l 137 393 m 18 1304 q 50 1382 18 1358 q 120 1405 83 1405 q 190 1376 165 1405 q 216 1304 216 1347 q 189 1231 216 1259 q 122 1202 162 1202 q 87 1208 105 1202 q 53 1225 69 1213 q 27 1257 37 1237 q 18 1304 18 1276 m 280 1305 q 289 1350 280 1332 q 313 1382 298 1369 q 345 1400 327 1394 q 381 1405 363 1405 q 452 1376 426 1405 q 479 1304 479 1347 q 452 1231 479 1259 q 384 1202 425 1202 q 350 1208 368 1202 q 316 1225 331 1213 q 290 1257 300 1237 q 280 1305 280 1276 "},"₂":{"x_min":29.171875,"x_max":404.203125,"ha":433,"o":"m 404 522 q 388 440 404 475 q 350 379 373 405 q 298 331 326 352 q 246 288 270 309 q 204 246 222 268 q 186 197 187 225 l 393 205 q 397 153 395 180 q 398 100 398 126 q 398 49 398 73 q 395 0 398 25 l 29 0 l 29 151 q 43 233 29 198 q 79 294 58 268 q 125 341 100 320 q 172 379 151 361 q 207 418 193 398 q 222 465 222 438 q 197 514 222 500 q 151 529 173 529 q 95 512 123 529 q 52 470 68 495 q 50 515 51 490 q 50 565 50 540 q 50 607 50 588 q 52 648 51 626 q 84 675 65 665 q 123 691 102 686 q 163 699 144 697 q 197 701 183 701 q 263 693 227 701 q 331 666 300 686 q 383 611 362 645 q 404 522 404 576 "},"ġ":{"x_min":13.890625,"x_max":713.953125,"ha":747,"o":"m 516 97 q 420 37 463 55 q 325 19 376 19 q 198 47 255 19 q 100 127 141 76 q 36 248 59 177 q 13 404 13 319 q 39 575 13 495 q 110 716 65 655 q 215 811 155 776 q 343 845 275 845 q 516 761 444 845 l 516 830 l 713 830 l 713 383 q 710 173 713 259 q 700 37 707 87 q 588 -188 679 -109 q 348 -266 497 -266 q 229 -252 286 -266 q 126 -212 173 -238 l 126 -41 q 329 -93 227 -93 q 468 -54 420 -93 q 516 56 516 -15 l 516 97 m 279 501 q 309 409 279 444 q 390 375 340 375 q 439 385 416 375 q 479 413 462 395 q 506 456 497 431 q 516 508 516 480 q 507 558 516 534 q 481 599 498 581 q 443 626 465 616 q 395 636 420 636 q 312 598 345 636 q 279 501 279 561 m 291 1027 q 329 1118 291 1088 q 413 1148 368 1148 q 497 1116 465 1148 q 530 1032 530 1083 q 493 942 530 975 q 408 909 456 909 q 365 917 386 909 q 327 939 344 925 q 301 976 311 954 q 291 1027 291 998 "},"ķ":{"x_min":29.171875,"x_max":693.109375,"ha":670,"o":"m 677 830 l 455 437 l 693 0 l 455 0 l 262 347 l 252 347 q 252 267 252 306 q 253 186 252 227 q 255 98 254 144 q 258 0 256 52 l 29 0 q 37 382 36 170 q 38 847 38 594 q 38 984 38 932 q 38 1070 38 1037 q 38 1125 38 1104 q 36 1168 37 1145 l 272 1168 q 265 938 268 1040 q 260 753 262 836 q 256 604 258 670 q 254 483 255 538 l 263 483 l 455 830 l 677 830 m 444 -76 l 361 -284 l 227 -284 l 261 -76 l 444 -76 "},"±":{"x_min":37.5,"x_max":611.15625,"ha":649,"o":"m 240 531 l 37 531 l 37 698 l 240 698 l 240 873 l 406 873 l 406 698 l 611 698 l 611 531 l 406 531 l 406 355 l 240 355 l 240 531 m 611 268 l 611 101 l 37 101 l 37 268 l 611 268 "},"ì":{"x_min":-88.890625,"x_max":240.296875,"ha":276,"o":"m 36 808 l 240 808 l 240 0 l 36 0 l 36 808 m 215 902 l 88 902 l -88 1168 l 113 1168 l 215 902 "},"|":{"x_min":51.390625,"x_max":200.015625,"ha":251,"o":"m 200 1168 l 200 -266 l 51 -266 l 51 1168 l 200 1168 "},"§":{"x_min":26.390625,"x_max":565.328125,"ha":593,"o":"m 565 512 q 522 360 565 427 q 405 259 480 293 q 516 163 483 212 q 550 52 550 115 q 529 -37 550 2 q 470 -106 508 -77 q 379 -152 431 -136 q 263 -168 326 -168 q 159 -159 212 -168 q 73 -134 105 -150 q 56 -9 56 -83 q 59 54 56 20 q 65 104 61 87 q 156 70 111 83 q 230 58 201 58 q 286 102 286 58 q 266 145 286 129 q 218 177 247 162 q 156 208 190 191 q 93 251 122 225 q 45 317 65 277 q 26 418 26 356 q 69 569 26 502 q 187 666 112 636 q 75 762 106 715 q 43 870 43 809 q 63 963 43 922 q 122 1034 84 1005 q 212 1079 159 1063 q 329 1095 265 1095 q 431 1086 379 1095 q 519 1062 484 1077 q 536 937 536 1009 q 533 873 536 907 q 527 823 530 840 q 435 857 479 844 q 362 869 391 869 q 306 825 306 869 q 326 781 306 798 q 374 749 345 763 q 436 718 402 734 q 497 675 469 701 q 545 611 526 650 q 565 512 565 572 m 291 351 q 357 380 331 351 q 383 454 383 409 q 358 529 383 500 q 293 558 333 558 q 227 529 252 558 q 201 454 201 500 q 226 379 201 408 q 291 351 251 351 "},"q":{"x_min":13.890625,"x_max":713.953125,"ha":747,"o":"m 707 -251 l 516 -251 l 516 68 q 411 6 466 27 q 302 -15 355 -15 q 187 15 240 -15 q 96 100 134 45 q 36 231 58 155 q 13 398 13 308 q 37 575 13 493 q 102 717 61 657 q 199 811 143 777 q 320 845 255 845 q 429 821 377 845 q 516 761 480 797 l 516 830 l 713 830 l 707 -251 m 279 501 q 310 409 279 444 q 390 375 341 375 q 479 412 443 375 q 516 508 516 450 q 507 558 516 534 q 481 599 498 581 q 443 626 465 616 q 395 636 420 636 q 312 598 345 636 q 279 501 279 561 "},"b":{"x_min":31.953125,"x_max":732,"ha":746,"o":"m 31 1168 l 229 1168 l 229 761 q 317 821 266 797 q 425 845 368 845 q 546 811 490 845 q 643 717 602 777 q 708 575 684 657 q 732 398 732 493 q 709 231 732 308 q 649 100 687 155 q 558 15 611 45 q 443 -15 505 -15 q 334 6 390 -15 q 229 68 279 27 l 229 0 l 38 0 l 31 1168 m 229 501 q 260 409 229 444 q 340 375 291 375 q 429 412 393 375 q 466 508 466 450 q 457 558 466 534 q 431 599 448 581 q 393 626 415 616 q 347 636 372 636 q 262 598 295 636 q 229 501 229 561 "},"ǅ":{"x_min":33.34375,"x_max":1487.625,"ha":1508,"o":"m 33 1132 q 184 1148 112 1143 q 308 1152 256 1152 q 533 1119 430 1152 q 713 1000 636 1086 q 819 804 784 919 q 854 558 854 690 q 820 323 854 429 q 718 143 787 218 q 545 26 650 68 q 300 -15 441 -15 q 196 -12 268 -15 q 38 0 125 -9 q 40 124 40 63 q 42 243 41 184 q 43 362 43 302 q 43 486 43 422 q 40 834 43 668 q 33 1132 38 1001 m 302 922 q 277 920 288 922 q 254 918 265 919 q 252 788 252 852 q 252 658 252 723 q 253 590 252 626 q 254 516 254 554 q 256 439 255 477 q 258 368 258 401 q 283 364 270 365 q 305 363 295 363 q 400 386 356 363 q 477 446 444 408 q 527 536 509 484 q 545 645 545 587 q 534 738 545 688 q 493 827 522 787 q 418 895 465 868 q 302 922 372 922 m 920 0 q 911 61 913 27 q 909 129 909 94 q 913 209 909 172 q 923 284 916 247 l 1216 551 l 948 551 q 941 614 944 579 q 938 690 938 650 q 941 765 938 729 q 948 830 944 801 l 1473 830 q 1478 779 1476 805 q 1480 720 1480 752 q 1479 668 1480 698 q 1473 590 1477 637 l 1140 295 l 1477 295 q 1484 225 1482 263 q 1487 147 1487 187 q 1484 67 1487 105 q 1477 0 1482 29 l 920 0 m 994 1080 l 1036 1175 l 1232 1079 l 1427 1175 l 1469 1080 l 1232 922 l 994 1080 "}}}
